<svg width="368" height="211" viewBox="0 0 368 211" fill="none" xmlns="http://www.w3.org/2000/svg">
<path d="M12.83 209.02C12.83 209.02 -2.36 188.96 4.89 164.92C12.15 140.87 30.78 122.5 24.77 94.68C17.63 61.64 34.35 33.78 63.95 37.37C113.55 43.4 149.22 5.89998 167.37 2.14998C221.15 -8.96002 230.96 31.66 259.99 35.62C322.64 44.16 342 71.5 339.76 123.93C339.02 141.18 386.99 175.72 359.45 209.02H12.83Z" fill="#E2E9FB"/>
<path d="M321.813 63.146V57.836L229.833 57.836V63.146L321.813 63.146Z" fill="#D3DDF8"/>
<path d="M321.811 103.444V98.1343L229.831 98.1343V103.444L321.811 103.444Z" fill="#D3DDF8"/>
<path d="M321.809 143.743V138.433L229.829 138.433V143.743L321.809 143.743Z" fill="#D3DDF8"/>
<path d="M234.09 25.66H228.78V143.74H234.09V25.66Z" fill="#D3DDF8"/>
<path d="M277.77 25.66H272.46V143.74H277.77V25.66Z" fill="#D3DDF8"/>
<path d="M321.43 25.66H316.13V143.74H321.43V25.66Z" fill="#D3DDF8"/>
<path d="M263.33 119.28C262.24 120.56 261.91 122.8 261.48 124.37C261.14 125.62 260.85 126.89 260.6 128.16H259.76C260.36 124.69 260.89 121.15 261.84 117.8C262.53 115.36 264.09 114.16 266.44 113.47C268.42 112.89 270.44 112.4 272.44 111.86C272.75 111.78 267.03 111.99 264.43 112.7C263.52 112.95 262.37 113.19 261.35 113.61C262.61 109.91 264.24 106.25 265.99 102.57C266.16 102.22 255.08 112.53 257.85 128.17H257.05C257.02 128.13 257 128.09 256.97 128.06C255.84 124.27 256.04 120.17 254.51 116.49C253.09 113.09 250.38 110.51 247.47 108.35C247.2 108.15 246.97 108.52 247.07 108.75C248.5 112.08 250.91 114.77 252.41 118.03C253.63 120.69 254.6 123.48 255.57 126.26C254.3 124.87 252.79 123.92 250.62 123.66C247.25 123.26 245.75 125.22 244.67 128.16C244.55 128.48 245.05 128.67 245.2 128.39C246.25 126.5 248.89 126.02 250.88 126.02C252.9 126.02 254.49 127 256 128.17H253.59L255.44 139.42H261.89L263.74 128.17H262.14C262.68 126.89 263.14 125.57 263.74 124.3C264.53 122.63 265.3 121.11 267.48 121.42C268.85 121.62 270.26 122.17 271.59 122.53C271.96 122.62 265.25 117.03 263.33 119.28Z" fill="#D3DDF8"/>
<path d="M132.82 79.45C122.91 71.98 117.03 65.18 114.64 62.15V13.87H112.14V62.15C109.75 65.18 103.88 71.98 93.96 79.45H108.4V79.46C108.4 81.35 109.44 83.15 111.18 83.89C114.74 85.39 118.16 82.82 118.16 79.45H132.82V79.45Z" fill="#D3DDF8"/>
<path d="M83.7 78.51C83.69 78.38 83.6 78.23 83.49 78.18C82.85 77.9 81.87 77.97 81.23 78.22C80.43 78.54 80.02 79.32 79.67 80.15C79.67 80.16 79.67 80.16 79.66 80.17C79.25 80.39 78.84 80.62 78.45 80.87C78.58 80.37 78.65 79.85 78.64 79.31C78.63 78.77 78.56 77.19 77.75 77.41C77.14 77.58 76.68 79.09 76.53 79.68C76.31 80.54 76.34 81.4 76.7 82.18C76.01 82.78 75.37 83.43 74.79 84.15C74.82 83.77 74.82 83.38 74.77 82.99C74.71 82.45 74.47 80.89 73.68 81.23C73.1 81.48 72.8 83.05 72.72 83.66C72.58 84.63 72.75 85.57 73.3 86.33C72.83 87.15 72.42 88.01 72.07 88.92C72.05 88.98 72.03 89.03 72.01 89.09C71.98 88.55 71.9 88.01 71.72 87.48C71.55 86.98 71.01 85.52 70.31 86.05C69.79 86.45 69.82 88.05 69.85 88.66C69.85 88.75 69.87 88.84 69.88 88.92C69.46 88.79 68.9 88.84 68.53 88.95C68 89.11 67.5 89.37 67.05 89.7C67.27 88.5 67.49 87.33 67.7 86.25C69.11 86.19 71.76 85.26 71.8 84.06C71.83 83.11 70.56 83.13 69.88 83.34C69.22 83.54 68.62 83.89 68.08 84.35C68.3 83.26 68.51 82.3 68.7 81.51C70.15 81.62 72.61 81.14 72.79 80.02C72.94 79.09 71.69 78.89 70.99 78.98C70.36 79.06 69.77 79.27 69.22 79.58C69.53 78.55 69.87 77.53 70.27 76.56C71.67 77.03 74.14 77.19 74.53 76.16C74.86 75.29 73.68 74.78 72.98 74.68C72.33 74.59 71.68 74.66 71.05 74.84C71.56 73.82 72.15 72.86 72.82 71.97C74.04 72.72 76.87 73.41 77.42 72.35C77.84 71.54 76.72 70.85 76.04 70.66C75.38 70.47 74.7 70.45 74.04 70.56C74.54 70.05 75.07 69.58 75.66 69.16C75.69 69.17 75.71 69.18 75.75 69.18C76.56 69.22 77.63 69.14 78.27 68.52C78.78 68.03 79.01 66.99 78.85 66.26C78.82 66.13 78.72 66 78.6 65.97C77.93 65.8 76.97 66.05 76.37 66.41C75.62 66.87 75.32 67.71 75.09 68.59C75.09 68.6 75.09 68.6 75.09 68.61C74.7 68.9 74.33 69.22 73.98 69.55C74.04 69.02 74.05 68.49 73.96 67.94C73.88 67.41 73.6 65.86 72.82 66.22C72.24 66.49 71.99 68.07 71.92 68.68C71.81 69.6 71.98 70.47 72.47 71.19C71.85 71.97 71.31 72.81 70.81 73.7C70.8 73.22 70.74 72.75 70.62 72.27C70.48 71.75 70.04 70.25 69.31 70.72C68.77 71.07 68.69 72.67 68.68 73.29C68.67 74.29 68.97 75.19 69.63 75.85C69.59 75.95 69.59 76.07 69.63 76.17C69.3 76.96 69.01 77.77 68.75 78.6C68.74 78.64 68.72 78.7 68.71 78.74C68.61 78.22 68.45 77.71 68.21 77.23C67.97 76.76 67.24 75.42 66.62 76.06C66.16 76.54 66.4 78.12 66.52 78.72C66.71 79.7 67.18 80.5 67.95 80.97C67.93 81.08 67.96 81.2 68.02 81.29C67.87 81.94 67.71 82.63 67.55 83.37C67.39 82.91 67.17 82.47 66.89 82.07C66.6 81.65 65.7 80.44 65.17 81.19C64.78 81.75 65.22 83.26 65.42 83.84C65.72 84.74 66.27 85.43 67.05 85.78C66.82 86.95 66.58 88.18 66.35 89.43C66.18 88.8 65.92 88.22 65.55 87.68C65.26 87.26 64.36 86.05 63.83 86.8C63.44 87.36 63.89 88.87 64.08 89.45C64.39 90.38 64.96 91.1 65.79 91.43C65.79 91.56 65.84 91.68 65.93 91.76C65.83 92.34 65.72 92.93 65.62 93.5C65.45 92.89 65.19 92.32 64.83 91.8C64.72 91.65 64.54 91.4 64.33 91.17C64.3 91.07 64.27 90.99 64.22 90.92C64.06 90.69 63.87 90.65 63.67 90.7C63.47 90.65 63.28 90.69 63.12 90.92C63.07 90.99 63.03 91.08 63.01 91.17C62.8 91.4 62.61 91.65 62.51 91.8C62.15 92.32 61.89 92.89 61.72 93.5C61.62 92.92 61.51 92.34 61.41 91.76C61.5 91.68 61.55 91.56 61.55 91.43C62.38 91.1 62.95 90.38 63.26 89.45C63.46 88.87 63.9 87.36 63.51 86.8C62.98 86.05 62.08 87.26 61.79 87.68C61.42 88.21 61.16 88.8 60.99 89.43C60.76 88.18 60.53 86.95 60.29 85.78C61.07 85.43 61.62 84.74 61.92 83.84C62.12 83.26 62.56 81.75 62.17 81.19C61.64 80.44 60.75 81.65 60.45 82.07C60.17 82.47 59.96 82.91 59.79 83.37C59.63 82.63 59.48 81.94 59.32 81.29C59.38 81.2 59.41 81.08 59.4 80.97C60.17 80.5 60.64 79.7 60.83 78.72C60.95 78.12 61.19 76.54 60.73 76.06C60.11 75.41 59.38 76.76 59.15 77.23C58.91 77.71 58.75 78.22 58.65 78.74C58.64 78.69 58.62 78.64 58.61 78.6C58.35 77.77 58.05 76.96 57.73 76.17C57.77 76.07 57.77 75.95 57.73 75.85C58.39 75.19 58.69 74.29 58.68 73.29C58.68 72.67 58.6 71.07 58.06 70.72C57.33 70.25 56.88 71.75 56.75 72.27C56.63 72.75 56.57 73.22 56.56 73.7C56.07 72.81 55.52 71.97 54.9 71.19C55.39 70.47 55.56 69.6 55.45 68.68C55.38 68.07 55.13 66.49 54.55 66.22C53.77 65.85 53.49 67.41 53.41 67.94C53.33 68.48 53.33 69.02 53.4 69.55C53.05 69.22 52.68 68.91 52.29 68.61C52.29 68.6 52.29 68.6 52.29 68.59C52.05 67.71 51.76 66.86 51 66.41C50.41 66.05 49.44 65.81 48.77 65.97C48.65 66 48.55 66.12 48.52 66.26C48.35 66.99 48.59 68.03 49.1 68.52C49.75 69.14 50.82 69.22 51.62 69.18C51.65 69.18 51.68 69.17 51.71 69.16C52.29 69.58 52.83 70.06 53.33 70.56C52.67 70.45 51.99 70.47 51.33 70.66C50.65 70.86 49.53 71.54 49.95 72.35C50.5 73.4 53.33 72.71 54.55 71.97C55.22 72.85 55.8 73.82 56.32 74.84C55.69 74.66 55.05 74.59 54.39 74.68C53.69 74.78 52.51 75.29 52.84 76.16C53.24 77.19 55.7 77.03 57.1 76.56C57.5 77.54 57.85 78.55 58.16 79.58C57.61 79.27 57.02 79.05 56.39 78.98C55.69 78.89 54.43 79.09 54.59 80.02C54.77 81.13 57.23 81.61 58.68 81.51C58.87 82.29 59.08 83.25 59.3 84.35C58.76 83.89 58.16 83.54 57.5 83.34C56.82 83.14 55.55 83.12 55.58 84.06C55.62 85.26 58.27 86.19 59.68 86.25C59.89 87.34 60.11 88.5 60.32 89.7C59.87 89.37 59.37 89.11 58.84 88.95C58.16 88.75 56.89 88.73 56.92 89.67C56.93 90.08 57.25 90.46 57.72 90.78C57.15 90.53 56.54 91.66 56.32 92.08C56.14 92.45 56 92.84 55.9 93.23C55.71 92.57 55.5 91.89 55.27 91.19C55.44 91.09 55.49 90.89 55.44 90.71C56.14 90.11 56.5 89.23 56.55 88.24C56.58 87.62 56.61 86.02 56.09 85.63C55.39 85.1 54.85 86.56 54.68 87.06C54.5 87.59 54.41 88.13 54.39 88.67C54.37 88.61 54.35 88.56 54.33 88.5C53.99 87.59 53.58 86.73 53.11 85.91C53.66 85.15 53.83 84.21 53.69 83.24C53.6 82.63 53.31 81.07 52.73 80.81C51.94 80.47 51.71 82.03 51.64 82.57C51.59 82.96 51.59 83.35 51.62 83.73C51.04 83.01 50.39 82.35 49.7 81.76C50.06 80.98 50.09 80.12 49.87 79.26C49.72 78.67 49.26 77.16 48.65 76.99C47.83 76.77 47.77 78.35 47.76 78.89C47.75 79.43 47.83 79.95 47.96 80.45C47.57 80.2 47.16 79.96 46.75 79.75C46.75 79.74 46.75 79.74 46.75 79.73C46.4 78.9 45.99 78.12 45.19 77.8C44.56 77.55 43.57 77.48 42.93 77.76C42.82 77.81 42.73 77.95 42.72 78.09C42.66 78.84 43.03 79.82 43.6 80.22C44.32 80.72 45.39 80.61 46.18 80.43C46.21 80.42 46.24 80.41 46.26 80.39C46.9 80.71 47.51 81.08 48.09 81.49C47.4 81.5 46.73 81.63 46.08 81.94C45.43 82.25 44.42 83.12 44.95 83.85C45.65 84.81 48.43 83.57 49.49 82.62C50.34 83.39 51.11 84.26 51.79 85.21C51.07 85.1 50.34 85.14 49.64 85.37C48.96 85.59 47.86 86.31 48.31 87.11C48.86 88.1 51.46 87.42 52.73 86.66C53.27 87.59 53.74 88.57 54.14 89.6C53.52 89.36 52.86 89.23 52.19 89.27C51.49 89.31 50.27 89.72 50.55 90.62C50.88 91.67 53.31 91.73 54.75 91.38C55.09 92.49 55.4 93.58 55.67 94.63C55.03 94.21 54.32 93.92 53.57 93.84C52.87 93.76 51.61 93.96 51.77 94.89C51.97 96.06 54.67 96.52 56.08 96.34C56.29 97.25 56.46 98.11 56.61 98.93C56.05 98.61 55.45 98.39 54.81 98.32C54.11 98.24 52.85 98.44 53.01 99.37C53.19 100.44 55.45 100.91 56.92 100.85C57.03 101.61 57.11 102.29 57.16 102.88C56.75 102.45 56.28 102.09 55.75 101.82C55.11 101.5 53.86 101.25 53.75 102.19C53.62 103.44 56.39 104.94 57.71 105.14C57.93 105.17 58.07 105 58.1 104.8C58.63 104.69 59.08 104.42 59.45 104.03C60.42 104.72 62.1 105.18 63.02 105.15C63.04 105.15 63.07 105.13 63.11 105.11C63.33 105.23 63.67 105.03 63.64 104.68C63.66 104.66 63.69 104.64 63.71 104.61C63.73 104.63 63.76 104.66 63.78 104.68C63.75 105.04 64.09 105.24 64.31 105.11C64.35 105.13 64.38 105.15 64.4 105.15C65.08 105.17 66.18 104.93 67.1 104.52C67.45 104.86 67.88 105.1 68.36 105.2C68.39 105.4 68.52 105.58 68.75 105.54C70.07 105.34 72.85 103.85 72.71 102.59C72.61 101.65 71.36 101.9 70.72 102.22C70.2 102.48 69.73 102.85 69.31 103.28C69.36 102.69 69.44 102.01 69.54 101.25C71.01 101.31 73.27 100.83 73.45 99.77C73.61 98.84 72.35 98.64 71.65 98.72C71.01 98.8 70.41 99.01 69.85 99.33C70 98.52 70.17 97.65 70.38 96.74C71.79 96.92 74.49 96.46 74.69 95.29C74.85 94.36 73.59 94.16 72.89 94.24C72.14 94.33 71.43 94.61 70.79 95.03C71.06 93.98 71.36 92.9 71.71 91.78C73.14 92.13 75.58 92.07 75.9 91.02C76.18 90.13 74.96 89.71 74.26 89.67C73.59 89.63 72.94 89.76 72.31 90C72.71 88.97 73.17 87.99 73.72 87.06C74.99 87.81 77.59 88.49 78.14 87.51C78.59 86.71 77.48 85.99 76.81 85.77C76.1 85.54 75.37 85.5 74.66 85.62C75.34 84.67 76.11 83.8 76.96 83.02C78.03 83.98 80.81 85.22 81.51 84.26C82.04 83.53 81.02 82.66 80.38 82.35C79.74 82.04 79.06 81.9 78.37 81.9C78.95 81.49 79.56 81.12 80.2 80.8C80.23 80.82 80.25 80.83 80.28 80.84C81.07 81.02 82.14 81.13 82.86 80.63C83.39 80.25 83.76 79.26 83.7 78.51ZM70.24 90.23C70.42 90.58 70.65 90.89 70.95 91.15C70.9 91.33 70.95 91.53 71.12 91.63C70.89 92.33 70.68 93.01 70.49 93.67C70.39 93.28 70.26 92.89 70.07 92.52C69.89 92.17 69.44 91.33 68.97 91.19C69.53 90.92 69.99 90.59 70.24 90.23ZM68.84 96.98C68.61 96.51 67.88 95.16 67.26 95.81C67.02 96.06 66.97 96.6 66.99 97.14C66.5 97.31 66.04 97.55 65.61 97.87C65.71 97.26 65.82 96.63 65.93 95.99C66.78 95.89 67.92 95.55 68.73 95.06C68.98 95.56 69.33 95.97 69.8 96.26C69.61 97.02 69.45 97.75 69.31 98.43C69.22 97.93 69.07 97.44 68.84 96.98ZM63.66 94.22C63.8 94.43 63.96 94.64 64.13 94.85C63.97 94.94 63.8 95.09 63.66 95.24C63.51 95.08 63.35 94.94 63.19 94.85C63.36 94.64 63.53 94.42 63.66 94.22ZM62.8 99.99C62.8 99.96 62.79 99.93 62.79 99.9C63 99.75 63.33 99.44 63.66 99.07C63.99 99.44 64.32 99.74 64.53 99.9C64.52 99.93 64.52 99.96 64.51 99.99C64.18 100.18 63.86 100.57 63.65 100.84C63.46 100.57 63.13 100.18 62.8 99.99ZM68.45 91.41C68.21 91.74 68.2 92.4 68.25 93C68.09 93.02 67.93 93.05 67.8 93.09C67.26 93.25 66.76 93.52 66.3 93.86C66.42 93.19 66.53 92.53 66.65 91.86C67.19 91.8 67.84 91.64 68.45 91.41ZM64.93 97.53C64.89 97.39 64.84 97.25 64.79 97.11C64.9 96.71 65.01 96.21 65.03 95.77C65.09 95.82 65.15 95.87 65.2 95.91C65.12 96.46 65.02 97 64.93 97.53ZM62.28 95.77C62.3 96.21 62.41 96.71 62.52 97.11C62.47 97.25 62.42 97.39 62.38 97.53C62.29 97 62.2 96.46 62.1 95.91C62.16 95.87 62.22 95.82 62.28 95.77ZM60.67 91.86C60.79 92.53 60.9 93.19 61.02 93.86C60.56 93.52 60.06 93.25 59.52 93.09C59.11 92.97 58.48 92.91 58.06 93.1C58.16 92.37 58.23 91.32 57.87 90.94C57.85 90.92 57.84 90.91 57.82 90.9C58.63 91.4 59.8 91.76 60.67 91.86ZM57.78 94.32C58.34 95.19 60.16 95.84 61.39 95.98C61.5 96.62 61.61 97.25 61.71 97.87C61.25 97.52 60.74 97.26 60.2 97.09C59.97 97.02 59.67 96.97 59.37 96.98C59.41 96.36 59.39 95.7 59.12 95.41C58.5 94.76 57.77 96.11 57.54 96.58C57.31 97.04 57.16 97.53 57.06 98.02C56.92 97.34 56.76 96.61 56.57 95.85C57.13 95.5 57.53 94.97 57.78 94.32ZM60.58 102.24C60.54 102.23 60.49 102.21 60.44 102.2C60.66 101.62 60.82 100.96 60.63 100.59C60.21 99.76 59.16 100.78 58.81 101.15C58.38 101.6 58.06 102.11 57.8 102.68C57.74 102.13 57.65 101.5 57.55 100.78C57.75 100.72 57.83 100.52 57.8 100.33C58.35 99.99 58.74 99.48 58.99 98.87C59.79 99.46 61.11 99.88 62.07 99.99C62.08 100.03 62.08 100.06 62.09 100.1C62.08 100.11 62.07 100.12 62.06 100.14C61.67 100.7 62.11 102.21 62.31 102.79C62.37 102.97 62.48 103.17 62.61 103.38C62.61 103.4 62.6 103.43 62.59 103.45C62 102.89 61.33 102.47 60.58 102.24ZM64.71 103.36C64.84 103.15 64.95 102.95 65.01 102.77C65.2 102.19 65.65 100.68 65.26 100.12C65.25 100.1 65.24 100.1 65.23 100.08C65.24 100.05 65.24 100.01 65.25 99.97C65.9 99.9 66.71 99.68 67.42 99.37C67.67 99.94 68.05 100.4 68.57 100.72C68.54 100.91 68.62 101.12 68.82 101.17C68.74 101.71 68.67 102.2 68.62 102.64C68.53 102.41 68.33 102.26 68.08 102.19C67.92 101.96 67.76 101.74 67.56 101.54C67.21 101.17 66.16 100.15 65.74 100.98C65.56 101.35 65.71 102 65.92 102.58C65.49 102.81 65.09 103.09 64.72 103.43C64.73 103.41 64.72 103.39 64.71 103.36Z" fill="#83A5F2"/>
<path d="M57.75 103.11H52.1L52.62 106.52L53.54 112.61L55.56 125.89H61.22H70.34L72.36 112.61L73.29 106.52L73.8 103.11H57.75Z" fill="#D3DDF8"/>
<path d="M113.39 181.02H0V206.08H113.39V181.02Z" fill="white"/>
<path d="M113.4 184.69H7.19995V202.42H113.4V184.69Z" fill="#E2E9FB"/>
<path d="M54.5401 192.16H18.3101V194.81H54.5401V192.16Z" fill="white"/>
<path d="M105.56 192.16H69.33V194.81H105.56V192.16Z" fill="white"/>
<path d="M113.39 152.76H0V177.82H113.39V152.76Z" fill="white"/>
<path d="M113.4 156.43H7.19995V174.16H113.4V156.43Z" fill="#E2E9FB"/>
<path d="M54.5401 163.9H18.3101V166.55H54.5401V163.9Z" fill="white"/>
<path d="M105.56 163.9H69.33V166.55H105.56V163.9Z" fill="white"/>
<path d="M113.39 124.5H0V149.56H113.39V124.5Z" fill="white"/>
<path d="M113.4 128.16H7.19995V145.89H113.4V128.16Z" fill="#E2E9FB"/>
<path d="M54.5401 135.64H18.3101V138.29H54.5401V135.64Z" fill="white"/>
<path d="M105.56 135.64H69.33V138.29H105.56V135.64Z" fill="white"/>
<path d="M192.37 68.49C192.37 78.8 184.01 87.16 173.7 87.16C163.39 87.16 155.03 78.8 155.03 68.49C155.03 58.18 163.39 49.8199 173.7 49.8199C184.01 49.8199 192.37 58.17 192.37 68.49Z" fill="white"/>
<path d="M190.34 68.6698C190.34 78.9798 181.98 87.3398 171.67 87.3398C161.36 87.3398 153 78.9798 153 68.6698C153 58.3598 161.36 49.9998 171.67 49.9998C181.98 49.9998 190.34 58.3598 190.34 68.6698Z" fill="#D3DDF8"/>
<path d="M169.53 110.29C169.52 110.29 169.51 110.29 169.51 110.29C168.17 110.23 167.41 110.18 167.41 110.18C167.12 110.16 166.9 109.91 166.92 109.62C166.94 109.33 167.2 109.08 167.48 109.13C167.48 109.13 168.23 109.18 169.57 109.24C169.86 109.25 170.08 109.5 170.07 109.79C170.05 110.07 169.81 110.29 169.53 110.29Z" fill="white"/>
<path d="M247.55 130.37C247.26 130.37 247.01 130.13 247.01 129.84C247.01 129.55 247.23 129.32 247.52 129.32H247.54C248.93 129.32 250.3 129.24 251.62 129.09C251.9 129.04 252.17 129.26 252.2 129.55C252.24 129.84 252.03 130.1 251.74 130.13C250.39 130.29 248.98 130.37 247.55 130.37ZM243.36 130.14C243.34 130.14 243.32 130.14 243.3 130.14C241.93 130 240.52 129.78 239.13 129.5C238.85 129.44 238.66 129.17 238.72 128.88C238.78 128.59 239.06 128.41 239.34 128.47C240.7 128.74 242.07 128.96 243.41 129.1C243.7 129.13 243.91 129.39 243.88 129.68C243.86 129.94 243.63 130.14 243.36 130.14ZM235.2 128.51C235.15 128.51 235.1 128.5 235.05 128.49C233.73 128.1 232.38 127.65 231.06 127.15C230.79 127.05 230.65 126.74 230.75 126.47C230.85 126.2 231.16 126.06 231.43 126.16C232.73 126.65 234.05 127.09 235.34 127.47C235.62 127.55 235.78 127.84 235.7 128.12C235.63 128.36 235.42 128.51 235.2 128.51ZM227.4 125.57C227.33 125.57 227.25 125.55 227.18 125.52C225.94 124.95 224.67 124.31 223.42 123.64C223.17 123.5 223.07 123.18 223.21 122.93C223.35 122.67 223.67 122.58 223.92 122.72C225.15 123.39 226.39 124.01 227.62 124.57C227.88 124.69 228 125 227.88 125.27C227.79 125.46 227.6 125.57 227.4 125.57ZM220.07 121.61C219.98 121.61 219.88 121.58 219.79 121.53C219.41 121.29 219.02 121.05 218.63 120.8C217.83 120.28 217.04 119.75 216.29 119.21C216.05 119.04 216 118.71 216.17 118.48C216.34 118.24 216.67 118.19 216.9 118.36C217.63 118.89 218.4 119.41 219.19 119.92C219.57 120.17 219.96 120.41 220.34 120.64C220.59 120.79 220.66 121.12 220.51 121.36C220.42 121.52 220.25 121.61 220.07 121.61ZM213.33 116.72C213.21 116.72 213.09 116.68 212.99 116.59C211.91 115.65 210.88 114.68 209.94 113.68C209.74 113.47 209.75 113.14 209.96 112.94C210.17 112.74 210.5 112.75 210.7 112.96C211.62 113.93 212.62 114.89 213.68 115.8C213.9 115.99 213.92 116.32 213.74 116.54C213.62 116.66 213.47 116.72 213.33 116.72ZM207.63 110.66C207.47 110.66 207.31 110.59 207.21 110.45C206.35 109.29 205.57 108.09 204.91 106.89C204.77 106.64 204.86 106.32 205.12 106.18C205.37 106.04 205.69 106.13 205.83 106.39C206.13 106.93 206.45 107.48 206.8 108.02C206.84 108 206.89 107.98 206.95 107.98C208.39 107.77 209.76 107.53 211.04 107.28C211.32 107.22 211.6 107.41 211.66 107.69C211.72 107.97 211.53 108.25 211.25 108.31C210.06 108.55 208.78 108.77 207.44 108.97C207.64 109.26 207.85 109.55 208.06 109.84C208.23 110.07 208.18 110.4 207.95 110.58C207.84 110.63 207.74 110.66 207.63 110.66ZM182.04 110.55C181.75 110.55 181.51 110.31 181.51 110.03C181.51 109.74 181.74 109.5 182.03 109.5C183.37 109.5 184.76 109.49 186.2 109.46H186.21C186.5 109.46 186.73 109.69 186.74 109.98C186.74 110.27 186.51 110.51 186.22 110.51C184.78 110.54 183.38 110.55 182.04 110.55ZM177.87 110.53C176.34 110.51 174.94 110.48 173.69 110.44C173.4 110.43 173.17 110.19 173.18 109.9C173.19 109.61 173.41 109.38 173.72 109.39C174.97 109.43 176.37 109.46 177.88 109.48C178.17 109.48 178.4 109.72 178.4 110.01C178.39 110.3 178.15 110.53 177.87 110.53ZM190.38 110.4C190.1 110.4 189.87 110.18 189.85 109.89C189.84 109.6 190.07 109.36 190.36 109.35C191.73 109.3 193.12 109.24 194.52 109.16C194.8 109.13 195.06 109.37 195.07 109.66C195.09 109.95 194.86 110.2 194.57 110.21C193.16 110.29 191.77 110.35 190.39 110.4C190.4 110.4 190.39 110.4 190.38 110.4ZM198.72 109.93C198.45 109.93 198.22 109.72 198.2 109.45C198.18 109.16 198.39 108.91 198.68 108.88C200.07 108.77 201.45 108.64 202.82 108.49C203.1 108.46 203.37 108.67 203.4 108.96C203.43 109.25 203.22 109.51 202.94 109.54C201.56 109.69 200.17 109.82 198.77 109.93C198.75 109.93 198.73 109.93 198.72 109.93ZM215.19 107.37C214.96 107.37 214.75 107.22 214.68 106.98C214.6 106.7 214.77 106.41 215.05 106.34C216.48 105.95 217.8 105.53 218.97 105.07C219.24 104.97 219.54 105.1 219.65 105.37C219.76 105.64 219.62 105.94 219.35 106.05C218.15 106.52 216.79 106.96 215.33 107.35C215.29 107.36 215.24 107.37 215.19 107.37ZM222.89 104.24C222.72 104.24 222.55 104.16 222.45 104C222.29 103.75 222.37 103.43 222.61 103.27C223.88 102.46 224.84 101.56 225.47 100.61C225.63 100.36 225.95 100.3 226.2 100.46C226.44 100.62 226.51 100.94 226.35 101.19C225.64 102.27 224.58 103.27 223.18 104.16C223.09 104.21 222.99 104.24 222.89 104.24ZM203.64 103.37C203.43 103.37 203.22 103.24 203.15 103.02C202.66 101.65 202.3 100.26 202.08 98.9C202.04 98.61 202.23 98.34 202.52 98.3C202.8 98.26 203.07 98.45 203.12 98.74C203.33 100.04 203.67 101.36 204.14 102.67C204.24 102.94 204.1 103.24 203.82 103.34C203.76 103.36 203.7 103.37 203.64 103.37ZM226.87 97.47C226.6 97.47 226.38 97.27 226.35 97C226.23 95.86 225.79 94.62 225.02 93.32C224.87 93.07 224.96 92.75 225.21 92.6C225.46 92.46 225.78 92.54 225.93 92.79C226.77 94.23 227.26 95.61 227.4 96.9C227.43 97.19 227.22 97.44 226.93 97.48C226.91 97.47 226.89 97.47 226.87 97.47ZM202.38 95.18C202.37 95.18 202.36 95.18 202.35 95.18C202.06 95.16 201.84 94.91 201.86 94.62C201.95 93.13 202.23 91.71 202.68 90.4C202.77 90.13 203.07 89.98 203.35 90.08C203.62 90.17 203.77 90.47 203.68 90.75C203.26 91.97 203 93.29 202.91 94.69C202.89 94.97 202.66 95.18 202.38 95.18ZM222.99 90.24C222.85 90.24 222.7 90.18 222.6 90.06C222.45 89.89 222.29 89.71 222.12 89.54C221.31 88.68 220.49 87.9 219.66 87.23C219.43 87.05 219.4 86.72 219.58 86.49C219.76 86.26 220.09 86.23 220.32 86.41C221.19 87.11 222.05 87.92 222.89 88.82C223.06 89 223.22 89.18 223.38 89.36C223.57 89.58 223.55 89.91 223.34 90.1C223.24 90.2 223.11 90.24 222.99 90.24ZM205.16 87.47C205.04 87.47 204.93 87.43 204.83 87.35C204.61 87.17 204.57 86.84 204.75 86.61C205.72 85.42 206.87 84.51 208.17 83.9C208.43 83.78 208.75 83.89 208.87 84.15C208.99 84.41 208.88 84.73 208.62 84.85C207.46 85.39 206.43 86.2 205.57 87.27C205.47 87.4 205.32 87.47 205.16 87.47ZM216.47 85.14C216.4 85.14 216.32 85.12 216.25 85.09C214.96 84.5 213.67 84.18 212.43 84.12C212.14 84.11 211.92 83.86 211.93 83.57C211.94 83.28 212.16 83.04 212.48 83.07C213.86 83.14 215.27 83.49 216.69 84.14C216.95 84.26 217.07 84.57 216.95 84.84C216.86 85.03 216.67 85.14 216.47 85.14Z" fill="white"/>
<path d="M255.86 129.34C255.63 129.34 255.42 129.19 255.35 128.95C255.27 128.67 255.44 128.38 255.72 128.3C256.96 127.96 257.62 127.67 257.63 127.66C257.89 127.54 258.21 127.66 258.32 127.92C258.44 128.18 258.32 128.49 258.06 128.61C258.03 128.62 257.32 128.94 256 129.3C255.95 129.33 255.91 129.34 255.86 129.34Z" fill="white"/>
<path d="M167.43 123.81L171.15 112.5V112.48L161.82 105.86L172.63 109.76L172.64 109.75L180.18 100.89L151.84 100.45L167.43 123.81Z" fill="white"/>
<path d="M171.15 112.5L172.64 109.75L172.63 109.76L153.92 101.59L171.15 112.48V112.5Z" fill="#CBD7F4"/>
<path d="M205.02 154.89H183.86C181.57 154.89 179.7 153.02 179.7 150.73C179.7 148.44 181.57 146.57 183.86 146.57H205.02C205.37 146.57 205.65 146.85 205.65 147.19C205.65 147.54 205.65 153.91 205.65 154.26C205.64 154.61 205.36 154.89 205.02 154.89Z" fill="url(#paint0_linear)"/>
<path d="M221.88 154.26H200.72C198.77 154.26 197.18 152.68 197.18 150.73C197.18 148.78 198.76 147.19 200.72 147.19H221.88V154.26Z" fill="white"/>
<path d="M221.88 154.89H200.72C198.43 154.89 196.56 153.02 196.56 150.73C196.56 148.44 198.43 146.57 200.72 146.57H221.88C222.22 146.57 222.5 146.85 222.5 147.19C222.5 147.54 222.22 147.82 221.88 147.82H200.72C199.11 147.82 197.81 149.13 197.81 150.73C197.81 152.33 199.11 153.64 200.72 153.64H221.88C222.22 153.64 222.5 153.92 222.5 154.26C222.5 154.61 222.22 154.89 221.88 154.89Z" fill="url(#paint1_linear)"/>
<path d="M210.79 146.57H189.63C187.34 146.57 185.47 144.7 185.47 142.41C185.47 140.12 187.34 138.25 189.63 138.25H210.79C211.14 138.25 211.42 138.53 211.42 138.88C211.42 139.23 211.42 145.6 211.42 145.95C211.42 146.29 211.14 146.57 210.79 146.57Z" fill="#120D80"/>
<path d="M227.66 145.94H206.5C204.55 145.94 202.97 144.36 202.97 142.41C202.97 140.46 204.55 138.88 206.5 138.88H227.66V145.94Z" fill="white"/>
<path d="M227.66 146.57H206.5C204.21 146.57 202.34 144.7 202.34 142.41C202.34 140.12 204.21 138.25 206.5 138.25H227.66C228.01 138.25 228.29 138.53 228.29 138.88C228.29 139.23 228.01 139.5 227.66 139.5H206.5C204.9 139.5 203.59 140.81 203.59 142.41C203.59 144.01 204.89 145.32 206.5 145.32H227.66C228.01 145.32 228.29 145.6 228.29 145.94C228.28 146.29 228 146.57 227.66 146.57Z" fill="#2647C8"/>
<path d="M168.22 209.02H165.15L170.58 158.92H173.65L168.22 209.02Z" fill="#6F8FE4"/>
<path d="M164.3 209.02H165.15L170.58 158.92H169.74L164.3 209.02Z" fill="#83A5F2"/>
<path d="M183.61 209.02H180.53L185.96 158.92H189.04L183.61 209.02Z" fill="#6F8FE4"/>
<path d="M179.69 209.02H180.53L185.96 158.92H185.12L179.69 209.02Z" fill="#83A5F2"/>
<path d="M236.63 209.02H233.55L228.12 158.92H231.2L236.63 209.02Z" fill="#1D3599"/>
<path d="M232.71 209.02H233.55L228.12 158.92H227.28L232.71 209.02Z" fill="#6F8FE4"/>
<path d="M256.68 209.02H253.61L248.18 158.92H251.25L256.68 209.02Z" fill="#1D3599"/>
<path d="M252.77 209.02H253.61L248.18 158.92H247.34L252.77 209.02Z" fill="#6F8FE4"/>
<path d="M253.39 154.95H166.01V159.7H253.39V154.95Z" fill="#6F8FE4"/>
<path d="M253.39 154.95H223.95V159.7H253.39V154.95Z" fill="#2647C8"/>
<path d="M352.44 137.24C349.86 128.93 346.98 119.62 341.21 112.8C339.95 111.3 338.55 109.93 336.98 108.71C336.46 108.3 335.95 107.93 335.41 107.58C326.84 101.91 316.76 102.95 309.19 110.27C304.09 115.21 296.19 140.72 289.74 144.01C264.95 147 249.82 169 257.62 190.44C257.81 190.94 258 191.44 258.21 191.92C266.97 212.12 295.86 207.87 308.76 207.83C320.09 207.8 332.19 207.32 341.56 200.18C349.47 194.16 354.38 184.83 356.29 175.2C358.82 162.49 356.23 149.4 352.44 137.24Z" fill="white"/>
<path d="M316.98 158.03C316.98 158.03 323.47 146.87 332.54 142.6C332.54 142.6 318.25 149.33 312.2 159.77L316.98 158.03Z" fill="#BFCFEF"/>
<path d="M316.98 158.03C316.98 158.03 293.93 163.01 287.15 168.69C287.15 168.69 302.67 162.49 314.62 162.6L316.98 158.03Z" fill="#BFCFEF"/>
<path d="M352.44 137.24C349.86 128.93 346.98 119.62 341.21 112.8C350.28 131.12 357.08 161.38 343.88 188.74C338.34 200.23 325.97 203.63 299.76 203.63C287.24 203.63 262.74 197.03 258.2 191.92C266.96 212.12 295.85 207.87 308.75 207.83C320.08 207.8 332.18 207.32 341.55 200.18C349.46 194.16 354.37 184.83 356.28 175.2C358.82 162.49 356.23 149.4 352.44 137.24Z" fill="#D3DDF8"/>
<path d="M314.78 158.03C314.78 158.03 297.19 152.18 285.46 156.8C285.46 156.8 305.4 155.74 312.2 161.15L314.78 158.03Z" fill="#BFCFEF"/>
<path fill-rule="evenodd" clip-rule="evenodd" d="M248.35 193.49C248.35 193.49 247.89 200.14 245.41 200.25C242.93 200.36 238.9 202.19 237.33 203.54C237.33 203.54 231.9 202.34 228.27 200.2C227.91 199.99 227.89 199.48 228.23 199.24C229.93 197.99 234.34 197.8 236.64 196.64C239.25 195.32 242.51 192.15 245.24 192.14C247.97 192.13 248.35 193.49 248.35 193.49Z" fill="#0C1540"/>
<path fill-rule="evenodd" clip-rule="evenodd" d="M242.83 205.96C242.83 205.96 246.19 200.5 246.45 199.54C246.7 198.58 243.26 198.22 243.26 198.22L241.3 205.32C241.29 205.33 241.66 206.01 242.83 205.96Z" fill="#0C1540"/>
<path fill-rule="evenodd" clip-rule="evenodd" d="M242.91 191.5C243.43 190.74 244.62 188.45 244.62 188.45L249.53 191.69L248.25 194.33C248.25 194.33 236.95 200.13 235.63 197.05C240.19 194.67 241.59 193.41 242.91 191.5Z" fill="#FBBCBE"/>
<path fill-rule="evenodd" clip-rule="evenodd" d="M261.02 197.28C261.02 197.28 260.98 203.95 258.51 204.21C256.04 204.47 252.13 206.55 250.66 208C250.66 208 245.17 207.15 241.41 205.23C241.04 205.04 240.99 204.54 241.31 204.27C242.93 202.91 247.32 202.45 249.54 201.15C252.07 199.67 255.12 196.3 257.84 196.12C260.56 195.95 261.02 197.28 261.02 197.28Z" fill="#0C1540"/>
<path fill-rule="evenodd" clip-rule="evenodd" d="M256.29 210.07C256.29 210.07 259.3 204.41 259.49 203.43C259.68 202.46 256.22 202.32 256.22 202.32L254.71 209.53C254.72 209.54 255.13 210.2 256.29 210.07Z" fill="#0C1540"/>
<path fill-rule="evenodd" clip-rule="evenodd" d="M255.46 195.64C255.93 194.85 256.97 192.49 256.97 192.49L262.08 195.41L260.97 198.12C260.97 198.12 250.06 204.62 248.55 201.62C252.94 198.97 254.27 197.62 255.46 195.64Z" fill="#FBBCBE"/>
<path d="M301.09 137.97C309.04 141.58 302.97 155.54 292.71 159.16C282.45 162.78 270.98 160.52 262.06 161.22C259.52 161.42 253.05 156.85 257.81 151.22C262.56 145.59 290.36 133.09 301.09 137.97Z" fill="#83A5F2"/>
<path d="M260.57 149.11C251.46 155.13 244.56 185.69 241.44 191.03C241.44 191.03 245.57 194.81 250.36 196.7C250.36 196.7 266.97 163.53 268.34 159.31C271.21 150.49 263.57 147.13 260.57 149.11Z" fill="#83A5F2"/>
<path d="M290.87 142.61C290.87 142.61 265.95 154.25 263.25 159.31C260.22 164.98 257.11 172.9 250.37 196.71L267.64 161.09L282.45 164.36L298.32 147.65L290.87 142.61Z" fill="#2647C8"/>
<path d="M309.86 161.16C301.32 164.18 291.98 164.12 283.53 164.43C282.41 164.47 281.31 164.52 280.22 164.57C279.66 164.6 279.11 164.64 278.56 164.68C276.02 164.87 268.65 160.48 273.41 154.84C273.75 154.43 274.27 153.95 274.92 153.41C274.92 153.41 274.93 153.4 274.94 153.4C283.28 146.56 314.31 130.96 319.07 141.42C319.54 142.45 319.89 143.55 320.1 144.69C321.33 150.89 318.54 158.09 309.86 161.16Z" fill="#83A5F2"/>
<path d="M283.68 164.14C283.64 164.22 283.59 164.31 283.54 164.43C282.97 165.54 281.59 167.96 279.8 171.05C273.53 181.84 262.19 200.82 262.19 200.82C257.77 200.47 252.73 197.34 252.73 197.34C256.45 192.67 265.39 159.23 274.92 153.41C274.92 153.41 274.93 153.4 274.94 153.4C275.17 153.25 275.41 153.12 275.65 153.01C278.03 151.91 283.49 153.98 284.55 158.46C284.92 160.06 284.75 161.96 283.68 164.14Z" fill="#83A5F2"/>
<path d="M320.11 144.68C319.46 144.24 318.75 143.84 317.97 143.53C317.77 143.44 317.62 143.5 317.5 143.6C317.15 143.48 316.63 143.75 316.75 144.25C318.51 152.06 309.82 155.49 303.83 156.86C297.5 158.32 291.01 159.53 284.56 158.46C284.04 158.38 283.51 158.28 283 158.16C282.73 158.09 282.38 158.24 282.32 158.54C281.87 160.75 280.56 162.4 280.24 164.55C280.21 164.74 280.18 164.91 280.17 165.1C280.04 167.07 279.92 169.05 279.81 171.03C281.6 167.94 282.98 165.52 283.55 164.41C292 164.1 301.33 164.17 309.88 161.14C318.54 158.09 321.33 150.89 320.11 144.68Z" fill="#2647C8"/>
<path d="M299.52 70.98C299.52 70.98 290.35 81.99 293.54 102.15C293.54 102.15 300.46 105.55 307.65 102.45C307.65 102.45 304.71 87.55 305.6 83.67C305.6 83.67 301.86 75.64 299.52 70.98Z" fill="#0C1540"/>
<path d="M271.23 129.91C268.76 126.2 264.25 108.41 263.4 105.33C262.37 101.63 266.95 98.4099 268.43 102.04C269.85 105.54 279.82 125.36 280.11 127.64C280.64 131.76 274.33 134.56 271.23 129.91Z" fill="#FBBCBE"/>
<path d="M301.5 109.73C299.16 114.25 283.88 127.88 281.07 130.49C277.68 133.64 270.48 130.04 272.09 126.11C273.51 122.64 290.08 104.35 292.42 102.73C296.64 99.81 304.43 104.07 301.5 109.73Z" fill="#FBBCBE"/>
<path d="M293.87 120.46C298.91 115.71 302.98 108.92 304.27 106.44C307.36 100.56 302.19 96.16 296.19 98.4C294.98 98.85 287.46 103.77 283.07 109.09C284.83 114.52 292.88 120.1 293.87 120.46Z" fill="url(#paint2_linear)"/>
<path d="M298.82 98.0399C297.3 99.0899 291.29 103.11 290.88 112.15C290.69 116.43 294.58 121.31 293.16 128.08C291.79 134.59 285.46 139.5 285.46 139.5C285.46 139.5 299.61 149.22 321.31 144.24C323.09 123.37 324.12 115.7 321.85 103.25C320.89 97.9799 314.19 97.2999 312.88 97.1799C311.57 97.0599 304.1 96.6199 298.82 98.0399Z" fill="url(#paint3_linear)"/>
<path d="M302.4 92.1699C302.4 92.1699 302.72 96.8899 301.45 97.3299C300.4 97.6899 298.82 98.0299 298.82 98.0299C298.82 98.0299 305.34 107.87 313.07 97.1199C313.07 97.1199 310.76 97.1499 310.05 96.2199C309.34 95.2899 308.89 90.6799 309.25 87.6299L302.4 92.1699Z" fill="#FBBCBE"/>
<path d="M310.05 96.2299C309.34 95.2999 308.89 90.69 309.25 87.64L305.12 90.61C305.94 91.34 307.18 93.39 307.14 93.52C308.21 95.54 308.82 98.38 306.72 99.94C305.11 101.14 302.96 101.08 300.98 100.49C303.64 102.47 308.16 103.94 313.07 97.13C313.07 97.13 310.77 97.1599 310.05 96.2299Z" fill="#DA91A7"/>
<path d="M326.32 105.15C329.86 108.39 339.12 126.17 340.92 129.47C343.09 133.45 339.95 138.37 336.46 136.71C333.49 135.29 319.69 115.19 318.68 112.56C316.85 107.82 321.89 101.1 326.32 105.15Z" fill="#FBBCBE"/>
<path d="M338.65 137.46C334.97 139.69 319.93 142.93 317.1 143.6C313.69 144.41 310.98 139.34 314.4 138.09C317.7 136.88 336.18 128.75 338.22 128.59C341.9 128.29 343.25 134.66 338.65 137.46Z" fill="#FBBCBE"/>
<path d="M334.22 112.89C330.76 107.17 325.38 102.11 323.4 100.45C318.68 96.4899 314.97 102.11 315.22 107.2C315.3 108.8 316.6 115.45 320.65 120.61C325.66 119.71 333.77 113.8 334.22 112.89Z" fill="url(#paint4_linear)"/>
<path d="M313.52 81.79C313.46 81.45 311.16 79.58 310.91 79.7C310.87 79.7 311.04 87.62 310.66 88.34C310.39 88.87 309.98 90.07 310.75 90.37C311.46 90.65 312.35 90.25 312.74 89.66C315.24 85.91 313.67 82.66 313.52 81.79Z" fill="#0C1540"/>
<path d="M298.54 74.5799V88.9599C298.54 92.1999 301.4 94.8199 304.93 94.8199C308.46 94.8199 311.32 92.1999 311.32 88.9599V88.6899C311.32 88.6899 314.6 89.3999 314.6 85.8099C314.6 82.2199 312.54 82.7199 312.54 82.7199V74.5699H298.54V74.5799Z" fill="#FBBCBE"/>
<path d="M312.53 82.7299V75.4399H307.56C307.56 75.4799 307.56 78.0599 307.56 78.0999V90.5199C307.56 92.6899 305.46 94.4499 303.28 94.3799C302.6 94.3599 301.98 94.1699 301.44 93.8699C302.44 94.4699 303.63 94.8299 304.92 94.8299C308.45 94.8299 311.31 92.2099 311.31 88.9699V88.6999C311.31 88.6999 314.59 89.4099 314.59 85.8199C314.6 82.2299 312.53 82.7299 312.53 82.7299Z" fill="#DA91A7"/>
<path d="M292.14 117.85C294.31 119.25 300.26 122.17 310.31 120.72C310.31 120.72 298.86 123.62 293.37 123.22C293.36 123.21 292.98 121.12 292.14 117.85Z" fill="url(#paint5_linear)"/>
<path d="M296.59 146.61H255.82V148.76H296.59V146.61Z" fill="#1D3599"/>
<path d="M296.59 148.76H315.36V147.55C315.36 147.03 314.94 146.61 314.42 146.61H296.59V148.76Z" fill="#120D80"/>
<path d="M256.97 146.61H297.58L292.23 121.61C292.07 120.88 291.46 120.36 290.76 120.36H254.19C252.74 120.36 251.66 121.79 251.98 123.3L256.97 146.61Z" fill="#1D3599"/>
<path d="M255.98 146.61H296.59L291.24 121.61C291.08 120.88 290.47 120.36 289.77 120.36H252.43C251.37 120.36 250.59 121.4 250.82 122.5L255.98 146.61Z" fill="#120D80"/>
<path opacity="0.11" d="M271.92 120.35L260.49 146.61H265.72L277.58 120.35H271.92Z" fill="#F0F5FF"/>
<path opacity="0.11" d="M280.47 120.35L269.03 146.61H271.07L282.93 120.35H280.47Z" fill="#F0F5FF"/>
<path d="M304.29 145.67C305.3 144.29 306.25 142.94 305.41 143.9C304.34 145.14 302.56 144.41 303.62 143.19C304.95 141.65 306.31 139.77 308.02 138.67C309.87 137.48 312.7 138.49 314.67 137.97C315.46 137.76 318.14 142.61 317.62 143.09C315.87 144.68 313.15 143.94 312.87 144.17C312.25 145.04 312.01 145.59 311.51 146.47C310.87 147.59 308.82 147.46 309.45 146.35C309.86 145.64 309.51 145.54 308.9 146.52C308.12 147.78 306.02 147.51 306.79 146.26C307.12 145.73 307.09 145.43 306.6 146.1C305.62 147.46 303.3 147.02 304.29 145.67Z" fill="#FBBCBE"/>
<path d="M267.22 105.56C265.23 104.98 260.23 105.85 258.39 104.69C256.69 103.62 256.74 102.56 255.45 101.14C254.74 100.36 254.84 99.4999 255.43 99.1899C255.34 98.8999 254.72 98.4799 254.76 97.9199C254.83 96.9899 255.95 96.9999 256.91 98.2399C257.38 98.8499 256.44 97.2999 256.13 96.8199C255.39 95.6899 257.55 95.5999 258.3 96.7399C258.66 97.2999 259.3 98.1199 259.37 98.0199C259.41 97.9599 259 97.1699 258.86 96.9299C258.26 95.9199 260.36 95.9499 260.97 96.9599C261.44 97.7499 263.02 99.4799 263.62 100.28C263.75 100.39 264.47 100.41 265.37 100.58C265.21 100.08 264.72 99.6999 264.31 99.2999C263.99 98.9899 263.84 98.5599 264.22 98.2499C264.63 97.9199 265.12 98.1299 265.53 98.3699C266.11 98.7099 266.52 99.0199 267.06 99.4499C267.31 99.6599 268.34 101.51 268.67 102.55C268.85 103.2 268.02 105.79 267.22 105.56Z" fill="#FBBCBE"/>
<path d="M310.18 78.7299C309.29 82.4999 310.08 85.99 310.08 85.99C310.97 85.23 312.83 85.41 312.83 85.41C312.83 85.41 318.75 79.2699 316.2 74.4199C316.2 74.4099 316.19 74.4099 316.19 74.3999C315.07 72.2999 313.66 70.98 312.16 70.16C307.68 67.72 302.47 69.8399 302.47 69.8399C295.19 68.3399 294.14 78.6 294.14 78.6C303.61 74.4 310.18 78.7299 310.18 78.7299Z" fill="#0C1540"/>
<path d="M307.89 103.35C315.51 106.22 320.21 103.35 320.21 103.35C323.51 85.19 316.55 74.94 316.19 74.42C316.19 74.41 316.18 74.41 316.18 74.4C313.71 78.7 310.07 85.99 310.07 85.99C311 89.58 307.89 103.35 307.89 103.35Z" fill="#0C1540"/>
<path d="M101.06 152.06H75.48V208.32H101.06V152.06Z" fill="#120D80"/>
<path d="M106.51 152.06H80.9299V208.32H106.51V152.06Z" fill="#1D3599"/>
<path d="M118.45 201.78H48.6599V208.32H118.45V201.78Z" fill="#120D80"/>
<path d="M133.33 201.78H59.26V208.32H133.33V201.78Z" fill="#1D3599"/>
<path d="M39.4599 189.55H141.28C142.94 189.55 144.29 188.2 144.29 186.54V117.28C144.29 115.62 142.94 114.27 141.28 114.27H39.4599C37.7899 114.27 36.45 115.62 36.45 117.28V186.54C36.45 188.2 37.7999 189.55 39.4599 189.55Z" fill="#1D3599"/>
<path d="M42.81 189.55H144.63C146.29 189.55 147.64 188.2 147.64 186.54V117.28C147.64 115.62 146.29 114.27 144.63 114.27H42.81C41.14 114.27 39.8 115.62 39.8 117.28V186.54C39.79 188.2 41.14 189.55 42.81 189.55Z" fill="#2647C8"/>
<path d="M47.34 186.2H140.1C141.62 186.2 142.85 184.97 142.85 183.45V120.36C142.85 118.84 141.62 117.61 140.1 117.61H47.34C45.82 117.61 44.59 118.84 44.59 120.36V183.45C44.59 184.97 45.82 186.2 47.34 186.2Z" fill="#120D80"/>
<path d="M47.75 186.59H140.51C142.03 186.59 143.26 185.36 143.26 183.84V120.75C143.26 119.23 142.03 118 140.51 118H47.75C46.23 118 45 119.23 45 120.75V183.84C45 185.36 46.23 186.59 47.75 186.59Z" fill="#120D80"/>
<path d="M61.2027 145.55V149.481H66.4984V152.372H61.2027V156.384H68.1171V159.39H57.2715V142.543H68.1171V145.55H61.2027Z" fill="#FFCA01"/>
<path d="M76.0083 150.464C76.5402 150.464 76.9911 150.398 77.3611 150.267C77.7389 150.128 78.0472 149.94 78.2861 149.701C78.5251 149.462 78.6985 149.184 78.8065 148.868C78.9144 148.544 78.9683 148.198 78.9683 147.828C78.9683 147.088 78.7255 146.509 78.2399 146.093C77.762 145.677 77.0181 145.469 76.0083 145.469H74.4358V150.464H76.0083ZM84.3102 159.39H80.7721C80.1169 159.39 79.6467 159.143 79.3615 158.65L76.5633 153.759C76.4323 153.551 76.2858 153.401 76.124 153.308C75.9621 153.208 75.7308 153.158 75.4302 153.158H74.4358V159.39H70.5277V142.543H76.0083C77.2263 142.543 78.263 142.671 79.1186 142.925C79.982 143.172 80.6834 143.519 81.223 143.966C81.7703 144.413 82.1673 144.941 82.414 145.55C82.6606 146.159 82.784 146.822 82.784 147.538C82.784 148.086 82.7107 148.602 82.5643 149.088C82.4178 149.573 82.202 150.024 81.9168 150.441C81.6316 150.849 81.277 151.215 80.853 151.539C80.4368 151.863 79.955 152.129 79.4077 152.337C79.6621 152.468 79.901 152.634 80.1246 152.834C80.3481 153.027 80.5485 153.258 80.7258 153.528L84.3102 159.39Z" fill="#FFCA01"/>
<path d="M91.2067 150.464C91.7386 150.464 92.1895 150.398 92.5595 150.267C92.9372 150.128 93.2456 149.94 93.4845 149.701C93.7235 149.462 93.8969 149.184 94.0048 148.868C94.1127 148.544 94.1667 148.198 94.1667 147.828C94.1667 147.088 93.9239 146.509 93.4383 146.093C92.9603 145.677 92.2165 145.469 91.2067 145.469H89.6342V150.464H91.2067ZM99.5086 159.39H95.9704C95.3152 159.39 94.845 159.143 94.5598 158.65L91.7617 153.759C91.6307 153.551 91.4842 153.401 91.3223 153.308C91.1604 153.208 90.9292 153.158 90.6286 153.158H89.6342V159.39H85.7261V142.543H91.2067C92.4246 142.543 93.4614 142.671 94.317 142.925C95.1803 143.172 95.8818 143.519 96.4214 143.966C96.9687 144.413 97.3657 144.941 97.6123 145.55C97.859 146.159 97.9823 146.822 97.9823 147.538C97.9823 148.086 97.9091 148.602 97.7626 149.088C97.6162 149.573 97.4003 150.024 97.1151 150.441C96.8299 150.849 96.4753 151.215 96.0514 151.539C95.6351 151.863 95.1534 152.129 94.6061 152.337C94.8604 152.468 95.0994 152.634 95.3229 152.834C95.5465 153.027 95.7469 153.258 95.9242 153.528L99.5086 159.39Z" fill="#FFCA01"/>
<path d="M117.165 150.961C117.165 152.179 116.953 153.312 116.529 154.36C116.113 155.409 115.523 156.322 114.76 157.101C113.997 157.871 113.076 158.477 111.997 158.916C110.925 159.355 109.734 159.575 108.424 159.575C107.114 159.575 105.919 159.355 104.84 158.916C103.76 158.477 102.835 157.871 102.065 157.101C101.301 156.322 100.708 155.409 100.284 154.36C99.8677 153.312 99.6596 152.179 99.6596 150.961C99.6596 149.743 99.8677 148.61 100.284 147.562C100.708 146.513 101.301 145.604 102.065 144.833C102.835 144.062 103.76 143.457 104.84 143.018C105.919 142.578 107.114 142.358 108.424 142.358C109.734 142.358 110.925 142.582 111.997 143.029C113.076 143.468 113.997 144.074 114.76 144.844C115.523 145.615 116.113 146.525 116.529 147.573C116.953 148.621 117.165 149.751 117.165 150.961ZM113.165 150.961C113.165 150.128 113.057 149.381 112.841 148.718C112.625 148.047 112.313 147.481 111.904 147.018C111.503 146.556 111.01 146.201 110.424 145.954C109.838 145.708 109.172 145.584 108.424 145.584C107.669 145.584 106.994 145.708 106.401 145.954C105.815 146.201 105.318 146.556 104.909 147.018C104.508 147.481 104.2 148.047 103.984 148.718C103.768 149.381 103.66 150.128 103.66 150.961C103.66 151.801 103.768 152.557 103.984 153.227C104.2 153.89 104.508 154.453 104.909 154.915C105.318 155.378 105.815 155.732 106.401 155.979C106.994 156.218 107.669 156.338 108.424 156.338C109.172 156.338 109.838 156.218 110.424 155.979C111.01 155.732 111.503 155.378 111.904 154.915C112.313 154.453 112.625 153.89 112.841 153.227C113.057 152.557 113.165 151.801 113.165 150.961Z" fill="#FFCA01"/>
<path d="M124.946 150.464C125.478 150.464 125.929 150.398 126.299 150.267C126.676 150.128 126.985 149.94 127.224 149.701C127.462 149.462 127.636 149.184 127.744 148.868C127.852 148.544 127.906 148.198 127.906 147.828C127.906 147.088 127.663 146.509 127.177 146.093C126.699 145.677 125.956 145.469 124.946 145.469H123.373V150.464H124.946ZM133.248 159.39H129.709C129.054 159.39 128.584 159.143 128.299 158.65L125.501 153.759C125.37 153.551 125.223 153.401 125.061 153.308C124.899 153.208 124.668 153.158 124.368 153.158H123.373V159.39H119.465V142.543H124.946C126.164 142.543 127.2 142.671 128.056 142.925C128.919 143.172 129.621 143.519 130.16 143.966C130.708 144.413 131.105 144.941 131.351 145.55C131.598 146.159 131.721 146.822 131.721 147.538C131.721 148.086 131.648 148.602 131.502 149.088C131.355 149.573 131.139 150.024 130.854 150.441C130.569 150.849 130.214 151.215 129.79 151.539C129.374 151.863 128.892 152.129 128.345 152.337C128.599 152.468 128.838 152.634 129.062 152.834C129.286 153.027 129.486 153.258 129.663 153.528L133.248 159.39Z" fill="#FFCA01"/>
<path d="M173.307 66.1937H170.109L169.322 70.5892H172.521L173.307 66.1937ZM181.038 62.8414L180.679 64.7912C180.588 65.2701 180.388 65.6235 180.08 65.8516C179.772 66.0796 179.282 66.1937 178.609 66.1937H177.19L176.403 70.5892H178.558C179.037 70.5892 179.373 70.7318 179.567 71.0168C179.772 71.3019 179.824 71.7865 179.721 72.4706L179.482 73.9415H175.924L174.659 80.8171H172.486C172.27 80.8171 172.065 80.7658 171.871 80.6632C171.688 80.5606 171.529 80.4237 171.392 80.2527C171.266 80.0703 171.175 79.865 171.118 79.637C171.073 79.4089 171.078 79.1638 171.135 78.9015L172.042 73.9415H168.86L167.937 79.141C167.823 79.7453 167.566 80.1786 167.167 80.4408C166.768 80.6917 166.318 80.8171 165.816 80.8171H163.729L164.978 73.9415H163.216C162.737 73.9415 162.395 73.8047 162.19 73.531C161.996 73.246 161.951 72.7614 162.053 72.0772L162.293 70.5892H165.457L166.244 66.1937H162.703L163.062 64.2439C163.154 63.765 163.353 63.4115 163.661 63.1835C163.98 62.9554 164.476 62.8414 165.149 62.8414H166.705L167.697 57.5564C167.789 57.0775 168.017 56.7012 168.382 56.4276C168.758 56.1425 169.191 56 169.681 56H171.836L170.571 62.8414H173.769L175.035 56H177.139C177.629 56 178.017 56.1539 178.302 56.4618C178.598 56.7583 178.706 57.1345 178.627 57.5906L177.652 62.8414H181.038Z" fill="white"/>
<defs>
<linearGradient id="paint0_linear" x1="179.691" y1="150.73" x2="205.642" y2="150.73" gradientUnits="userSpaceOnUse">
<stop offset="1.09e-06" stop-color="#FFD000"/>
<stop offset="1" stop-color="#FF7300"/>
</linearGradient>
<linearGradient id="paint1_linear" x1="196.556" y1="150.73" x2="222.505" y2="150.73" gradientUnits="userSpaceOnUse">
<stop offset="1.09e-06" stop-color="#FFD000"/>
<stop offset="1" stop-color="#FF7300"/>
</linearGradient>
<linearGradient id="paint2_linear" x1="319.765" y1="98.2354" x2="272.88" y2="119.444" gradientUnits="userSpaceOnUse">
<stop offset="1.09e-06" stop-color="#FFD000"/>
<stop offset="1" stop-color="#FF7300"/>
</linearGradient>
<linearGradient id="paint3_linear" x1="285.456" y1="121.339" x2="323.153" y2="121.339" gradientUnits="userSpaceOnUse">
<stop offset="1.09e-06" stop-color="#FFD000"/>
<stop offset="1" stop-color="#FF7300"/>
</linearGradient>
<linearGradient id="paint4_linear" x1="317.889" y1="85.7487" x2="330.25" y2="130.687" gradientUnits="userSpaceOnUse">
<stop offset="1.09e-06" stop-color="#FFD000"/>
<stop offset="1" stop-color="#FF7300"/>
</linearGradient>
<linearGradient id="paint5_linear" x1="278.085" y1="120.552" x2="310.151" y2="120.552" gradientUnits="userSpaceOnUse">
<stop offset="1.09e-06" stop-color="#FFD000"/>
<stop offset="1" stop-color="#FF7300"/>
</linearGradient>
</defs>
</svg>
