<svg width="24" height="24" viewBox="0 0 24 24" fill="none" xmlns="http://www.w3.org/2000/svg">
<path fill-rule="evenodd" clip-rule="evenodd" d="M19.0374 6.41361C19.0376 6.41361 19.0364 6.41607 19.0332 6.42098C19.0356 6.41606 19.0372 6.41361 19.0374 6.41361ZM18.861 6.6C18.6367 6.40701 18.2392 6.15857 17.6212 5.91137C16.2825 5.3759 14.296 5 12 5C9.70402 5 7.7175 5.3759 6.37882 5.91137C5.76081 6.15857 5.36329 6.40701 5.13903 6.6C5.36329 6.79299 5.76081 7.04143 6.37882 7.28863C7.7175 7.8241 9.70402 8.2 12 8.2C14.296 8.2 16.2825 7.8241 17.6212 7.28863C18.2392 7.04143 18.6367 6.79299 18.861 6.6ZM4.96261 6.41361C4.96279 6.41361 4.96439 6.41606 4.96682 6.42097C4.96363 6.41607 4.96242 6.41361 4.96261 6.41361ZM4.96261 6.78639C4.96242 6.78639 4.96363 6.78393 4.96682 6.77903C4.96439 6.78394 4.96279 6.78639 4.96261 6.78639ZM19.0332 6.77902C19.0364 6.78393 19.0376 6.78639 19.0374 6.78639C19.0372 6.78639 19.0356 6.78394 19.0332 6.77902ZM12 10.2C14.8273 10.2 17.35 9.67853 19 8.86293V10C19 10.0255 18.9898 10.1696 18.7079 10.4195C18.4272 10.6683 17.964 10.9381 17.3057 11.185C15.9966 11.6759 14.121 12 12 12C9.87903 12 8.0034 11.6759 6.69427 11.185C6.03602 10.9381 5.57279 10.6683 5.29209 10.4195C5.01022 10.1696 5 10.0255 5 10V8.86293C6.64996 9.67853 9.17273 10.2 12 10.2ZM18.008 13.0576C18.3574 12.9266 18.6909 12.7798 19 12.6162V13.6246C19 13.7187 18.9574 13.9043 18.6773 14.1744C18.3943 14.4473 17.9322 14.7391 17.2793 15.0053C15.9785 15.5357 14.1125 15.8867 12 15.8867C9.88755 15.8867 8.02154 15.5357 6.72073 15.0053C6.06782 14.7391 5.60574 14.4473 5.32273 14.1744C5.04256 13.9043 5 13.7187 5 13.6246V12.6162C5.3091 12.7798 5.64262 12.9266 5.99202 13.0576C7.57833 13.6525 9.70269 14 12 14C14.2973 14 16.4217 13.6525 18.008 13.0576ZM3 10V11V13.6246C3 13.7532 3.01029 13.8784 3.02974 14H3V17.6246C3 18.4313 3.40515 19.1038 3.93462 19.6143C4.46126 20.122 5.17075 20.5332 5.96556 20.8573C7.56018 21.5075 9.69417 21.8867 12 21.8867C14.3058 21.8867 16.4398 21.5075 18.0344 20.8573C18.8292 20.5332 19.5387 20.122 20.0654 19.6143C20.5948 19.1038 21 18.4313 21 17.6246V14H20.9703C20.9897 13.8784 21 13.7532 21 13.6246V11V10V7H20.9451C20.9814 6.86867 21 6.7352 21 6.6C21 4.61177 16.9706 3 12 3C7.02944 3 3 4.61177 3 6.6C3 6.7352 3.01863 6.86867 3.05493 7H3V10ZM19 16.3928C18.6989 16.564 18.3745 16.7186 18.0344 16.8572C16.4398 17.5075 14.3058 17.8867 12 17.8867C9.69417 17.8867 7.56018 17.5075 5.96556 16.8572C5.62555 16.7186 5.30115 16.564 5 16.3928V17.6246C5 17.7187 5.04256 17.9043 5.32273 18.1744C5.60574 18.4473 6.06782 18.7391 6.72073 19.0053C8.02154 19.5357 9.88755 19.8867 12 19.8867C14.1125 19.8867 15.9785 19.5357 17.2793 19.0053C17.9322 18.7391 18.3943 18.4473 18.6773 18.1744C18.9574 17.9043 19 17.7187 19 17.6246V16.3928Z" fill="white"/>
</svg>
