<svg width="24" height="24" viewBox="0 0 24 24" fill="none" xmlns="http://www.w3.org/2000/svg">
<path d="M19.2018 12.9358C19.4771 12.7156 19.6422 12.3853 19.6422 12C19.6422 11.6697 19.4771 11.3394 19.2018 11.0642L8.52294 0.385321C8.24771 0.165138 7.91743 0 7.58716 0C7.20183 0 6.87156 0.165138 6.65138 0.385321L5.44037 1.59633C5.16514 1.87156 5 2.20183 5 2.53211C5 2.91743 5.11009 3.24771 5.38532 3.46789L13.9174 12L5.38532 20.5321C5.11009 20.8073 5 21.1376 5 21.4679C5 21.8532 5.16514 22.1835 5.44037 22.4037L6.65138 23.6147C6.87156 23.8899 7.20183 24 7.58716 24C7.91743 24 8.24771 23.8899 8.52294 23.6147L19.2018 12.9358Z" fill="#495057"/>
</svg>
