<svg width="60" height="60" viewBox="0 0 60 60" fill="none" xmlns="http://www.w3.org/2000/svg">
<circle cx="30" cy="30" r="30" fill="#324E8B"/>
<path fill-rule="evenodd" clip-rule="evenodd" d="M30.3338 31.8861L23.2763 38.9436C23.209 39.0063 23.1418 39.0651 23.0647 39.1156C22.9123 39.2157 22.7396 39.2837 22.56 39.3147C22.4801 39.3285 22.4596 39.3278 22.3789 39.3333C22.3485 39.3333 22.3182 39.3333 22.2879 39.3333C22.2072 39.3278 22.1867 39.3285 22.1069 39.3147C21.9572 39.2889 21.8123 39.2374 21.6799 39.163C21.574 39.1034 21.4764 39.0294 21.3906 38.9436C21.1312 38.6842 20.9883 38.3217 21.0008 37.9552C21.005 37.8338 21.0258 37.7131 21.0625 37.5973C21.1084 37.4526 21.1792 37.316 21.271 37.195C21.3199 37.1305 21.3354 37.117 21.3906 37.0579L28.448 30.0004L21.3906 22.9429C21.3354 22.8838 21.3199 22.8703 21.271 22.8057C21.1792 22.6847 21.1084 22.5481 21.0625 22.4034C21.0074 22.2297 20.9884 22.045 21.007 21.8636C21.0542 21.4048 21.3442 20.9939 21.7607 20.7959C21.8704 20.7437 21.9871 20.7067 22.1069 20.686C22.2565 20.6603 22.4103 20.6603 22.56 20.686C22.7696 20.7222 22.9696 20.809 23.139 20.9376C23.2036 20.9865 23.2171 21.002 23.2763 21.0572L30.3338 28.1146L37.3913 21.0572C37.4503 21.002 37.4639 20.9865 37.5284 20.9376C37.6494 20.8459 37.786 20.7751 37.9307 20.7291C38.1044 20.674 38.2892 20.655 38.4704 20.6737C38.6214 20.6891 38.7696 20.7307 38.9067 20.7959C39.0164 20.848 39.1189 20.9152 39.2104 20.995C39.558 21.2982 39.7264 21.772 39.6481 22.2266C39.612 22.4362 39.5251 22.6362 39.3965 22.8057C39.3476 22.8703 39.3321 22.8838 39.2769 22.9429L32.2194 30.0004L39.2769 37.0579C39.3321 37.117 39.3476 37.1305 39.3965 37.195C39.4883 37.316 39.5591 37.4526 39.605 37.5973C39.6418 37.7131 39.6626 37.8338 39.6667 37.9552C39.6792 38.3217 39.5362 38.6842 39.2769 38.9436C39.1911 39.0294 39.0935 39.1034 38.9876 39.163C38.8553 39.2374 38.7102 39.2889 38.5606 39.3147C38.4808 39.3285 38.4603 39.3278 38.3796 39.3333C38.3492 39.3333 38.3189 39.3333 38.2886 39.3333C38.2079 39.3278 38.1874 39.3285 38.1076 39.3147C37.9279 39.2837 37.7552 39.2157 37.6028 39.1156C37.5257 39.0651 37.4584 39.0063 37.3913 38.9436L30.3338 31.8861Z" fill="white"/>
</svg>
