<svg width="262" height="17" viewBox="0 0 262 17" fill="none" xmlns="http://www.w3.org/2000/svg">
<path d="M5.704 3.8V1.528H7.848V9.464H0.536003V1.528H2.68V3.8H5.704ZM5.704 5.672H2.68V7.592H5.704V5.672ZM10.264 10.136V1.352H12.456V10.136H10.264ZM10.264 12.808H1.224V10.904H12.456V16.28H10.264V12.808Z" fill="white"/>
<path d="M18.7674 15.064H14.8954V1.608H20.2554V3.512H17.0394V13.16H18.8794C19.5834 13.16 20.2714 13.128 20.8314 13V14.792C20.2714 15 19.5194 15.064 18.7674 15.064ZM24.8794 16.04V1.352H27.0074V16.04H24.8794ZM21.9034 15.864V8.936H19.2314V7.032H21.9034V1.432H24.0154V15.864H21.9034Z" fill="white"/>
<path d="M36.8388 8.312C36.8388 10.888 36.6308 12.856 35.7348 14.024C35.1268 14.824 34.1508 15.256 32.9988 15.256C31.8628 15.256 30.8868 14.824 30.2628 14.024C29.3668 12.856 29.1748 10.888 29.1748 8.312C29.1748 5.752 29.3668 3.784 30.2628 2.616C30.8868 1.816 31.8628 1.368 32.9988 1.368C34.1508 1.368 35.1268 1.816 35.7348 2.616C36.6308 3.784 36.8388 5.752 36.8388 8.312ZM31.3348 8.312C31.3348 10.488 31.4468 12.104 31.9268 12.824C32.1668 13.176 32.5508 13.368 32.9988 13.368C33.4468 13.368 33.8468 13.176 34.0868 12.824C34.5668 12.104 34.6628 10.488 34.6628 8.312C34.6628 6.152 34.5668 4.536 34.0868 3.816C33.8468 3.464 33.4468 3.272 32.9988 3.272C32.5508 3.272 32.1668 3.464 31.9268 3.816C31.4468 4.536 31.3348 6.152 31.3348 8.312ZM41.1588 16.04H38.9668V1.352H41.1588V16.04Z" fill="white"/>
<path d="M50.2381 7.304V9.208H45.8701V13.16H49.5821C50.5421 13.16 51.3901 13.128 52.0461 12.952V14.76C51.3901 14.984 50.4781 15.064 49.4701 15.064H43.6941V1.608H50.9261V3.512H45.8701V7.304H50.2381ZM55.5181 16.04H53.3261V8.984H50.8301V7.064H53.3261V1.352H55.5181V16.04Z" fill="white"/>
<path d="M66.8126 4.824V3.512H61.7566V1.608H68.9886V4.568C68.9886 10.152 66.9726 13.912 61.6766 15.24V13.16C65.3246 12.104 66.8126 9.16 66.8126 4.824ZM73.5806 16.04H71.3886V1.352H73.5806V16.04Z" fill="white"/>
<path d="M81.028 4.12V1.528H83.172V9.976H75.86V1.528H78.004V4.12H81.028ZM81.028 5.992H78.004V8.12H81.028V5.992ZM87.572 5.192H89.604V7.096H87.572V11.656H85.38V1.352H87.572V5.192ZM78.836 14.2H87.828V16.104H76.644V11.08H78.836V14.2Z" fill="white"/>
<path d="M99.1065 1.848V0.839996H101.33V1.848H106.354V3.528H94.1305V1.848H99.1065ZM94.5625 6.184C94.5625 5.544 94.8825 5.08 95.5065 4.744C96.4345 4.216 98.0665 3.976 100.243 3.976C102.419 3.976 104.051 4.216 104.979 4.744C105.603 5.08 105.923 5.544 105.923 6.184C105.923 6.808 105.603 7.272 104.979 7.624C104.211 8.056 102.947 8.296 101.299 8.376V8.984H106.851V10.76H93.6345V8.984H99.1225V8.376C97.5065 8.296 96.2745 8.056 95.5065 7.624C94.8825 7.272 94.5625 6.808 94.5625 6.184ZM96.7545 6.184C96.7545 6.312 96.8345 6.44 97.0265 6.52C97.4905 6.744 98.5145 6.808 100.243 6.808C101.97 6.808 102.995 6.744 103.459 6.52C103.651 6.44 103.73 6.312 103.73 6.184C103.73 6.04 103.651 5.928 103.459 5.832C102.995 5.608 101.97 5.544 100.243 5.544C98.5145 5.544 97.4905 5.608 97.0265 5.832C96.8345 5.928 96.7545 6.04 96.7545 6.184ZM94.5625 16.2V11.496H105.923V16.2H94.5625ZM103.73 13.272H96.7545V14.424H103.73V13.272Z" fill="white"/>
<path d="M108.106 13.24H109.114V3.432H108.282V1.608H114.858V3.432H114.154V10.152C114.154 11.288 114.106 12.312 113.93 13.224C114.41 13.208 114.858 13.16 115.258 13.064V14.792C114.682 15 113.93 15.064 113.178 15.064H108.106V13.24ZM111.146 13.24H111.962C112.106 12.344 112.122 11.352 112.122 10.232V3.432H111.146V13.24ZM114.458 6.92H115.626V1.432H117.69V15.864H115.626V8.84H114.458V6.92ZM118.49 16.04V1.352H120.57V16.04H118.49Z" fill="white"/>
<path d="M130.401 8.312C130.401 10.888 130.193 12.856 129.297 14.024C128.689 14.824 127.713 15.256 126.561 15.256C125.425 15.256 124.449 14.824 123.825 14.024C122.929 12.856 122.737 10.888 122.737 8.312C122.737 5.752 122.929 3.784 123.825 2.616C124.449 1.816 125.425 1.368 126.561 1.368C127.713 1.368 128.689 1.816 129.297 2.616C130.193 3.784 130.401 5.752 130.401 8.312ZM124.897 8.312C124.897 10.488 125.009 12.104 125.489 12.824C125.729 13.176 126.113 13.368 126.561 13.368C127.009 13.368 127.409 13.176 127.649 12.824C128.129 12.104 128.225 10.488 128.225 8.312C128.225 6.152 128.129 4.536 127.649 3.816C127.409 3.464 127.009 3.272 126.561 3.272C126.113 3.272 125.729 3.464 125.489 3.816C125.009 4.536 124.897 6.152 124.897 8.312ZM134.721 16.04H132.529V1.352H134.721V16.04Z" fill="white"/>
<path d="M145.129 1.608V3.512H142.185V6.808C142.185 10.936 143.593 12.28 145.257 13.048V15.064C143.497 14.552 141.897 13.32 141.097 11.944C140.297 13.32 138.697 14.552 136.937 15.064V13.048C138.601 12.28 139.993 10.936 139.993 6.808V3.512H137.097V1.608H145.129ZM149.081 16.04H146.889V1.352H149.081V16.04Z" fill="white"/>
<path d="M162.823 8.312C162.823 10.888 162.615 12.856 161.719 14.024C161.111 14.824 160.135 15.256 158.983 15.256C157.847 15.256 156.871 14.824 156.247 14.024C155.351 12.856 155.159 10.888 155.159 8.312C155.159 5.752 155.351 3.784 156.247 2.616C156.871 1.816 157.847 1.368 158.983 1.368C160.135 1.368 161.111 1.816 161.719 2.616C162.615 3.784 162.823 5.752 162.823 8.312ZM157.319 8.312C157.319 10.488 157.431 12.104 157.911 12.824C158.151 13.176 158.535 13.368 158.983 13.368C159.431 13.368 159.831 13.176 160.071 12.824C160.551 12.104 160.647 10.488 160.647 8.312C160.647 6.152 160.551 4.536 160.071 3.816C159.831 3.464 159.431 3.272 158.983 3.272C158.535 3.272 158.151 3.464 157.911 3.816C157.431 4.536 157.319 6.152 157.319 8.312ZM167.143 16.04H164.951V1.352H167.143V16.04Z" fill="white"/>
<path d="M175.727 5.736C174.655 7.24 172.367 8.424 169.439 8.792V6.888C172.703 6.296 174.623 4.712 174.623 1.928V1.432H176.815V1.928C176.815 4.712 178.751 6.296 182.015 6.888V8.792C179.087 8.424 176.799 7.24 175.727 5.736ZM169.215 10.456H182.271V12.376H179.583V16.2H177.423V12.376H174.111V16.2H171.967V12.376H169.215V10.456Z" fill="white"/>
<path d="M197.293 3.048V1.528H199.485V8.024H188.125V1.528H190.317V3.048H197.293ZM197.293 4.872H190.317V6.2H197.293V4.872ZM187.197 9.016H200.413V10.888H195.053V13.144H192.877V10.888H187.197V9.016ZM190.317 14.184H199.741V16.104H188.125V11.928H190.317V14.184Z" fill="white"/>
<path d="M206.756 3.32C206.756 5.912 207.956 7.064 209.828 7.624V9.544C208.068 9.24 206.516 8.392 205.684 7.272C204.884 8.44 203.332 9.368 201.508 9.72V7.784C203.444 7.208 204.564 5.8 204.564 3.32V1.432H206.756V3.32ZM211.748 9.88V5.64H208.788V3.768H211.748V1.352H213.94V9.88H211.748ZM211.748 12.456H202.708V10.568H213.94V16.28H211.748V12.456Z" fill="white"/>
<path d="M223.811 11.944C223.059 13.384 221.331 14.552 219.571 15.064V13.048C221.267 12.28 222.723 10.936 222.723 6.808V1.528H224.915V6.808C224.915 10.936 226.371 12.28 228.051 13.048V15.064C226.291 14.552 224.579 13.368 223.811 11.944ZM231.987 16.04H229.795V8.392H226.579V6.488H229.795V1.352H231.987V16.04Z" fill="white"/>
<path d="M239.578 6.6V1.608H241.754V15.064H234.522V1.608H236.698V6.6H239.578ZM239.578 8.504H236.698V13.16H239.578V8.504ZM246.346 16.04H244.154V1.352H246.346V16.04Z" fill="white"/>
<path d="M254.93 6.84C253.874 8.376 251.746 9.88 248.642 10.424V8.504C252.002 7.72 253.826 5.736 253.826 2.536V1.528H256.018V2.536C256.018 5.736 257.858 7.72 261.218 8.504V10.424C258.114 9.88 255.986 8.376 254.93 6.84ZM248.418 13.496H261.474V15.4H248.418V13.496Z" fill="white"/>
</svg>
