<svg width="518" height="30" viewBox="0 0 518 30" fill="none" xmlns="http://www.w3.org/2000/svg">
<path d="M191.38 7V4.16H194.06V14.08H184.92V4.16H187.6V7H191.38ZM191.38 9.34H187.6V11.74H191.38V9.34ZM197.08 14.92V3.94H199.82V14.92H197.08ZM197.08 18.26H185.78V15.88H199.82V22.6H197.08V18.26ZM207.959 21.08H203.119V4.26H209.819V6.64H205.799V18.7H208.099C208.979 18.7 209.839 18.66 210.539 18.5V20.74C209.839 21 208.899 21.08 207.959 21.08ZM215.599 22.3V3.94H218.259V22.3H215.599ZM211.879 22.08V13.42H208.539V11.04H211.879V4.04H214.519V22.08H211.879ZM230.798 12.64C230.798 15.86 230.538 18.32 229.418 19.78C228.658 20.78 227.438 21.32 225.998 21.32C224.578 21.32 223.358 20.78 222.578 19.78C221.458 18.32 221.218 15.86 221.218 12.64C221.218 9.44 221.458 6.98 222.578 5.52C223.358 4.52 224.578 3.96 225.998 3.96C227.438 3.96 228.658 4.52 229.418 5.52C230.538 6.98 230.798 9.44 230.798 12.64ZM223.918 12.64C223.918 15.36 224.058 17.38 224.658 18.28C224.958 18.72 225.438 18.96 225.998 18.96C226.558 18.96 227.058 18.72 227.358 18.28C227.958 17.38 228.078 15.36 228.078 12.64C228.078 9.94 227.958 7.92 227.358 7.02C227.058 6.58 226.558 6.34 225.998 6.34C225.438 6.34 224.958 6.58 224.658 7.02C224.058 7.92 223.918 9.94 223.918 12.64ZM236.198 22.3H233.458V3.94H236.198V22.3ZM247.798 11.38V13.76H242.338V18.7H246.978C248.178 18.7 249.238 18.66 250.058 18.44V20.7C249.238 20.98 248.098 21.08 246.838 21.08H239.618V4.26H248.658V6.64H242.338V11.38H247.798ZM254.398 22.3H251.658V13.48H248.538V11.08H251.658V3.94H254.398V22.3ZM269.016 8.28V6.64H262.696V4.26H271.736V7.96C271.736 14.94 269.216 19.64 262.596 21.3V18.7C267.156 17.38 269.016 13.7 269.016 8.28ZM277.476 22.3H274.736V3.94H277.476V22.3ZM287.035 7.4V4.16H289.715V14.72H280.575V4.16H283.255V7.4H287.035ZM287.035 9.74H283.255V12.4H287.035V9.74ZM295.215 8.74H297.755V11.12H295.215V16.82H292.475V3.94H295.215V8.74ZM284.295 20H295.535V22.38H281.555V16.1H284.295V20Z" fill="#5681E9"/>
<path d="M310.133 4.56V3.3H312.913V4.56H319.193V6.66H303.913V4.56H310.133ZM304.453 9.98C304.453 9.18 304.853 8.6 305.633 8.18C306.793 7.52 308.833 7.22 311.553 7.22C314.273 7.22 316.313 7.52 317.473 8.18C318.253 8.6 318.653 9.18 318.653 9.98C318.653 10.76 318.253 11.34 317.473 11.78C316.513 12.32 314.933 12.62 312.873 12.72V13.48H319.813V15.7H303.293V13.48H310.153V12.72C308.133 12.62 306.593 12.32 305.633 11.78C304.853 11.34 304.453 10.76 304.453 9.98ZM307.193 9.98C307.193 10.14 307.293 10.3 307.533 10.4C308.113 10.68 309.393 10.76 311.553 10.76C313.713 10.76 314.993 10.68 315.573 10.4C315.813 10.3 315.913 10.14 315.913 9.98C315.913 9.8 315.813 9.66 315.573 9.54C314.993 9.26 313.713 9.18 311.553 9.18C309.393 9.18 308.113 9.26 307.533 9.54C307.293 9.66 307.193 9.8 307.193 9.98ZM304.453 22.5V16.62H318.653V22.5H304.453ZM315.913 18.84H307.193V20.28H315.913V18.84ZM321.632 18.8H322.892V6.54H321.852V4.26H330.072V6.54H329.192V14.94C329.192 16.36 329.132 17.64 328.912 18.78C329.512 18.76 330.072 18.7 330.572 18.58V20.74C329.852 21 328.912 21.08 327.972 21.08H321.632V18.8ZM325.432 18.8H326.452C326.632 17.68 326.652 16.44 326.652 15.04V6.54H325.432V18.8ZM329.572 10.9H331.032V4.04H333.612V22.08H331.032V13.3H329.572V10.9ZM334.612 22.3V3.94H337.212V22.3H334.612ZM349.752 12.64C349.752 15.86 349.492 18.32 348.372 19.78C347.612 20.78 346.392 21.32 344.952 21.32C343.532 21.32 342.312 20.78 341.532 19.78C340.412 18.32 340.172 15.86 340.172 12.64C340.172 9.44 340.412 6.98 341.532 5.52C342.312 4.52 343.532 3.96 344.952 3.96C346.392 3.96 347.612 4.52 348.372 5.52C349.492 6.98 349.752 9.44 349.752 12.64ZM342.872 12.64C342.872 15.36 343.012 17.38 343.612 18.28C343.912 18.72 344.392 18.96 344.952 18.96C345.512 18.96 346.012 18.72 346.312 18.28C346.912 17.38 347.032 15.36 347.032 12.64C347.032 9.94 346.912 7.92 346.312 7.02C346.012 6.58 345.512 6.34 344.952 6.34C344.392 6.34 343.912 6.58 343.612 7.02C343.012 7.92 342.872 9.94 342.872 12.64ZM355.152 22.3H352.412V3.94H355.152V22.3ZM368.411 4.26V6.64H364.731V10.76C364.731 15.92 366.491 17.6 368.571 18.56V21.08C366.371 20.44 364.371 18.9 363.371 17.18C362.371 18.9 360.371 20.44 358.171 21.08V18.56C360.251 17.6 361.991 15.92 361.991 10.76V6.64H358.371V4.26H368.411ZM373.351 22.3H370.611V3.94H373.351V22.3ZM391.029 12.64C391.029 15.86 390.769 18.32 389.649 19.78C388.889 20.78 387.669 21.32 386.229 21.32C384.809 21.32 383.589 20.78 382.809 19.78C381.689 18.32 381.449 15.86 381.449 12.64C381.449 9.44 381.689 6.98 382.809 5.52C383.589 4.52 384.809 3.96 386.229 3.96C387.669 3.96 388.889 4.52 389.649 5.52C390.769 6.98 391.029 9.44 391.029 12.64ZM384.149 12.64C384.149 15.36 384.289 17.38 384.889 18.28C385.189 18.72 385.669 18.96 386.229 18.96C386.789 18.96 387.289 18.72 387.589 18.28C388.189 17.38 388.309 15.36 388.309 12.64C388.309 9.94 388.189 7.92 387.589 7.02C387.289 6.58 386.789 6.34 386.229 6.34C385.669 6.34 385.189 6.58 384.889 7.02C384.289 7.92 384.149 9.94 384.149 12.64ZM396.429 22.3H393.689V3.94H396.429V22.3ZM407.408 9.42C406.068 11.3 403.208 12.78 399.548 13.24V10.86C403.628 10.12 406.028 8.14 406.028 4.66V4.04H408.768V4.66C408.768 8.14 411.188 10.12 415.268 10.86V13.24C411.608 12.78 408.748 11.3 407.408 9.42ZM399.268 15.32H415.588V17.72H412.228V22.5H409.528V17.72H405.388V22.5H402.708V17.72H399.268V15.32ZM434.866 6.06V4.16H437.606V12.28H423.406V4.16H426.146V6.06H434.866ZM434.866 8.34H426.146V10H434.866V8.34ZM422.246 13.52H438.766V15.86H432.066V18.68H429.346V15.86H422.246V13.52ZM426.146 19.98H437.926V22.38H423.406V17.16H426.146V19.98ZM446.945 6.4C446.945 9.64 448.445 11.08 450.785 11.78V14.18C448.585 13.8 446.645 12.74 445.605 11.34C444.605 12.8 442.665 13.96 440.385 14.4V11.98C442.805 11.26 444.205 9.5 444.205 6.4V4.04H446.945V6.4ZM453.185 14.6V9.3H449.485V6.96H453.185V3.94H455.925V14.6H453.185ZM453.185 17.82H441.885V15.46H455.925V22.6H453.185V17.82ZM468.764 17.18C467.824 18.98 465.664 20.44 463.464 21.08V18.56C465.584 17.6 467.404 15.92 467.404 10.76V4.16H470.144V10.76C470.144 15.92 471.964 17.6 474.064 18.56V21.08C471.864 20.44 469.724 18.96 468.764 17.18ZM478.984 22.3H476.244V12.74H472.224V10.36H476.244V3.94H478.984V22.3ZM488.723 10.5V4.26H491.443V21.08H482.403V4.26H485.123V10.5H488.723ZM488.723 12.88H485.123V18.7H488.723V12.88ZM497.183 22.3H494.443V3.94H497.183V22.3ZM508.162 10.8C506.842 12.72 504.182 14.6 500.302 15.28V12.88C504.502 11.9 506.782 9.42 506.782 5.42V4.16H509.522V5.42C509.522 9.42 511.822 11.9 516.022 12.88V15.28C512.142 14.6 509.482 12.72 508.162 10.8ZM500.022 19.12H516.342V21.5H500.022V19.12Z" fill="#576877"/>
<path d="M45.6978 19.2319H39.3813C38.9388 19.2319 38.6169 19.1559 38.4068 18.9905C38.1386 18.7938 38 18.4496 38 17.9623V6.40662H45.443V8.43613H40.1726V17.2068H45.6934V19.2319H45.6978ZM47.106 6.40662H49.0863V11.7128H50.4095V6.40662H52.4569V22.9646H50.4095V13.7021H49.0863V22.9556H47.106V6.40662Z" fill="#63625C"/>
<path d="M66.194 8.43613H62.6223C62.6357 9.79062 62.886 10.8322 63.3778 11.5653C63.9544 12.4147 64.9111 12.9243 66.2477 13.0942V15.3159C65.5369 15.3159 64.7412 15.1058 63.8561 14.6901C62.7519 14.1536 61.9652 13.4607 61.5002 12.6024C60.9951 13.4607 60.1905 14.1536 59.0908 14.6722C58.2191 15.0879 57.4278 15.3025 56.717 15.3204V13.0986C58.0671 12.9288 59.0237 12.4191 59.587 11.5698C60.0519 10.8635 60.2977 9.82191 60.3246 8.4406H56.8288V6.41109H66.194V8.43613V8.43613ZM69.1221 9.54029V6.40662H71.2633V17.5957H69.1221V11.5653H66.5651V9.54029H69.1221V9.54029ZM58.2191 17.2605H60.3603V20.9395H71.4198V22.969H59.502C59.0729 22.969 58.7555 22.8528 58.5499 22.6248C58.3263 22.3968 58.2191 22.0169 58.2191 21.4804V17.2605Z" fill="#63625C"/>
<path d="M87.9599 15.3159H90.1012V10.7204H92.2514V8.6954H90.1012V6.40662H87.9599V15.3159ZM86.7977 13.9927H75.1168V11.9989H77.6917V9.63863H79.833V11.9989H82.761V8.39589H75.8634V6.40662H84.9023V12.0034H86.7977V13.9927Z" fill="#63625C"/>
<path d="M106.802 7.40349V6.40662H108.943V15.3159H106.802V12.6114H104.12V10.6221H106.802V9.39277H104.12V7.40349H106.802ZM108.943 22.9824H106.802V18.1992H95.8723V16.1787H108.943V22.9824Z" fill="#63625C"/>
<path d="M119.212 6.40657C119.212 10.0946 119.556 11.5966 120.244 13.3042C120.857 14.8286 121.818 15.7003 123.132 15.9327V18.2796C122.001 18.1366 121.027 17.7075 120.191 16.9877C119.279 16.1831 118.572 15.061 118.072 13.6261C117.553 15.0208 116.798 16.1384 115.805 16.9877C114.947 17.7075 114.008 18.1366 112.989 18.2796V15.9506C114.299 15.6914 115.278 14.8107 115.913 13.2997C116.623 11.5921 116.981 10.0901 116.981 6.4021H119.212V6.40657ZM125.636 6.40657H127.777V22.9645H125.636V6.40657Z" fill="#63625C"/>
<path d="M144.33 6.4245C144.33 10.1125 144.674 11.61 145.363 13.3221C145.975 14.8465 146.936 15.7182 148.251 15.9462V18.2931C147.133 18.1501 146.163 17.7209 145.345 17.0012C144.473 16.2412 143.758 15.1192 143.19 13.644C142.623 15.0745 141.854 16.1965 140.884 17.0012C140.039 17.7209 139.113 18.1501 138.108 18.2931V15.9641C139.422 15.7093 140.392 14.8242 141.031 13.3177C141.746 11.6056 142.1 10.108 142.1 6.42003H144.33V6.4245ZM150.75 10.7786V6.40662H152.891V22.9735H150.75V12.8036H147.29V10.7741H150.75V10.7786Z" fill="#63625C"/>
<path d="M172.533 14.0732V16.1027H165.475V22.969H163.333V16.0982H156.749V14.0687H172.533V14.0732ZM169.605 13.0405V8.39589H157.298V6.40662H171.746V13.0405H169.605Z" fill="#63625C"/>
<path d="M84.3435 15.316C81.2009 15.316 78.6573 17.1042 78.6573 19.308C78.6573 21.5119 81.2054 23.3 84.3435 23.3C87.4816 23.3 90.0297 21.5163 90.0297 19.308C90.0297 17.1042 87.4816 15.316 84.3435 15.316ZM84.3435 21.6013C82.5375 21.6013 81.0757 20.5731 81.0757 19.308C81.0757 18.0429 82.5375 17.0147 84.3435 17.0147C86.145 17.0147 87.6113 18.0429 87.6113 19.308C87.6113 20.5731 86.145 21.6013 84.3435 21.6013Z" fill="#63625C"/>
<path d="M98.55 6C95.9796 6 93.892 7.89987 93.892 10.2468C93.892 12.5937 95.9796 14.4935 98.55 14.4935C101.12 14.4935 103.208 12.5937 103.208 10.2468C103.208 7.90434 101.125 6 98.55 6ZM98.55 12.6294C97.1061 12.6294 95.9394 11.561 95.9394 10.2468C95.9394 8.93251 97.1106 7.86858 98.55 7.86858C99.9939 7.86858 101.165 8.93251 101.165 10.2468C101.165 11.5655 99.9939 12.6294 98.55 12.6294Z" fill="#63625C"/>
<path d="M15.0417 30.0001C6.74912 30.0001 0 23.2698 0 15.0014C0 13.5199 0.220489 12.0894 0.621134 10.7369C0.621134 10.8014 0.615757 10.8659 0.615757 10.9305C0.615757 16.5933 5.23528 21.1993 10.9169 21.1993C13.7241 21.1993 16.3458 20.0942 18.3033 18.0883L18.2899 18.0748C19.0535 17.2709 19.5241 16.1899 19.5241 14.9987C19.5241 12.7105 17.7897 10.8175 15.5606 10.5594C16.6953 10.0781 17.9188 9.82532 19.1853 9.82532C24.2834 9.82532 28.4324 13.9635 28.4324 19.0482C28.4324 21.1698 27.7171 23.1811 26.4049 24.8078C23.6461 27.9861 19.5778 30.0001 15.0417 30.0001Z" fill="#164194"/>
<path d="M29.4837 19.1879C29.4837 19.1395 29.4864 19.0965 29.4864 19.0481C29.4864 13.3852 24.8642 8.77917 19.1853 8.77917C16.4641 8.77917 13.8962 9.82515 11.9602 11.7289L11.9763 11.745C11.3955 12.2882 10.9599 12.9819 10.7341 13.7671C10.5701 13.0733 10.484 12.3554 10.484 11.6267C10.484 6.54201 14.633 2.40649 19.7311 2.40649C22.9121 2.40649 25.8295 4.00639 27.5397 6.68184L27.545 6.67915C29.1449 9.06151 30.0807 11.9225 30.0807 15.0013C30.0834 16.456 29.8709 17.8569 29.4837 19.1879Z" fill="#65B32E"/>
<path d="M21.6563 1.53267C21.0298 1.41705 20.3845 1.3552 19.7311 1.3552C14.0521 1.3552 9.42994 5.96128 9.42994 11.6268C9.42994 13.8344 10.121 15.9398 11.4332 17.7144L11.4654 17.6902C11.6026 17.8704 11.7558 18.0425 11.9199 18.2011C7.92416 17.1847 4.961 13.5628 4.961 9.26593C4.961 4.95832 7.95374 1.26647 12.0677 0.295778C13.0304 0.102178 14.0253 0 15.039 0C17.416 0.00268889 19.6585 0.553912 21.6563 1.53267Z" fill="#65B32E"/>
<path d="M3.72949 5.1332C4.43667 4.32922 5.2272 3.59515 6.09034 2.95789C4.72169 4.70836 3.90965 6.90518 3.90965 9.26872C3.90965 14.9315 8.53185 19.5403 14.2108 19.5403C14.2242 19.5403 14.235 19.5403 14.2458 19.5403C13.1971 19.9436 12.0785 20.1534 10.9196 20.1534C5.81876 20.1534 1.67249 16.0178 1.67249 10.9331C1.67249 8.78472 2.3958 6.76805 3.72949 5.1332Z" fill="#65B32E"/>
</svg>
