<svg width="20" height="20" viewBox="0 0 20 20" fill="none" xmlns="http://www.w3.org/2000/svg">
<path fill-rule="evenodd" clip-rule="evenodd" d="M11.481 1.20457C11.123 0.931811 10.627 0.931811 10.269 1.20457L2.78791 6.90441C2.29142 7.28269 2 7.87109 2 8.49527V18C2 19.212 3.06538 20 4.125 20H7.875H13.875H17.625C18.6846 20 19.75 19.212 19.75 18V8.49527C19.75 7.87109 19.4586 7.28269 18.9621 6.90441L11.481 1.20457ZM14.875 18H17.625C17.6886 18 17.7301 17.9795 17.75 17.9647V8.49527L10.875 3.25718L4 8.49527L3.39396 7.69984L4 8.49527V17.9647C4.01992 17.9795 4.06142 18 4.125 18H6.875V12C6.875 11.4477 7.32272 11 7.875 11H13.875C14.4273 11 14.875 11.4477 14.875 12V18ZM8.875 18H12.875V13H8.875V18Z" fill="#6A707E"/>
</svg>
