<svg width="44" height="44" viewBox="0 0 44 44" fill="none" xmlns="http://www.w3.org/2000/svg">
<g clip-path="url(#clip0)">
<path d="M28.69 0H9.98C7.78 0 6 1.77 6 3.94V38.45C6 40.63 7.78 42.4 9.98 42.4H34.12C36.32 42.4 38.1 40.63 38.1 38.45V9.32L28.69 0Z" fill="#F2F2F2"/>
<path d="M32.67 9.32H38.1L28.69 0V5.37C28.69 7.55 30.47 9.32 32.67 9.32Z" fill="#E6E6E6"/>
<path d="M34.49 19.46C34.49 19.73 34.27 19.95 33.99 19.95H16.23C15.95 19.95 15.73 19.73 15.73 19.46V17.66C15.73 17.39 15.95 17.17 16.23 17.17H33.99C34.27 17.17 34.49 17.39 34.49 17.66V19.46V19.46Z" fill="#E5E5E4"/>
<path d="M24.23 11.13C24.23 11.4 24.01 11.62 23.73 11.62H10.05C9.77999 11.62 9.54999 11.4 9.54999 11.13V8.63999C9.54999 8.36999 9.76999 8.14999 10.05 8.14999H23.73C24.01 8.14999 24.23 8.36999 24.23 8.63999V11.13Z" fill="#4C80F1"/>
<path d="M34.49 25.77C34.49 26.04 34.27 26.27 33.99 26.27H16.23C15.95 26.27 15.73 26.05 15.73 25.77V23.97C15.73 23.7 15.95 23.48 16.23 23.48H33.99C34.27 23.48 34.49 23.7 34.49 23.97V25.77V25.77Z" fill="#E5E5E4"/>
<path d="M34.49 32.09C34.49 32.36 34.27 32.59 33.99 32.59H16.23C15.95 32.59 15.73 32.37 15.73 32.09V30.29C15.73 30.02 15.95 29.8 16.23 29.8H33.99C34.27 29.8 34.49 30.02 34.49 30.29V32.09V32.09Z" fill="#E5E5E4"/>
<path d="M8.70001 16.94L10.73 19.73L15.11 15.99L10.78 18.56L8.70001 16.94Z" fill="#FF6D6B"/>
<path d="M8.84003 23.37L10.88 26.15L15.25 22.41L10.92 24.99L8.84003 23.37Z" fill="#FF6D6B"/>
<path d="M8.98001 29.79L11.02 32.58L15.4 28.84L11.07 31.41L8.98001 29.79Z" fill="#FF6D6B"/>
</g>
<defs>
<clipPath id="clip0">
<rect width="32.1" height="42.4" fill="white" transform="translate(6)"/>
</clipPath>
</defs>
</svg>
