<svg width="44" height="44" viewBox="0 0 44 44" fill="none" xmlns="http://www.w3.org/2000/svg">
<g clip-path="url(#clip0)">
<path d="M41.24 25.12C41.24 26.7 39.96 27.98 38.39 27.98H7.29C5.71 27.98 4.44 26.7 4.44 25.12V7.86C4.44 6.28 5.71 5 7.29 5H38.39C39.97 5 41.24 6.28 41.24 7.86V25.12Z" fill="#83BBFF"/>
<path d="M39.14 24.47C39.14 25.26 38.5 25.9 37.71 25.9H7.97001C7.18001 25.9 6.54001 25.26 6.54001 24.47V8.50999C6.54001 7.71999 7.18001 7.07999 7.97001 7.07999H37.71C38.5 7.07999 39.14 7.71999 39.14 8.50999V24.47Z" fill="#4C80F1"/>
<path d="M6.54001 24.47V8.50999C6.54001 7.71999 7.18001 7.07999 7.97001 7.07999H37.71C38.5 7.07999 39.14 7.71999 39.14 8.50999L6.54001 24.47Z" fill="#A4D0FC"/>
<path d="M41.68 38.44C41.68 39.27 41.01 39.94 40.18 39.94H5.5C4.67 39.94 4 39.27 4 38.44L5 30.07C5 29.24 5.67 28.57 6.5 28.57H39.18C40.01 28.57 40.68 29.24 40.68 30.07L41.68 38.44Z" fill="#4C80F1"/>
<path d="M38.84 35.31C38.84 35.86 38.39 36.31 37.84 36.31H8.01999C7.46999 36.31 7.01999 35.86 7.01999 35.31L7.82999 30.89C7.82999 30.34 8.27999 29.89 8.82999 29.89H37.24C37.79 29.89 38.24 30.34 38.24 30.89L38.84 35.31Z" fill="white"/>
<path d="M24.65 6.05999C24.65 6.27999 24.47 6.46999 24.24 6.46999H21.43C21.21 6.46999 21.02 6.28999 21.02 6.05999C21.02 5.83999 21.2 5.64999 21.43 5.64999H24.24C24.47 5.65999 24.65 5.83999 24.65 6.05999Z" fill="white"/>
<path d="M26.3 37.36C26.3 37.08 26.08 36.86 25.8 36.86H19.88C19.6 36.86 19.38 37.08 19.38 37.36V37.94C19.38 38.22 19.6 38.44 19.88 38.44H25.8C26.08 38.44 26.3 38.22 26.3 37.94V37.36Z" fill="white"/>
<path d="M31.58 21.68L30 20.07L30.62 19.79C30.82 19.7 30.84 19.59 30.84 19.53C30.84 19.47 30.81 19.36 30.61 19.27L27.4 17.91C27.36 17.89 27.32 17.88 27.28 17.87C27.14 17.84 27.07 17.9 27.05 17.93C27.01 17.98 26.97 18.08 27.05 18.26L28.35 21.49C28.42 21.66 28.51 21.71 28.57 21.72C28.62 21.73 28.76 21.73 28.87 21.5L29.16 20.89L30.74 22.5C30.93 22.7 31.25 22.7 31.45 22.51L31.58 22.39C31.77 22.2 31.78 21.88 31.58 21.68Z" fill="#616161"/>
</g>
<defs>
<clipPath id="clip0">
<rect width="37.68" height="34.94" fill="white" transform="translate(4 5)"/>
</clipPath>
</defs>
</svg>
