<svg width="44" height="44" viewBox="0 0 44 44" fill="none" xmlns="http://www.w3.org/2000/svg">
<g clip-path="url(#clip0)">
<path d="M38.1 39.68C38.1 41.06 36.98 42.18 35.6 42.18H8.5C7.12 42.18 6 41.06 6 39.68V2.5C6 1.12 7.12 0 8.5 0H35.6C36.98 0 38.1 1.12 38.1 2.5V39.68Z" fill="#4C80F1"/>
<path d="M35.17 34.46C35.17 35.29 34.5 35.96 33.67 35.96H10.42C9.59001 35.96 8.92001 35.29 8.92001 34.46V4.63C8.92001 3.8 9.59001 3.13 10.42 3.13H33.67C34.5 3.13 35.17 3.8 35.17 4.63V34.46Z" fill="white"/>
<path d="M24.08 38.96C24.08 40.08 23.17 40.99 22.05 40.99C20.93 40.99 20.02 40.08 20.02 38.96C20.02 37.84 20.93 36.93 22.05 36.93C23.17 36.93 24.08 37.84 24.08 38.96Z" fill="#757575"/>
<path d="M21.25 14.77C21.25 15.32 20.8 15.77 20.25 15.77H12.69C12.14 15.77 11.69 15.32 11.69 14.77V9.57999C11.69 9.02999 12.14 8.57999 12.69 8.57999H20.25C20.8 8.57999 21.25 9.02999 21.25 9.57999V14.77Z" fill="#E5E5E4"/>
<path d="M28.63 9.94999C28.63 10.23 28.41 10.45 28.13 10.45H23.32C23.04 10.45 22.82 10.23 22.82 9.94999V9.07999C22.82 8.79999 23.04 8.57999 23.32 8.57999H28.13C28.41 8.57999 28.63 8.79999 28.63 9.07999V9.94999Z" fill="#757575"/>
<path d="M30.63 13C30.63 13.28 30.41 13.5 30.13 13.5H23.32C23.04 13.5 22.82 13.28 22.82 13V12.12C22.82 11.84 23.04 11.62 23.32 11.62H30.13C30.41 11.62 30.63 11.84 30.63 12.12V13Z" fill="#E5E5E4"/>
<path d="M32.63 15.66C32.63 15.94 32.41 16.16 32.13 16.16H23.32C23.04 16.16 22.82 15.94 22.82 15.66V14.78C22.82 14.5 23.04 14.28 23.32 14.28H32.13C32.41 14.28 32.63 14.5 32.63 14.78V15.66V15.66Z" fill="#E5E5E4"/>
<path d="M31.38 19.36C31.38 19.64 31.16 19.86 30.88 19.86H12.06C11.78 19.86 11.56 19.64 11.56 19.36V18.48C11.56 18.2 11.78 17.98 12.06 17.98H30.87C31.15 17.98 31.37 18.2 31.37 18.48V19.36H31.38Z" fill="#E5E5E4"/>
<path d="M19.38 25.81C19.38 26.09 19.16 26.31 18.88 26.31H12.06C11.78 26.31 11.56 26.09 11.56 25.81V24.93C11.56 24.65 11.78 24.43 12.06 24.43H18.87C19.15 24.43 19.37 24.65 19.37 24.93V25.81H19.38Z" fill="#E5E5E4"/>
<path d="M17.38 22.88C17.38 23.16 17.16 23.38 16.88 23.38H12.06C11.78 23.38 11.56 23.16 11.56 22.88V22C11.56 21.72 11.78 21.5 12.06 21.5H16.87C17.15 21.5 17.37 21.72 17.37 22V22.88H17.38Z" fill="#E5E5E4"/>
<path d="M21.38 28.74C21.38 29.02 21.16 29.24 20.88 29.24H12.06C11.78 29.24 11.56 29.02 11.56 28.74V27.86C11.56 27.58 11.78 27.36 12.06 27.36H20.87C21.15 27.36 21.37 27.58 21.37 27.86V28.74H21.38Z" fill="#E5E5E4"/>
<path d="M21.38 31.67C21.38 31.95 21.16 32.17 20.88 32.17H12.06C11.78 32.17 11.56 31.95 11.56 31.67V30.79C11.56 30.51 11.78 30.29 12.06 30.29H20.87C21.15 30.29 21.37 30.51 21.37 30.79V31.67H21.38Z" fill="#E5E5E4"/>
<path d="M30.24 31.64C30.24 31.93 30.48 32.17 30.77 32.17H32.17C32.46 32.17 32.7 31.93 32.7 31.64V23.53C32.7 23.24 32.46 23 32.17 23H30.77C30.48 23 30.24 23.24 30.24 23.53V31.64Z" fill="#FF6D6B"/>
<path d="M26.49 31.64C26.49 31.93 26.73 32.17 27.02 32.17H28.42C28.71 32.17 28.95 31.93 28.95 31.64V25.53C28.95 25.24 28.71 25 28.42 25H27.02C26.73 25 26.49 25.24 26.49 25.53V31.64Z" fill="#FF7F7D"/>
<path d="M22.74 31.64C22.74 31.93 22.98 32.17 23.27 32.17H24.67C24.96 32.17 25.2 31.93 25.2 31.64V26.53C25.2 26.24 24.96 26 24.67 26H23.27C22.98 26 22.74 26.24 22.74 26.53V31.64Z" fill="#FF4C4A"/>
<path d="M29.48 21.08L27.21 21.18C26.95 21.19 26.9 21.4 27.11 21.64L27.41 22C25.53 24.34 23.3 24.58 23.28 24.58C23.2 24.59 23.13 24.66 23.14 24.74C23.14 24.82 23.21 24.89 23.29 24.9C23.65 24.93 24.01 24.93 24.36 24.92C26.93 24.81 28.37 23.69 28.63 23.47L28.88 23.77C29.08 24.01 29.29 24 29.35 23.75L29.85 21.53C29.9 21.26 29.74 21.07 29.48 21.08Z" fill="#616161"/>
</g>
<defs>
<clipPath id="clip0">
<rect width="32.1" height="42.18" fill="white" transform="translate(6)"/>
</clipPath>
</defs>
</svg>
