<svg width="602" height="423" viewBox="0 0 602 423" fill="none" xmlns="http://www.w3.org/2000/svg">
<mask id="mask0" mask-type="alpha" maskUnits="userSpaceOnUse" x="0" y="0" width="602" height="423">
<rect width="602" height="423" fill="#C4C4C4"/>
</mask>
<g mask="url(#mask0)">
<path fill-rule="evenodd" clip-rule="evenodd" d="M584.188 325.26C540.55 405.588 438.284 422.543 348.854 403.645C265.161 385.959 195.391 325.348 183.626 240.613C171.367 152.317 215.227 63.2545 296.516 26.6662C374.387 -8.38413 460.323 27.91 519.568 89.4041C582.092 154.302 627.212 246.065 584.188 325.26Z" fill="#4C80F1"/>
<g clip-path="url(#clip0)">
<path d="M96.1282 198.593V231.865H129.4V198.593H96.1282ZM124.425 226.89H101.103V203.568H124.412V226.89H124.425Z" fill="#D3DDF8"/>
<path d="M55.344 198.594V231.866H88.6158V198.594H55.344ZM83.6408 226.891H60.319V203.569H83.6282V226.891H83.6408Z" fill="#D3DDF8"/>
<path d="M96.1282 241.903V275.175H129.4V241.903H96.1282V241.903ZM124.425 270.187H101.103V246.878H124.412V270.187H124.425Z" fill="#D3DDF8"/>
<path d="M55.3438 241.903V275.175H88.6155V241.903H55.3438V241.903ZM83.6406 270.187H60.3187V246.878H83.6279V270.187H83.6406Z" fill="#D3DDF8"/>
<path d="M96.1282 285.201V318.473H129.4V285.201H96.1282ZM124.425 313.498H101.103V290.176H124.412V313.498H124.425Z" fill="#D3DDF8"/>
<path d="M55.3438 285.201V318.473H88.6155V285.201H55.3438ZM83.6406 313.498H60.3187V290.176H83.6279V313.498H83.6406Z" fill="#D3DDF8"/>
<path d="M516.59 282.562H330.243V314.205H516.59V282.562Z" fill="white"/>
<path d="M508.914 287.196H337.921V309.583H508.914V287.196Z" fill="#E2E9FB"/>
<path d="M516.591 319.205H330.244V350.848H516.591V319.205Z" fill="white"/>
<path d="M508.914 323.839H337.921V346.227H508.914V323.839Z" fill="#E2E9FB"/>
<path d="M398.82 285.491H394.766V311.629H398.82V285.491Z" fill="white"/>
<path d="M473.205 285.491H469.151V311.629H473.205V285.491Z" fill="white"/>
<path d="M398.82 322.98H394.766V349.118H398.82V322.98Z" fill="white"/>
<path d="M473.205 322.98H469.151V349.118H473.205V322.98Z" fill="white"/>
<path d="M369.121 298.712C369.121 296.35 367.202 294.431 364.841 294.431C362.48 294.431 360.56 296.35 360.56 298.712C360.56 301.073 362.48 302.992 364.841 302.992C367.202 302.992 369.121 301.073 369.121 298.712Z" fill="white"/>
<path d="M439.176 298.712C439.176 296.35 437.256 294.431 434.895 294.431C432.534 294.431 430.615 296.35 430.615 298.712C430.615 301.073 432.534 302.992 434.895 302.992C437.256 302.992 439.176 301.073 439.176 298.712Z" fill="white"/>
<path d="M369.121 335.052C369.121 332.691 367.202 330.772 364.841 330.772C362.48 330.772 360.56 332.691 360.56 335.052C360.56 337.413 362.48 339.333 364.841 339.333C367.202 339.345 369.121 337.426 369.121 335.052Z" fill="white"/>
<path d="M439.176 335.052C439.176 332.691 437.256 330.772 434.895 330.772C432.534 330.772 430.615 332.691 430.615 335.052C430.615 337.413 432.534 339.333 434.895 339.333C437.256 339.345 439.176 337.426 439.176 335.052Z" fill="white"/>
<path d="M516.098 314.154H330.244V319.294H516.098V314.154Z" fill="#D3DDF8"/>
<path d="M516.098 350.86H330.244V356H516.098V350.86Z" fill="#D3DDF8"/>
<path d="M122.274 222.822L300.351 222.822V108.966L122.274 108.966V222.822Z" fill="#D3DDF8"/>
<path d="M126.554 218.491L296.069 218.491V113.309L126.554 113.309V218.491Z" fill="white"/>
<path d="M253.194 183.012C253.421 183.012 253.61 182.823 253.61 182.595V122.138C253.61 121.911 253.421 121.721 253.194 121.721C252.966 121.721 252.777 121.911 252.777 122.138V182.608C252.777 182.835 252.966 183.012 253.194 183.012Z" fill="#E2E9FB"/>
<path d="M136.055 136.621H286.592C286.82 136.621 287.009 136.432 287.009 136.204C287.009 135.977 286.82 135.788 286.592 135.788H136.055C135.828 135.788 135.638 135.977 135.638 136.204C135.638 136.432 135.828 136.621 136.055 136.621Z" fill="#E2E9FB"/>
<path d="M136.055 152.152H286.592C286.819 152.152 287.009 151.963 287.009 151.735C287.009 151.508 286.819 151.319 286.592 151.319H136.055C135.827 151.319 135.638 151.508 135.638 151.735C135.638 151.963 135.827 152.152 136.055 152.152Z" fill="#E2E9FB"/>
<path d="M136.055 167.683H286.592C286.819 167.683 287.009 167.494 287.009 167.267C287.009 167.04 286.819 166.85 286.592 166.85H136.055C135.827 166.85 135.638 167.04 135.638 167.267C135.638 167.507 135.827 167.683 136.055 167.683Z" fill="#E2E9FB"/>
<path d="M136.055 183.227H286.592C286.819 183.227 287.009 183.038 287.009 182.81C287.009 182.583 286.819 182.394 286.592 182.394H136.055C135.827 182.394 135.638 182.583 135.638 182.81C135.638 183.038 135.827 183.227 136.055 183.227Z" fill="#E2E9FB"/>
<path d="M239.216 183.012C239.444 183.012 239.633 182.823 239.633 182.595V122.138C239.633 121.911 239.444 121.721 239.216 121.721C238.989 121.721 238.8 121.911 238.8 122.138V182.608C238.8 182.835 238.989 183.012 239.216 183.012Z" fill="#E2E9FB"/>
<path d="M281.454 183.012C281.681 183.012 281.87 182.823 281.87 182.595V122.138C281.87 121.911 281.681 121.721 281.454 121.721C281.226 121.721 281.037 121.911 281.037 122.138V182.608C281.037 182.835 281.214 183.012 281.454 183.012Z" fill="#E2E9FB"/>
<path d="M267.475 183.012C267.702 183.012 267.892 182.823 267.892 182.595V122.138C267.892 121.911 267.702 121.721 267.475 121.721C267.248 121.721 267.058 121.911 267.058 122.138V182.608C267.058 182.835 267.248 183.012 267.475 183.012Z" fill="#E2E9FB"/>
<path d="M225.238 183.012C225.465 183.012 225.655 182.823 225.655 182.595V122.138C225.655 121.911 225.465 121.721 225.238 121.721C225.011 121.721 224.821 121.911 224.821 122.138V182.608C224.834 182.835 225.011 183.012 225.238 183.012Z" fill="#E2E9FB"/>
<path d="M211.273 183.012C211.501 183.012 211.69 182.823 211.69 182.595V122.138C211.69 121.911 211.501 121.721 211.273 121.721C211.046 121.721 210.857 121.911 210.857 122.138V182.608C210.857 182.835 211.046 183.012 211.273 183.012Z" fill="#E2E9FB"/>
<path d="M197.295 183.012C197.522 183.012 197.712 182.823 197.712 182.595V122.138C197.712 121.911 197.522 121.721 197.295 121.721C197.068 121.721 196.878 121.911 196.878 122.138V182.608C196.878 182.835 197.068 183.012 197.295 183.012Z" fill="#E2E9FB"/>
<path d="M183.317 183.012C183.544 183.012 183.733 182.823 183.733 182.595V122.138C183.733 121.911 183.544 121.721 183.317 121.721C183.089 121.721 182.9 121.911 182.9 122.138V182.608C182.913 182.835 183.089 183.012 183.317 183.012Z" fill="#E2E9FB"/>
<path d="M169.352 183.012C169.579 183.012 169.768 182.823 169.768 182.595V122.138C169.768 121.911 169.579 121.721 169.352 121.721C169.124 121.721 168.935 121.911 168.935 122.138V182.608C168.935 182.835 169.124 183.012 169.352 183.012Z" fill="#E2E9FB"/>
<path d="M155.373 183.012C155.601 183.012 155.79 182.823 155.79 182.595V122.138C155.79 121.911 155.601 121.721 155.373 121.721C155.146 121.721 154.957 121.911 154.957 122.138V182.608C154.957 182.835 155.146 183.012 155.373 183.012Z" fill="#E2E9FB"/>
<path d="M141.396 183.012C141.623 183.012 141.812 182.823 141.812 182.595V122.138C141.812 121.911 141.623 121.721 141.396 121.721C141.168 121.721 140.979 121.911 140.979 122.138V182.608C140.992 182.835 141.168 183.012 141.396 183.012Z" fill="#E2E9FB"/>
<path d="M221.854 203.657H288.89C289.105 203.657 289.269 203.493 289.269 203.278C289.269 203.063 289.105 202.899 288.89 202.899H221.854C221.652 202.899 221.475 203.063 221.475 203.278C221.475 203.48 221.639 203.657 221.854 203.657Z" fill="#83A5F2"/>
<path d="M221.854 209.465H288.89C289.105 209.465 289.269 209.301 289.269 209.087C289.269 208.872 289.105 208.708 288.89 208.708H221.854C221.652 208.708 221.475 208.872 221.475 209.087C221.475 209.301 221.639 209.465 221.854 209.465Z" fill="#83A5F2"/>
<path d="M138.315 203.657H205.351C205.566 203.657 205.73 203.493 205.73 203.278C205.73 203.063 205.566 202.899 205.351 202.899H138.315C138.113 202.899 137.936 203.063 137.936 203.278C137.936 203.48 138.113 203.657 138.315 203.657Z" fill="#83A5F2"/>
<path d="M138.315 209.465H205.351C205.565 209.465 205.729 209.301 205.729 209.087C205.729 208.872 205.565 208.708 205.351 208.708H138.315C138.113 208.708 137.936 208.872 137.936 209.087C137.936 209.301 138.113 209.465 138.315 209.465Z" fill="#83A5F2"/>
<path d="M221.854 191.447H288.89C289.105 191.447 289.269 191.283 289.269 191.068C289.269 190.853 289.105 190.689 288.89 190.689H221.854C221.652 190.689 221.475 190.853 221.475 191.068C221.475 191.27 221.639 191.447 221.854 191.447Z" fill="#83A5F2"/>
<path d="M221.854 197.255H288.89C289.105 197.255 289.269 197.091 289.269 196.876C289.269 196.662 289.105 196.498 288.89 196.498H221.854C221.652 196.498 221.475 196.662 221.475 196.876C221.475 197.091 221.639 197.255 221.854 197.255Z" fill="#83A5F2"/>
<path d="M138.315 191.447H205.351C205.566 191.447 205.73 191.283 205.73 191.068C205.73 190.853 205.566 190.689 205.351 190.689H138.315C138.113 190.689 137.936 190.853 137.936 191.068C137.936 191.27 138.113 191.447 138.315 191.447Z" fill="#83A5F2"/>
<path d="M138.315 197.255H205.351C205.565 197.255 205.729 197.091 205.729 196.876C205.729 196.662 205.565 196.498 205.351 196.498H138.315C138.113 196.498 137.936 196.662 137.936 196.876C137.936 197.091 138.113 197.255 138.315 197.255Z" fill="#83A5F2"/>
<path d="M306.555 108.488H115.157V113.312H306.555V108.488Z" fill="#83A5F2"/>
<path d="M306.555 217.698H115.157V222.509H306.555V217.698Z" fill="#83A5F2"/>
<path d="M155.79 130.004H146.458V182.393H155.79V130.004Z" fill="#83A5F2"/>
<path d="M171.838 154.74H162.507V182.393H171.838V154.74Z" fill="#D3DDF8"/>
<path d="M187.901 167.746H178.569V182.393H187.901V167.746Z" fill="#83A5F2"/>
<path d="M203.949 145.51H194.618V182.406H203.949V145.51Z" fill="#D3DDF8"/>
<path d="M236.047 141.381H226.715V182.393H236.047V141.381Z" fill="#83A5F2"/>
<path d="M252.095 130.004H242.764V182.393H252.095V130.004Z" fill="#D3DDF8"/>
<path d="M268.144 159.134H258.813V182.406H268.144V159.134Z" fill="#83A5F2"/>
<path d="M284.205 170.764H274.874V182.393H284.205V170.764Z" fill="#D3DDF8"/>
<path d="M475.843 250.894C477.358 251.273 478.874 251.071 480.301 250.515C479.707 253.179 478.912 255.793 477.775 258.281C475.502 260.604 469.808 264.493 470.111 264.543C471.386 264.758 472.649 264.695 473.924 264.569C472.762 266.033 471.462 267.372 470.048 268.571C467.143 271.059 463.456 272.713 461.386 276.122C461.335 276.198 461.272 276.249 461.209 276.249C461.133 276.451 460.868 276.564 460.742 276.337C456.297 269.039 457.383 259.947 458.443 251.752C458.494 251.361 458.544 250.982 458.595 250.591C459.807 252.699 461.158 254.682 462.926 256.361C463.166 256.589 460.817 248.987 459.618 245.452C460.148 243.558 460.88 241.727 461.992 240.047C464.29 236.55 467.51 233.544 470.578 230.817C470.704 230.703 470.843 230.602 470.969 230.489C471.171 232.358 471.613 234.176 472.333 235.906C472.459 236.209 473.091 230.969 473.28 228.544C474.038 227.951 474.783 227.345 475.553 226.776C476.563 226.006 477.927 224.617 479.278 225.186C480.591 225.728 482.283 232.345 482.27 234.113C482.27 234.87 482.245 235.628 482.207 236.398C482.195 236.726 482.182 237.067 482.157 237.396C481.967 240.451 481.538 243.532 481.058 246.538C480.919 246.676 480.793 246.803 480.641 246.929C479.114 248.23 475.565 250.818 475.843 250.894Z" fill="#2647C8"/>
<path d="M458.885 286.261C459.819 271.235 463.014 255.856 472.56 243.797C473.052 243.178 473.999 243.949 473.507 244.567C463.885 256.714 460.867 272.296 460.021 287.436C459.049 305.025 460.4 322.753 463.62 340.064C463.759 340.835 462.547 340.948 462.408 340.178C459.112 322.45 457.761 304.28 458.885 286.261Z" fill="#0C1540"/>
<path d="M434.326 240.148C432.117 240.451 429.983 239.946 428.063 238.961C428.48 242.674 429.213 246.336 430.412 249.871C433.278 253.356 440.741 259.48 440.299 259.505C438.455 259.606 436.662 259.341 434.882 258.975C436.309 261.134 437.938 263.154 439.756 264.985C443.494 268.799 448.469 271.589 450.868 276.526C450.918 276.64 451.006 276.703 451.095 276.728C451.171 277.006 451.524 277.196 451.752 276.918C459.214 267.675 459.113 255.162 458.886 243.886C458.873 243.356 458.86 242.825 458.848 242.295C456.802 244.972 454.567 247.472 451.789 249.48C451.411 249.757 455.944 239.782 458.204 235.161C457.749 232.509 456.992 229.921 455.691 227.471C452.976 222.382 448.898 217.824 444.958 213.657C444.794 213.48 444.617 213.329 444.466 213.152C443.885 215.652 442.976 218.064 441.675 220.299C441.448 220.69 441.385 213.48 441.498 210.16C440.526 209.238 439.554 208.316 438.556 207.42C437.243 206.233 435.526 204.137 433.531 204.717C431.586 205.26 428.139 213.985 427.874 216.385C427.76 217.407 427.672 218.455 427.609 219.491C427.571 219.945 427.546 220.4 427.533 220.842C427.319 225.021 427.432 229.264 427.647 233.406C427.811 233.608 427.988 233.81 428.177 233.999C430.109 236.045 434.73 240.098 434.326 240.148Z" fill="#83A5F2"/>
<path d="M503.724 242.977C505.554 244.075 507.625 244.404 509.709 244.214C507.89 247.472 505.82 250.578 503.37 253.381C499.481 255.528 490.516 258.394 490.895 258.571C492.486 259.341 494.165 259.771 495.87 260.099C493.774 261.551 491.551 262.814 489.228 263.824C484.455 265.945 478.975 266.665 474.934 270.314C474.846 270.402 474.745 270.428 474.656 270.415C474.48 270.642 474.101 270.693 474 270.352C471.033 259.076 476.02 247.586 480.604 237.295C480.818 236.802 481.033 236.322 481.26 235.843C482.018 239.075 483.015 242.207 484.67 245.086C484.897 245.49 484.796 234.605 484.606 229.517C486.033 227.244 487.725 225.135 489.821 223.367C494.19 219.693 499.582 217.016 504.671 214.642C504.873 214.541 505.1 214.465 505.302 214.364C504.835 216.89 504.696 219.44 504.974 221.978C505.011 222.42 507.89 215.804 509.09 212.71C510.315 212.218 511.527 211.725 512.752 211.283C514.381 210.677 516.691 209.389 518.244 210.665C519.747 211.89 519.368 221.196 518.674 223.506C518.371 224.491 518.042 225.489 517.701 226.474C517.563 226.903 517.398 227.332 517.247 227.749C515.795 231.676 514.04 235.54 512.234 239.277C512.007 239.403 511.779 239.517 511.54 239.631C509.039 240.767 503.383 242.775 503.724 242.977Z" fill="#83A5F2"/>
<path d="M473.002 272.839C478.192 258.697 485.667 244.883 498.269 236.07C498.913 235.615 499.594 236.625 498.95 237.08C486.248 245.969 478.899 260.036 473.76 274.291C467.787 290.858 464.012 308.245 462.131 325.746C462.042 326.529 460.855 326.276 460.931 325.506C462.863 307.576 466.777 289.772 473.002 272.839Z" fill="#2F41A4"/>
<path d="M455.008 332.047C455.716 296.489 450.223 261.021 438.821 227.345C438.568 226.6 439.768 226.36 440.02 227.105C451.448 260.894 456.928 296.477 456.221 332.135C456.208 332.905 454.996 332.83 455.008 332.047Z" fill="#2F41A4"/>
<path d="M426.181 255.768C425.285 256.349 424.275 256.538 423.239 256.488C424.199 258.066 425.285 259.581 426.535 260.92C428.492 261.917 433 263.18 432.811 263.281C432.04 263.698 431.22 263.938 430.374 264.127C431.434 264.809 432.558 265.39 433.732 265.857C436.144 266.829 438.859 267.082 440.93 268.824C440.98 268.862 441.031 268.875 441.069 268.875C441.157 268.988 441.346 269.001 441.397 268.824C442.672 263.18 439.995 257.574 437.546 252.548C437.432 252.308 437.318 252.081 437.192 251.841C436.876 253.457 436.435 255.023 435.664 256.488C435.563 256.69 435.424 251.298 435.424 248.773C434.679 247.674 433.808 246.651 432.735 245.818C430.5 244.076 427.785 242.838 425.222 241.752C425.121 241.702 425.007 241.664 424.906 241.626C425.184 242.863 425.298 244.126 425.209 245.401C425.197 245.629 423.656 242.396 423.012 240.881C422.393 240.666 421.787 240.439 421.169 240.237C420.348 239.959 419.186 239.366 418.441 240.022C417.721 240.654 418.062 245.262 418.454 246.399C418.618 246.879 418.807 247.371 418.984 247.851C419.06 248.066 419.148 248.268 419.237 248.482C420.02 250.402 420.954 252.296 421.926 254.114C422.04 254.164 422.154 254.227 422.28 254.278C423.505 254.77 426.346 255.654 426.181 255.768Z" fill="#2647C8"/>
<path d="M444.73 274.796C440.879 265.351 435.487 256.172 426.749 250.502C426.308 250.212 425.866 250.906 426.308 251.197C435.121 256.917 440.437 266.261 444.25 275.794C448.695 286.868 451.662 298.547 453.354 310.354C453.43 310.884 454.238 310.682 454.162 310.164C452.433 298.08 449.352 286.123 444.73 274.796Z" fill="#0C1540"/>
<path d="M434.894 335.153C434.894 342.439 438.215 348.967 443.417 353.285C444.011 353.765 444.604 354.22 445.236 354.636H471.525C472.169 354.22 472.775 353.765 473.356 353.285C478.583 348.967 481.891 342.451 481.891 335.153C481.891 333.827 481.778 332.539 481.576 331.264C480.97 327.59 479.505 324.218 477.396 321.327C476.146 319.609 474.972 317.854 473.899 316.036C471.5 311.983 469.555 307.69 468.267 303.144L468.229 302.98L467.699 301.111L476.146 292.664H440.627L449.074 301.111L448.544 302.98L448.506 303.144C447.218 307.69 445.286 311.995 442.887 316.036C441.801 317.854 440.64 319.609 439.389 321.327C437.281 324.218 435.829 327.59 435.21 331.264C434.995 332.539 434.894 333.827 434.894 335.153Z" fill="url(#paint0_linear)"/>
<path opacity="0.08" d="M472.068 335.153C472.068 333.827 471.955 332.539 471.753 331.264C471.147 327.589 469.682 324.218 467.573 321.327C466.323 319.609 465.149 317.854 464.076 316.036C461.676 311.983 459.732 307.69 458.444 303.144L458.406 302.98L457.876 301.111L466.323 292.664H476.147L467.699 301.111L468.23 302.98L468.268 303.144C469.556 307.69 471.5 311.995 473.899 316.036C474.973 317.854 476.147 319.609 477.397 321.327C479.493 324.218 480.958 327.589 481.576 331.264C481.791 332.527 481.892 333.827 481.892 335.153C481.892 342.439 478.571 348.967 473.356 353.285C472.775 353.765 472.169 354.22 471.525 354.636H461.702C462.346 354.22 462.952 353.765 463.533 353.285C468.747 348.967 472.068 342.439 472.068 335.153Z" fill="black"/>
<path opacity="0.08" d="M448.544 302.98H468.216L467.699 301.111H449.074L448.544 302.98Z" fill="black"/>
<path opacity="0.64" d="M440.854 336.049C440.791 338.903 441.473 341.542 442.951 343.992C443.923 345.608 441.397 347.06 440.438 345.456C438.721 342.59 437.862 339.383 437.95 336.037C438.001 334.181 440.905 334.181 440.854 336.049Z" fill="white"/>
<path opacity="0.64" d="M448.355 310.948C449.088 309.773 449.454 308.523 449.441 307.147C449.441 305.278 452.345 305.266 452.345 307.147C452.345 309.016 451.853 310.834 450.856 312.425C449.883 314.003 447.37 312.539 448.355 310.948Z" fill="white"/>
<path d="M352.657 335.986L343.629 336.454C344.209 343.853 340.522 347.351 332.959 348.045C328.514 348.449 328.868 353.917 328.868 353.917H353.465C353.465 353.917 356.42 351.341 353.288 345.81C352.53 344.459 352.657 335.986 352.657 335.986Z" fill="#FBBCBE"/>
<path d="M332.971 348.032C328.526 348.437 328.88 353.904 328.88 353.904H353.477C353.477 353.904 356.432 351.328 353.3 345.798C351.634 346.745 347.391 347.742 342.126 344.409C340.105 346.075 336.052 347.755 332.971 348.032Z" fill="#0C1540"/>
<path d="M338.06 346.694C338.06 346.694 342.265 344.194 342.782 341.997C343.3 339.8 345.901 341.795 346.166 342.401C346.419 343.02 343.073 346.631 338.06 346.694Z" fill="#0C1540"/>
<path d="M344.512 215.526C341.115 229.997 342.138 257.069 341.595 280.681C341.153 299.47 341.469 327.628 340.964 339.345C340.964 339.345 351.129 341.378 355.434 339.295C355.434 339.295 362.821 290.606 364.652 283.926C366.483 277.246 372.43 234.53 367.657 216.297C362.871 198.051 345.838 209.844 344.512 215.526Z" fill="#83A5F2"/>
<path d="M367.203 234.631C367.203 234.631 361.47 261.93 359.766 280.744C359.084 288.282 355.409 339.295 355.409 339.295C355.409 339.295 360.473 305.72 362.203 296.654C364.627 283.926 371.61 250.515 371.61 250.515L367.203 234.631Z" fill="#2647C8"/>
<path d="M382.897 335.986L391.925 336.454C391.344 343.853 395.032 347.351 402.595 348.045C407.04 348.449 406.686 353.917 406.686 353.917H382.089C382.089 353.917 379.122 351.341 382.266 345.81C383.036 344.459 382.897 335.986 382.897 335.986Z" fill="#FBBCBE"/>
<path d="M402.595 348.032C407.04 348.437 406.686 353.904 406.686 353.904H382.089C382.089 353.904 379.122 351.328 382.266 345.798C383.933 346.745 388.175 347.742 393.428 344.409C395.461 346.075 399.514 347.755 402.595 348.032Z" fill="#0C1540"/>
<path d="M397.506 346.694C397.506 346.694 393.301 344.194 392.784 341.997C392.266 339.8 389.665 341.795 389.4 342.401C389.147 343.02 392.493 346.631 397.506 346.694Z" fill="#0C1540"/>
<path d="M394.767 339.345C394.767 339.345 384.602 341.365 380.296 339.295C380.296 339.295 374.387 289.103 372.544 282.423C370.713 275.744 363.301 234.542 368.061 216.309C372.834 198.063 389.868 209.857 391.206 215.539C391.762 217.887 392.191 220.867 392.545 224.302C394.325 241.904 394.969 271.185 394.615 286.918C394.514 291.237 394.451 295.707 394.401 300.177C394.237 315.228 394.363 330.304 394.767 339.345Z" fill="#83A5F2"/>
<path d="M392.544 224.289C392.279 223.721 392.001 223.165 391.711 222.635C390.966 221.233 390.183 219.983 388.643 219.554C387.683 219.289 386.395 219.516 385.385 219.529C384.009 219.554 379.539 219.061 379.375 221.183C382.569 228.014 385.751 234.883 387.898 242.131C390.107 249.606 392.001 257.005 391.698 264.758C391.547 269.001 391.294 273.269 391.597 277.524C391.913 282.019 392.86 286.451 393.618 290.896C394.135 293.964 394.299 297.07 394.4 300.176C394.438 295.707 394.514 291.237 394.615 286.918C394.969 271.185 394.312 241.903 392.544 224.289Z" fill="#2647C8"/>
<path d="M355.51 179.325C352.606 185.057 333.476 202.432 329.941 205.765C325.685 209.781 316.556 205.311 318.551 200.336C320.306 195.929 341.014 172.658 343.956 170.587C349.26 166.862 359.147 172.153 355.51 179.325Z" fill="#FBBCBE"/>
<path d="M345.989 192.962C352.303 186.901 357.353 178.277 358.97 175.145C362.796 167.695 354.083 161.357 348.679 165.082C347.328 166.016 337.719 171.951 332.239 178.719C334.511 185.562 344.752 192.52 345.989 192.962Z" fill="url(#paint1_linear)"/>
<path d="M357.203 162.759C357.203 162.759 351.836 162.291 349.008 165.158C346.179 168.024 341.406 180.562 343.136 195.008C344.853 209.453 340.207 234.631 340.207 234.631C340.207 234.631 365.019 240.325 395.98 233.823C395.98 233.823 393.669 180.739 386.333 166.458C383.997 161.925 373.087 161.913 371.433 161.774C369.779 161.622 357.203 162.759 357.203 162.759Z" fill="url(#paint2_linear)"/>
<path d="M358.528 156.433C358.528 156.433 359.387 161.433 357.821 162.089C356.243 162.746 354.147 162.973 354.147 162.973C354.147 162.973 362.733 175.398 372.494 161.824C372.494 161.824 369.577 161.862 368.68 160.688C367.771 159.513 367.216 153.693 367.67 149.841L358.528 156.433Z" fill="#FBBCBE"/>
<path d="M368.692 160.688C367.783 159.513 367.227 153.693 367.682 149.841L362.467 153.591C363.502 154.513 365.068 157.102 365.018 157.266C366.381 159.817 367.139 163.403 364.487 165.372C362.454 166.888 359.74 166.812 357.24 166.067C360.598 168.567 366.306 170.423 372.505 161.824C372.505 161.824 369.589 161.862 368.692 160.688Z" fill="#DA91A7"/>
<path d="M319.498 205.45C315.319 200.904 305.925 180.171 304.081 176.294C301.859 171.61 307.566 165.827 310.382 170.36C313.097 174.729 330.067 198.694 330.976 201.611C332.618 206.864 324.739 211.145 319.498 205.45Z" fill="#FBBCBE"/>
<path d="M373.061 142.467C372.985 142.038 370.081 139.677 369.765 139.828C369.715 139.828 369.917 149.829 369.45 150.738C369.109 151.407 368.591 152.922 369.551 153.301C370.447 153.655 371.571 153.15 372.063 152.405C375.233 147.657 373.25 143.566 373.061 142.467Z" fill="#0C1540"/>
<path d="M354.159 136.406V151.52C354.159 155.612 357.77 158.92 362.228 158.92C366.685 158.92 370.296 155.612 370.296 151.52V151.18C370.296 151.18 374.438 152.076 374.438 147.543C374.438 143.01 371.837 143.641 371.837 143.641V136.406H354.159V136.406Z" fill="#FBBCBE"/>
<path d="M371.823 143.641V134.436H365.548C365.548 134.487 365.548 137.745 365.548 137.795V153.478C365.548 156.218 362.896 158.44 360.143 158.352C359.285 158.326 358.502 158.086 357.82 157.708C359.083 158.465 360.585 158.92 362.214 158.92C366.671 158.92 370.283 155.612 370.283 151.52V151.18C370.283 151.18 374.424 152.076 374.424 147.543C374.424 143.01 371.823 143.641 371.823 143.641Z" fill="#DA91A7"/>
<path d="M372.076 128.881C372.076 128.868 372.076 128.855 372.064 128.843C367.745 121.557 352.568 131.166 349.499 126.772C347.517 128.843 349.979 136.368 352.934 137.075C354.916 137.555 364.285 137.202 366.129 136.406C366.962 139.677 367.682 146.142 369.475 146.129C370.346 146.129 372.177 144.664 371.824 143.641C376.281 142.909 376.369 130.181 372.076 128.881Z" fill="#0C1540"/>
<path d="M303.121 165.537C302.629 165.587 300.962 166.383 299.762 167.317C298.525 167.14 297.54 166.648 296.454 165.751C295.191 164.703 294.232 163.807 292.502 163.807C292.237 163.807 292.022 164.009 291.946 164.249C291.744 164.893 292.312 165.335 292.704 165.777C292.969 166.067 293.234 166.37 293.499 166.673C292.704 166.08 291.883 165.663 290.709 165.65C290.444 165.65 290.229 165.852 290.153 166.092C289.951 166.749 290.519 167.178 290.911 167.62C290.974 167.683 291.037 167.759 291.088 167.822C291.025 167.822 290.974 167.809 290.898 167.809C290.633 167.809 290.418 168.012 290.343 168.251C290.153 168.895 290.709 169.337 291.1 169.779C291.631 170.373 292.186 171.004 292.767 171.598C292.464 171.598 292.148 171.61 291.807 171.686C291.542 171.736 291.378 171.989 291.365 172.242C291.315 172.923 291.946 173.214 292.439 173.567C293.752 174.514 295.191 175.588 296.694 176.194C299.207 177.216 303.31 176.699 305.407 175.247C305.432 175.234 305.419 175.209 305.432 175.196C306.025 174.918 306.644 174.628 306.985 174.615C307.806 174.615 311.531 171.825 309.346 169.198C307.515 167.368 305.874 165.271 303.121 165.537Z" fill="#FBBCBE"/>
<path d="M296.454 164.463C296.315 164.135 296.504 163.693 296.883 163.643C298.6 163.453 300.772 162.847 302.464 163.428C304.118 163.996 305.52 165.436 306.72 166.635C307.023 166.938 306.858 167.304 306.568 167.468C306.555 167.683 306.454 167.885 306.24 167.948C304.169 168.63 303.209 166.913 301.442 166.256C299.674 165.612 297.426 166.66 296.454 164.463Z" fill="#FBBCBE"/>
<path d="M410.197 221.751L389.653 242.851C389.287 243.23 388.668 243.242 388.289 242.863L362.631 217.875C362.253 217.509 362.24 216.89 362.619 216.511L383.163 195.412C383.529 195.033 384.148 195.02 384.526 195.399L410.184 220.388C410.563 220.766 410.576 221.372 410.197 221.751Z" fill="#2647C8"/>
<path d="M369.147 202.331C366.381 205.172 366.444 209.718 369.286 212.483C372.127 215.249 376.672 215.185 379.438 212.344C382.203 209.503 382.14 204.958 379.299 202.192C376.458 199.427 371.912 199.49 369.147 202.331ZM378.036 210.981C376.016 213.052 372.707 213.089 370.649 211.082C368.578 209.061 368.541 205.753 370.548 203.695C372.556 201.624 375.877 201.586 377.935 203.594C380.006 205.602 380.044 208.923 378.036 210.981Z" fill="#2647C8"/>
<path d="M406.283 222.155L389.943 238.924C389.653 239.227 389.161 239.227 388.858 238.936L368.465 219.074C368.162 218.784 368.149 218.292 368.453 217.989L384.792 201.22C385.082 200.917 385.575 200.904 385.878 201.207L406.27 221.069C406.573 221.36 406.573 221.852 406.283 222.155Z" fill="white"/>
<path d="M373.175 219.718L372.228 218.797L385.776 204.895L386.723 205.816L373.175 219.718Z" fill="#83A5F2"/>
<path d="M378.201 224.617L377.254 223.695L390.803 209.781L391.75 210.702L378.201 224.617Z" fill="#83A5F2"/>
<path d="M393.307 212.236L379.774 226.147L380.725 227.071L394.258 213.16L393.307 212.236Z" fill="#83A5F2"/>
<path d="M398.337 217.135L384.804 231.046L385.755 231.971L399.287 218.059L398.337 217.135Z" fill="#83A5F2"/>
<path d="M388.252 234.403L387.305 233.482L400.854 219.579L401.801 220.501L388.252 234.403Z" fill="#83A5F2"/>
<path d="M394.388 171.054C399.06 175.474 410.273 198.758 412.47 203.089C415.109 208.304 410.134 214.2 405.348 211.776C401.282 209.705 383.883 183.062 382.734 179.666C380.663 173.504 388.555 165.524 394.388 171.054Z" fill="#FBBCBE"/>
<path d="M403.542 181.067C398.504 173.908 390.751 167.62 387.897 165.549C381.104 160.637 373.528 168.301 376.394 174.211C377.114 175.688 381.028 183.845 386.887 190.285C393.984 189.073 402.923 182.229 403.542 181.067Z" fill="url(#paint3_linear)"/>
<path d="M410.689 211.574C406.244 215.854 385.713 225.703 381.874 227.635C377.253 229.971 371.331 224.39 375.801 221.473C380.107 218.657 403.681 201.157 406.572 200.184C411.8 198.442 416.245 206.22 410.689 211.574Z" fill="#FBBCBE"/>
<path d="M372.267 221.94C372.292 221.928 372.305 221.94 372.317 221.928C375.057 220.539 379.085 221.233 380.55 224.062C381.547 225.994 380.562 227.951 379.338 229.516C378.201 230.969 376.282 233.153 374.274 232.913C373.618 232.837 373.151 232.017 373.441 231.398C372.885 231.474 372.342 231.347 371.85 230.868C371.358 230.375 371.282 229.883 371.433 229.428C370.65 229.567 369.969 229.352 369.602 228.431C369.438 228.001 369.476 227.61 369.59 227.244C368.921 227.269 368.327 226.966 367.948 226.107C366.989 223.91 370.827 222.584 372.267 221.94Z" fill="#FBBCBE"/>
<path d="M373.807 218.216C375.297 218.847 376.649 220.223 377.76 221.372C377.785 221.398 377.785 221.423 377.81 221.448C378.442 221.978 378.416 223.241 377.368 223.393C376.131 223.582 374.679 223.734 373.795 222.888C373.302 222.42 373.353 221.132 372.734 220.817C371.926 220.413 370.853 220.893 370.095 221.221C368.782 221.776 367.254 220.148 368.454 219.415C369.805 218.569 372.204 217.534 373.807 218.216Z" fill="#FBBCBE"/>
<path d="M205.944 279.039H207.585C208.229 279.039 208.76 278.509 208.76 277.865L207.623 274.127H203.633L204.769 277.865C204.769 278.509 205.287 279.039 205.944 279.039Z" fill="#2647C8"/>
<path d="M206.65 279.039H208.291C208.935 279.039 209.466 278.509 209.466 277.865L208.329 274.127H204.339L205.476 277.865C205.476 278.509 206.006 279.039 206.65 279.039Z" fill="#6F8FE4"/>
<path d="M192.686 279.039H194.328C194.971 279.039 195.502 278.508 195.502 277.864L196.638 274.127H192.648L191.512 277.864C191.512 278.508 192.029 279.039 192.686 279.039Z" fill="#2647C8"/>
<path d="M182.042 258.217C182.042 248.406 189.996 240.451 199.808 240.451C209.619 240.451 217.574 248.406 217.574 258.217C217.574 268.028 209.619 275.983 199.808 275.983C189.996 275.983 182.042 268.028 182.042 258.217Z" fill="#2647C8"/>
<path d="M206.445 244.47L213.605 248.135L216.621 242.245L209.46 238.58L206.445 244.47Z" fill="#2647C8"/>
<path d="M206.487 239.744L217.624 245.439L217.649 245.388C219.227 242.307 218.003 238.544 214.934 236.966C211.853 235.388 208.09 236.612 206.512 239.681L206.487 239.744Z" fill="#6F8FE4"/>
<path d="M189.353 248.583L195.788 243.758L191.819 238.464L185.383 243.289L189.353 248.583Z" fill="#2647C8"/>
<path d="M185.135 246.461L195.148 238.961L195.11 238.91C193.039 236.145 189.112 235.59 186.347 237.66C183.582 239.731 183.026 243.658 185.097 246.423L185.135 246.461Z" fill="#6F8FE4"/>
<path d="M183.569 258.268C183.569 248.457 191.524 240.502 201.335 240.502C211.146 240.502 219.101 248.457 219.101 258.268C219.101 268.079 211.146 276.034 201.335 276.034C191.524 276.034 183.569 268.079 183.569 258.268Z" fill="#6F8FE4"/>
<path d="M193.393 279.039H195.034C195.678 279.039 196.208 278.508 196.208 277.864L197.345 274.127H193.355L192.218 277.864C192.218 278.508 192.749 279.039 193.393 279.039Z" fill="#6F8FE4"/>
<path d="M185.653 258.217C185.653 249.669 192.585 242.737 201.134 242.737C209.682 242.737 216.614 249.669 216.614 258.217C216.614 266.765 209.682 273.698 201.134 273.698C192.585 273.698 185.653 266.765 185.653 258.217Z" fill="white"/>
<path d="M200.83 246.538H201.461V243.873H200.83V246.538Z" fill="#D3DDF8"/>
<path d="M207.12 247.219L207.663 247.547L208.584 245.956L208.029 245.641L207.12 247.219Z" fill="#D3DDF8"/>
<path d="M211.804 251.686L212.12 252.233L213.705 251.317L213.39 250.77L211.804 251.686Z" fill="#D3DDF8"/>
<path d="M212.813 257.89V258.534H215.464V257.89H212.813Z" fill="#D3DDF8"/>
<path d="M212.119 264.195L211.803 264.742L213.389 265.657L213.704 265.11L212.119 264.195Z" fill="#D3DDF8"/>
<path d="M207.674 268.889L207.127 269.204L208.042 270.79L208.589 270.474L207.674 268.889Z" fill="#D3DDF8"/>
<path d="M201.451 269.834H200.82V272.549H201.451V269.834Z" fill="#D3DDF8"/>
<path d="M195.155 269.189L194.609 268.874L193.693 270.459L194.24 270.775L195.155 269.189Z" fill="#D3DDF8"/>
<path d="M190.475 264.726L190.16 264.179L188.574 265.095L188.889 265.641L190.475 264.726Z" fill="#D3DDF8"/>
<path d="M189.52 258.534V257.89H186.805V258.534H189.52Z" fill="#D3DDF8"/>
<path d="M190.159 252.234L190.474 251.687L188.888 250.772L188.573 251.319L190.159 252.234Z" fill="#D3DDF8"/>
<path d="M194.6 247.536L195.157 247.213L194.24 245.629L193.682 245.952L194.6 247.536Z" fill="#D3DDF8"/>
<path d="M210.222 250.016L209.418 249.214L200.317 258.328L201.121 259.131L210.222 250.016Z" fill="#1D3599"/>
<path d="M208.569 265.105L209.007 264.517L202.011 259.304L201.574 259.891L208.569 265.105Z" fill="#1D3599"/>
<path d="M199.038 258.432C199.038 257.27 199.985 256.323 201.146 256.323C202.308 256.323 203.255 257.27 203.255 258.432C203.255 259.593 202.308 260.54 201.146 260.54C199.972 260.528 199.038 259.593 199.038 258.432Z" fill="#6F8FE4"/>
<path d="M200.022 258.431C200.022 257.813 200.515 257.32 201.134 257.32C201.752 257.32 202.245 257.813 202.245 258.431C202.245 259.05 201.74 259.543 201.134 259.543C200.528 259.543 200.022 259.038 200.022 258.431Z" fill="white"/>
<path d="M148.783 278.32H122.052C119.16 278.32 116.799 275.959 116.799 273.067C116.799 270.176 119.16 267.815 122.052 267.815H148.77C149.212 267.815 149.553 268.168 149.553 268.597C149.553 269.027 149.553 277.083 149.553 277.525C149.553 277.967 149.212 278.32 148.783 278.32Z" fill="url(#paint4_linear)"/>
<path d="M170.072 277.537H143.354C140.891 277.537 138.884 275.542 138.884 273.067C138.884 270.604 140.879 268.609 143.354 268.609H170.072V277.537Z" fill="white"/>
<path d="M170.072 278.32H143.353C140.462 278.32 138.101 275.958 138.101 273.067C138.101 270.175 140.462 267.814 143.353 267.814H170.072C170.514 267.814 170.867 268.168 170.867 268.597C170.867 269.026 170.514 269.392 170.072 269.392H143.353C141.333 269.392 139.679 271.034 139.679 273.067C139.679 275.1 141.333 276.741 143.353 276.741H170.072C170.514 276.741 170.867 277.095 170.867 277.537C170.867 277.979 170.514 278.32 170.072 278.32Z" fill="url(#paint5_linear)"/>
<path d="M156.081 267.814H129.35C126.458 267.814 124.097 265.453 124.097 262.561C124.097 259.669 126.458 257.308 129.35 257.308H156.068C156.497 257.308 156.851 257.662 156.851 258.091C156.851 258.52 156.851 266.576 156.851 267.018C156.851 267.46 156.51 267.814 156.081 267.814Z" fill="#120D80"/>
<path d="M177.37 267.03H150.652C148.189 267.03 146.194 265.035 146.194 262.573C146.194 260.111 148.189 258.103 150.652 258.103H177.37V267.03Z" fill="white"/>
<path d="M177.369 267.814H150.651C147.759 267.814 145.398 265.452 145.398 262.561C145.398 259.669 147.759 257.308 150.651 257.308H177.369C177.811 257.308 178.152 257.662 178.152 258.091C178.152 258.52 177.798 258.886 177.369 258.886H150.651C148.63 258.886 146.976 260.54 146.976 262.561C146.976 264.581 148.618 266.235 150.651 266.235H177.369C177.811 266.235 178.152 266.589 178.152 267.018C178.152 267.447 177.798 267.814 177.369 267.814Z" fill="#2647C8"/>
<path d="M102.808 354.636H98.9312L109.765 283.471H113.641L102.808 354.636Z" fill="#6F8FE4"/>
<path d="M97.8708 354.637H98.9315L109.765 283.472H108.705L97.8708 354.637Z" fill="#83A5F2"/>
<path d="M135.498 354.636H131.609L142.456 283.471H146.332L135.498 354.636Z" fill="#6F8FE4"/>
<path d="M130.549 354.637H131.61L142.456 283.472H141.383L130.549 354.637Z" fill="#83A5F2"/>
<path d="M210.401 354.636H206.525L195.678 283.471H199.568L210.401 354.636Z" fill="#1D3599"/>
<path d="M205.452 354.637H206.525L195.679 283.472H194.618L205.452 354.637Z" fill="#6F8FE4"/>
<path d="M248.976 354.636H245.1L234.266 283.471H238.142L248.976 354.636Z" fill="#1D3599"/>
<path d="M244.039 354.637H245.1L234.266 283.472H233.205L244.039 354.637Z" fill="#6F8FE4"/>
<path d="M240.845 278.459H103.995V284.457H240.845V278.459Z" fill="#6F8FE4"/>
<path d="M240.845 278.458H190.413V284.456H240.845V278.458Z" fill="#2647C8"/>
</g>
<path d="M259.515 38.9999L240.537 20.0217L266.465 13.0724L259.515 38.9999ZM249.762 22.5086L257.046 29.793L259.709 19.8453L249.762 22.5086Z" fill="#C4C5C6"/>
<path d="M9.73732 74.1224H6.25732V88.7324H9.73732V74.1224Z" fill="#B1D6FF"/>
<path d="M15.2973 79.6825H0.687256V83.1625H15.2973V79.6825Z" fill="#B1D6FF"/>
<path d="M293.347 102.692L283.497 92.8424L293.347 82.9924L303.197 92.8424L293.347 102.692ZM288.417 92.8324L293.347 97.7624L298.277 92.8324L293.347 87.9024L288.417 92.8324Z" fill="#FFC107"/>
</g>
<defs>
<linearGradient id="paint0_linear" x1="481.891" y1="323.647" x2="434.889" y2="323.647" gradientUnits="userSpaceOnUse">
<stop stop-color="#FF7300"/>
<stop offset="1" stop-color="#FFD000"/>
</linearGradient>
<linearGradient id="paint1_linear" x1="377.868" y1="164.826" x2="319.657" y2="191.784" gradientUnits="userSpaceOnUse">
<stop offset="1.09e-06" stop-color="#FFD000"/>
<stop offset="1" stop-color="#FF7300"/>
</linearGradient>
<linearGradient id="paint2_linear" x1="340.2" y1="199.344" x2="395.976" y2="199.344" gradientUnits="userSpaceOnUse">
<stop offset="1.09e-06" stop-color="#FFD000"/>
<stop offset="1" stop-color="#FF7300"/>
</linearGradient>
<linearGradient id="paint3_linear" x1="380.945" y1="146.692" x2="397.409" y2="203.492" gradientUnits="userSpaceOnUse">
<stop offset="1.09e-06" stop-color="#FFD000"/>
<stop offset="1" stop-color="#FF7300"/>
</linearGradient>
<linearGradient id="paint4_linear" x1="116.802" y1="273.069" x2="149.568" y2="273.069" gradientUnits="userSpaceOnUse">
<stop offset="1.09e-06" stop-color="#FFD000"/>
<stop offset="1" stop-color="#FF7300"/>
</linearGradient>
<linearGradient id="paint5_linear" x1="138.096" y1="273.068" x2="170.862" y2="273.068" gradientUnits="userSpaceOnUse">
<stop offset="1.09e-06" stop-color="#FFD000"/>
<stop offset="1" stop-color="#FF7300"/>
</linearGradient>
<clipPath id="clip0">
<rect width="468.318" height="265" fill="white" transform="translate(51 90.9999)"/>
</clipPath>
</defs>
</svg>
