<svg width="602" height="423" viewBox="0 0 602 423" fill="none" xmlns="http://www.w3.org/2000/svg">
<mask id="mask0" mask-type="alpha" maskUnits="userSpaceOnUse" x="0" y="0" width="602" height="423">
<rect width="602" height="423" fill="#C4C4C4"/>
</mask>
<g mask="url(#mask0)">
<path fill-rule="evenodd" clip-rule="evenodd" d="M584.188 325.76C540.55 406.087 438.284 423.043 348.854 404.144C265.161 386.458 195.391 325.848 183.626 241.112C171.367 152.816 215.227 63.7539 296.516 27.1656C374.387 -7.88474 460.323 28.4094 519.568 89.9035C582.092 154.802 627.212 246.564 584.188 325.76Z" fill="#4C80F1"/>
<path fill-rule="evenodd" clip-rule="evenodd" d="M584.188 325.261C540.55 405.588 438.284 422.544 348.854 403.645C265.161 385.959 195.391 325.349 183.626 240.613C171.367 152.317 215.227 63.2546 296.516 26.6663C374.387 -8.38401 460.323 27.9101 519.568 89.4042C582.092 154.303 627.212 246.065 584.188 325.261Z" fill="#1B2349"/>
<path d="M385 133V128L248 128V133L385 133Z" fill="#D3DDF8"/>
<g clip-path="url(#clip0)">
<path d="M443.24 314.04C441.99 311.65 433.12 303.81 427.57 304.53C423.02 305.12 411.71 314.78 407.99 318.21C409.36 315.55 412.31 309.26 413.65 306.65C416.78 300.55 420.14 286.82 419.86 287.09C414.91 291.84 410.67 297.44 408.42 303.98C407.9 305.5 407.37 307.64 406.89 309.9C406.64 307.6 406.22 305.31 405.52 303.1C404.14 298.78 401.58 295.23 398.72 291.77C395.33 287.65 391.9 283.58 387.75 280.19C387.27 279.8 386.61 280.28 386.89 280.86C391.39 290.19 395.94 299.64 398.33 309.78C398.37 309.94 398.4 310.1 398.43 310.26C397.19 307.15 395.51 304.05 393.16 301.9C386.89 296.15 372.84 294.96 368.13 296.27C367.64 296.41 381.7 299.34 389.23 306.08C391.94 308.5 397.2 319.84 397.61 320.56C396.48 319.16 388.91 310.45 384.99 309.79C369.77 307.24 359.75 317.51 359.9 317.75C359.87 318.1 372.33 314.27 383.57 315.85C392.44 317.09 395.87 323.69 400.95 327.6C401.52 329.56 402.42 331.37 403.91 332.93C404.27 333.31 404.77 332.99 404.83 332.59C405.07 332.62 405.33 332.52 405.44 332.23C405.67 331.62 405.87 330.99 406.04 330.36C416.26 324.55 428.14 322.48 439.73 324.53C440.26 324.62 440.66 324.03 440.27 323.61C435.72 318.68 428.75 316.36 422.17 317.95C417.33 319.12 412.08 321.47 407.78 324.68C408.62 323.23 409.49 321.79 410.71 320.61C429.85 302.28 443.5 314.54 443.24 314.04Z" fill="#D3DDF8"/>
<path d="M413.92 352.78H393.56L387.7 325.43H419.78L413.92 352.78Z" fill="#F5F8FF"/>
<path d="M398.79 352.78H393.56L387.7 325.43H392.85L398.79 352.78Z" fill="white"/>
<path d="M335.57 293.44H188V318.5H335.57V293.44Z" fill="white"/>
<path d="M329.5 297.11H194.08V314.84H329.5V297.11Z" fill="#E2E9FB"/>
<path d="M234.07 304.58H203.47V307.23H234.07V304.58Z" fill="white"/>
<path d="M277.17 304.58H246.57V307.23H277.17V304.58Z" fill="white"/>
<path d="M320.27 304.58H289.67V307.23H320.27V304.58Z" fill="white"/>
<path d="M335.57 323.87H188V348.93H335.57V323.87Z" fill="white"/>
<path d="M329.5 327.54H194.08V345.27H329.5V327.54Z" fill="#E2E9FB"/>
<path d="M234.07 335.01H203.47V337.66H234.07V335.01Z" fill="white"/>
<path d="M277.17 335.01H246.57V337.66H277.17V335.01Z" fill="white"/>
<path d="M320.27 335.01H289.67V337.66H320.27V335.01Z" fill="white"/>
<path d="M383.768 170.479V165.179L251.138 165.179V170.479L383.768 170.479Z" fill="#D3DDF8"/>
<path d="M383.766 210.778V205.478L251.136 205.478V210.778L383.766 210.778Z" fill="#D3DDF8"/>
<path d="M383.764 251.076V245.776L251.134 245.776V251.076L383.764 251.076Z" fill="#D3DDF8"/>
<path d="M380 251H385V129H380V251Z" fill="#D3DDF8"/>
<path d="M336 251H341V129H336V251Z" fill="#D3DDF8"/>
<path d="M292 251H297V129H292V251Z" fill="#D3DDF8"/>
<path d="M248 251H254L254 129H248L248 251Z" fill="#D3DDF8"/>
<path d="M350.27 226.62C351.36 227.9 351.69 230.14 352.12 231.71C352.46 232.96 352.75 234.23 353 235.5H353.84C353.24 232.03 352.71 228.49 351.76 225.14C351.07 222.7 349.52 221.51 347.16 220.81C345.18 220.23 343.16 219.73 341.16 219.2C340.85 219.12 346.57 219.33 349.17 220.05C350.08 220.3 351.23 220.54 352.25 220.95C350.99 217.25 349.36 213.59 347.61 209.91C347.44 209.56 358.52 219.87 355.75 235.5H356.55C356.58 235.46 356.6 235.43 356.63 235.39C357.76 231.6 357.56 227.5 359.09 223.82C360.51 220.42 363.22 217.84 366.13 215.68C366.4 215.48 366.63 215.85 366.53 216.08C365.1 219.41 362.69 222.1 361.19 225.36C359.97 228.01 359 230.81 358.03 233.59C359.3 232.21 360.81 231.25 362.98 230.99C366.35 230.59 367.85 232.55 368.93 235.49C369.05 235.81 368.55 236 368.39 235.72C367.34 233.83 364.7 233.35 362.71 233.35C360.69 233.35 359.1 234.33 357.59 235.5H360L358.15 246.75H351.7L349.85 235.5H351.45C350.91 234.22 350.45 232.9 349.85 231.63C349.06 229.96 348.29 228.44 346.11 228.75C344.74 228.95 343.33 229.5 342 229.86C341.64 229.96 348.35 224.37 350.27 226.62Z" fill="#D3DDF8"/>
<path d="M452.97 197.83C465.29 208.65 466.5 227.41 455.68 239.73C444.86 252.05 426.1 253.26 413.78 242.44C401.46 231.62 400.25 212.86 411.07 200.54C421.89 188.21 440.65 187 452.97 197.83Z" fill="#D3DDF8"/>
<path d="M449.05 202.29C458.9 210.95 459.87 225.96 451.22 235.81C442.56 245.66 427.55 246.63 417.7 237.97C407.85 229.31 406.88 214.3 415.54 204.45C424.19 194.6 439.2 193.63 449.05 202.29Z" fill="white"/>
<path d="M445.14 206.74C452.54 213.24 453.27 224.5 446.77 231.9C440.27 239.3 429 240.02 421.61 233.52C414.21 227.02 413.49 215.76 419.99 208.36C426.48 200.96 437.74 200.24 445.14 206.74Z" fill="#D3DDF8"/>
<path d="M441.31 211.1C446.3 215.48 446.79 223.08 442.41 228.07C438.03 233.06 430.43 233.55 425.44 229.17C420.45 224.79 419.96 217.19 424.34 212.2C428.72 207.21 436.32 206.71 441.31 211.1Z" fill="white"/>
<path d="M438.21 214.63C441.25 217.3 441.55 221.92 438.88 224.96C436.21 228 431.59 228.3 428.55 225.63C425.51 222.96 425.21 218.34 427.88 215.3C430.54 212.26 435.17 211.96 438.21 214.63Z" fill="#D3DDF8"/>
<path d="M435.47 217.74C436.79 218.9 436.92 220.91 435.76 222.23C434.6 223.55 432.59 223.68 431.27 222.52C429.95 221.36 429.82 219.35 430.98 218.03C432.14 216.71 434.15 216.58 435.47 217.74Z" fill="#83A5F2"/>
<path d="M464.6 201.26C463.86 201.15 464.17 200.04 464.9 200.14C465.83 200.27 466.67 200.63 467.53 200.97L470.9 198.44C470.11 198.21 469.31 198.03 468.48 198.03C467.73 198.03 467.73 196.87 468.47 196.87C469.71 196.87 470.87 197.22 472.03 197.59L474.16 195.99L468.54 193.13L458.29 200.82L463.9 203.68L466.43 201.78C465.85 201.56 465.25 201.36 464.6 201.26Z" fill="#83A5F2"/>
<path d="M467.43 187.01L465.19 188.69C465.09 189.94 465.02 191.2 464.95 192.46C464.91 193.2 463.75 193.21 463.79 192.47C463.84 191.52 463.89 190.57 463.95 189.62L461.5 191.46C461.61 192.85 461.69 194.25 461.74 195.65C461.77 196.4 460.61 196.4 460.58 195.66C460.54 194.53 460.48 193.41 460.4 192.29L457.17 194.71L458.34 200.9L468.59 193.21L467.43 187.01Z" fill="#83A5F2"/>
<path d="M432.83 218.46C432.34 219.02 432.29 219.86 432.76 220.48C433.29 221.18 434.3 221.32 435 220.79L471.07 193.41C471.77 192.88 471.91 191.87 471.38 191.17C470.85 190.47 469.84 190.33 469.14 190.86L433.07 218.24C432.98 218.31 432.9 218.38 432.83 218.46Z" fill="#6F8FE4"/>
<path d="M235.19 350.01C234.5 350.01 233.94 349.45 233.94 348.76V191.95C233.94 191.26 234.5 190.7 235.19 190.7C235.88 190.7 236.44 191.26 236.44 191.95V348.76C236.44 349.45 235.88 350.01 235.19 350.01Z" fill="#1D3599"/>
<path d="M236.15 350.01C235.46 350.01 234.9 349.45 234.9 348.76V191.95C234.9 191.26 235.46 190.7 236.15 190.7C236.84 190.7 237.4 191.26 237.4 191.95V348.76C237.4 349.45 236.84 350.01 236.15 350.01Z" fill="#2647C8"/>
<path d="M247.78 179.84H222.59L215.34 208.3C215.34 208.92 224.22 209.43 235.19 209.43C246.14 209.43 255.02 208.93 255.02 208.3L247.78 179.84Z" fill="#6F8FE4"/>
<path d="M247.78 179.84C247.78 180.33 242.14 180.73 235.18 180.73C228.22 180.73 222.58 180.33 222.58 179.84C222.58 179.35 228.22 178.95 235.18 178.95C242.14 178.95 247.78 179.35 247.78 179.84Z" fill="#2647C8"/>
<path d="M264.09 351.1H206.27C206.27 348.94 208.02 347.18 210.19 347.18H260.18C262.34 347.19 264.09 348.94 264.09 351.1Z" fill="#6F8FE4"/>
<path d="M344.68 351.56H346.24L343.6 309.54H340.29L344.68 351.56Z" fill="#2647C8"/>
<path d="M326.44 351.56H328L325.36 309.54H322.04L326.44 351.56Z" fill="#1D3599"/>
<path d="M275.08 351.56H273.51L275.37 309.54H278.68L275.08 351.56Z" fill="#1D3599"/>
<path d="M293.32 351.56H291.76L293.61 309.54H296.93L293.32 351.56Z" fill="#2647C8"/>
<path d="M345.84 311.25C344.9 306.35 340.42 287.33 327.49 287.04C314.56 286.76 310.24 306.3 309.36 311.25H307.05C307.38 309.24 308.42 303.88 310.77 298.48C314.73 289.35 320.53 284.63 327.55 284.77C334.53 284.93 340.35 289.76 344.36 298.74C346.74 304.07 347.82 309.29 348.17 311.25H345.84V311.25Z" fill="#2647C8"/>
<path d="M273.04 254.89V292.81L281.64 304.95L300.91 306.42C301.23 309.99 301.5 312.22 301.5 312.22H348.92C348.92 312.22 351.57 306.15 348.92 299.89C347.11 295.63 332.72 295.13 323.71 295.26C319.47 295.31 316.43 295.5 316.43 295.5C316.43 295.5 316.43 295.44 316.43 295.32C316.36 292.56 315.42 259.71 309.6 255.15V255.13C309.5 255.05 309.36 254.97 309.19 254.89C309.09 254.83 308.99 254.79 308.89 254.75C308.86 254.74 308.84 254.72 308.8 254.71C308.78 254.7 308.75 254.69 308.74 254.69C305.87 253.65 297.71 253.08 289.57 253.2C283.22 253.31 276.87 253.83 273.04 254.89Z" fill="#81A4F2"/>
<path d="M273.04 254.89V292.81L281.64 304.95L300.91 306.42C301.23 309.99 301.5 312.22 301.5 312.22H344.39C344.39 312.22 347.05 306.15 344.39 299.89C342.87 296.29 332.36 295.38 323.71 295.26C320.99 295.21 318.44 295.25 316.43 295.31C313.69 295.38 311.9 295.49 311.9 295.49C311.9 295.49 311.15 259.9 305.07 255.13V255.11C304.98 255.03 304.83 254.95 304.67 254.87C304.57 254.81 304.47 254.77 304.36 254.73C304.33 254.72 304.31 254.7 304.28 254.69C304.25 254.68 304.23 254.67 304.21 254.67C301.88 253.82 296.04 253.28 289.56 253.18C283.22 253.31 276.87 253.83 273.04 254.89Z" fill="#6F8FE4"/>
<path d="M274.56 312.23H321.98C321.98 312.23 324.63 306.16 321.98 299.9C319.33 293.64 283.29 299.71 283.29 299.71C283.29 299.71 280.53 254.36 273.04 254.89C271.05 255.03 269.7 256.42 268.82 258.66C263.87 271.44 274.56 312.23 274.56 312.23Z" fill="#2647C8"/>
<path d="M274.56 312.23H320.7C321.14 309.87 278.69 309.54 278.69 309.54C278.69 309.54 269.43 258.23 268.83 258.66C263.87 271.44 274.56 312.23 274.56 312.23Z" fill="#1D3599"/>
<path d="M314.85 310.08C313.57 304.05 308.91 287.31 296.74 287.04C296.64 287.04 296.55 287.04 296.46 287.04C286.2 287.04 281.42 299.54 279.48 306.93C279.01 306.23 278.6 305.35 277.98 304.22C277.97 304.2 277.96 304.18 277.95 304.16C278.49 302.36 279.17 300.42 280.01 298.47C283.97 289.34 289.77 284.62 296.79 284.76C303.77 284.92 309.58 289.75 313.6 298.73C315.63 303.26 316.71 307.8 317.2 310.29C316.42 310.24 315.63 310.17 314.85 310.08Z" fill="#2647C8"/>
<path d="M362.36 337.53H368.93C370.1 342.55 373.61 345.86 379.6 346.41C383.12 346.73 382.84 351.07 382.84 351.07H363.36C363.36 351.07 361.01 349.03 363.5 344.65C364.11 343.58 362.36 337.53 362.36 337.53Z" fill="#FBBCBE"/>
<path d="M379.6 346.41C383.12 346.73 382.84 351.07 382.84 351.07H363.36C363.36 351.07 361.01 349.03 363.5 344.65C364.82 345.4 368.18 346.19 372.35 343.55C373.95 344.85 377.16 346.19 379.6 346.41Z" fill="#0C1540"/>
<path d="M323 247.4C324.95 252.1 339.02 266.97 341.61 269.81C344.73 273.24 352.2 270.25 350.93 266.21C349.81 262.63 334.84 243.01 332.64 241.2C328.68 237.93 320.56 241.52 323 247.4Z" fill="#FBBCBE"/>
<path d="M316.88 278.95C308.27 282.56 314.85 296.52 325.96 300.15C337.07 303.78 349.5 301.51 359.17 302.21C361.92 302.41 368.93 297.84 363.78 292.21C358.62 286.57 328.5 274.07 316.88 278.95Z" fill="#F5F8FF"/>
<path d="M363.44 292.04C371.55 299.99 369.52 333.23 371.48 339.13C371.48 339.13 366.18 341.86 360.66 342.61C360.66 342.61 351.37 303.65 350.98 299.23C350.15 289.98 360.77 289.42 363.44 292.04Z" fill="#F5F8FF"/>
<path d="M328.93 278.97C328.93 278.97 352.41 289.84 354.84 295.86C357.27 301.88 356.91 319.46 360.66 342.6L351.49 302.19L336.19 301.88L319 285.17L328.93 278.97Z" fill="#D3DDF8"/>
<path d="M296.51 278.95C293.19 285.67 295.39 295.06 306.5 298.69C317.61 302.32 329.97 301.51 340.4 302.21C343.15 302.39 351.13 298 345.98 292.37C340.82 286.73 302.09 267.65 296.51 278.95Z" fill="#F5F8FF"/>
<path d="M329.7 258.73C325.08 253.57 321.6 246.46 320.52 243.89C317.94 237.78 325.2 233.3 329.25 236.55C330.26 237.36 337.49 242.63 341.42 248.3C339.21 253.58 330.71 258.46 329.7 258.73Z" fill="url(#paint0_linear)"/>
<path d="M307.09 281.13C307.09 281.13 297.32 284.22 302.48 290.05C307.63 295.87 330.57 301.51 330.57 301.51C330.57 301.51 302.04 303.5 296.75 291.32C292.16 280.77 298.73 275.97 298.73 275.97L307.09 281.13Z" fill="#D3DDF8"/>
<path d="M322.27 234.49C322.27 234.49 326.52 234.12 328.76 236.39C331 238.66 334.78 248.59 333.41 260.03C332.05 271.47 334.27 278.6 334.27 278.6C334.27 278.6 319 286.15 294.48 280.99C294.48 280.99 293.38 248.71 299.19 237.41C301.04 233.82 309.68 233.81 310.99 233.7C312.31 233.59 322.27 234.49 322.27 234.49Z" fill="url(#paint1_linear)"/>
<path d="M321.21 229.48C321.21 229.48 320.53 233.44 321.77 233.96C323.02 234.48 324.68 234.66 324.68 234.66C324.68 234.66 317.88 244.5 310.14 233.75C310.14 233.75 312.45 233.78 313.16 232.85C313.87 231.92 314.32 227.31 313.96 224.26L321.21 229.48Z" fill="#FBBCBE"/>
<path d="M313.17 232.85C313.88 231.92 314.33 227.31 313.97 224.26L318.1 227.23C317.28 227.96 316.04 230.01 316.08 230.14C315.01 232.16 314.4 235.01 316.5 236.56C318.11 237.76 320.26 237.7 322.24 237.11C319.58 239.09 315.06 240.56 310.15 233.75C310.14 233.75 312.45 233.78 313.17 232.85Z" fill="#DA91A7"/>
<path d="M375.57 345.34C375.57 345.34 372.24 343.36 371.83 341.62C371.42 339.88 369.36 341.46 369.15 341.94C368.95 342.43 371.6 345.29 375.57 345.34Z" fill="#0C1540"/>
<path d="M318.88 337.72C319.99 337.19 322 331.22 322 331.22L327.4 334.96C325.5 339.75 326.5 344.47 331.11 348.33C331.75 348.87 332.08 349.46 332.22 350.07H325.44L315.1 342.9C315.11 342.91 314.34 339.9 318.88 337.72Z" fill="#FBBCBE"/>
<path d="M315.11 342.91L317.11 344.29L326.36 350.7L332.33 350.91C332.35 350.04 332.06 349.12 331.11 348.33C330.12 347.49 329.12 346.28 328.32 345.02C327.62 343.91 327.06 342.78 326.79 341.85C321.86 341.64 319.55 339.08 318.89 337.71C314.34 339.9 315.11 342.91 315.11 342.91Z" fill="#0C1540"/>
<path d="M317.1 344.29L326.35 350.7L333.74 351.03C333.74 351.03 334.18 346.71 330.67 346.26C329.4 346.1 325.96 343.79 325.21 343.14C321.64 345.23 318.71 344.92 317.1 344.29Z" fill="#0C1540"/>
<path d="M328.4 345.17C328.4 345.17 326.79 341.65 327.45 339.98C328.11 338.31 325.51 338.44 325.07 338.72C324.62 339.01 325.17 342.87 328.4 345.17Z" fill="#0C1540"/>
<path d="M347.69 294.75C350.7 305.7 329.85 332.23 328.58 338.32C328.58 338.32 322.66 335.96 319.39 332.45C319.39 332.45 331.42 298.71 333.3 294.69C337.24 286.29 346.7 291.15 347.69 294.75Z" fill="#F5F8FF"/>
<path d="M310.48 226.29C310.87 226.88 311.76 227.28 312.47 227C313.23 226.7 312.83 225.5 312.55 224.97C312.18 224.25 312.34 216.33 312.31 216.33C312.06 216.21 309.76 218.07 309.7 218.42C309.55 219.29 307.98 222.53 310.48 226.29Z" fill="#0C1540"/>
<path d="M324.68 213.62V225.59C324.68 228.83 321.82 231.45 318.29 231.45C314.76 231.45 311.9 228.83 311.9 225.59V225.32C311.9 225.32 308.62 226.03 308.62 222.44C308.62 218.85 310.68 219.35 310.68 219.35V213.62H324.68Z" fill="#FBBCBE"/>
<path d="M310.69 219.35V212.06H315.66C315.66 212.1 315.65 214.68 315.65 214.72V227.14C315.65 229.31 317.75 231.07 319.93 231C320.61 230.98 321.23 230.79 321.77 230.49C320.77 231.09 319.58 231.45 318.29 231.45C314.76 231.45 311.9 228.83 311.9 225.59V225.32C311.9 225.32 308.62 226.03 308.62 222.44C308.62 218.85 310.69 219.35 310.69 219.35Z" fill="#DA91A7"/>
<path d="M310.69 219.35C310.41 220.16 311.85 221.31 312.55 221.32C313.97 221.32 314.54 216.21 315.2 213.62C316.66 214.25 319.87 214.71 321.11 213.66C322.31 214.75 324.08 214.52 325.65 214.15C327.98 213.59 329.1 210.94 328.67 208.71C328.49 207.77 327.54 205.73 324.6 205.66C323.16 203.83 320.6 204.69 319.83 205.25C318.1 204.19 312.23 204.02 310.49 207.63C310.49 207.64 310.49 207.65 310.48 207.66C307.08 208.69 307.15 218.77 310.69 219.35Z" fill="#0C1540"/>
<path d="M294.07 241.06C290.37 244.55 281.49 263 279.75 266.43C277.65 270.56 281.6 275.23 285.39 273.31C288.61 271.67 302.39 250.57 303.3 247.88C304.94 243 298.69 236.68 294.07 241.06Z" fill="#FBBCBE"/>
<path d="M286.82 248.99C290.81 243.32 296.95 238.34 299.21 236.7C304.59 232.81 310.59 238.88 308.32 243.56C307.75 244.73 304.65 251.19 300.01 256.29C294.39 255.33 287.32 249.92 286.82 248.99Z" fill="url(#paint2_linear)"/>
<path d="M369.13 284.3H328.36V286.45H369.13V284.3Z" fill="#1D3599"/>
<path d="M328.36 286.45H309.59V285.24C309.59 284.72 310.01 284.3 310.53 284.3H328.36V286.45Z" fill="#120D80"/>
<path d="M367.98 284.3H327.37L332.72 259.3C332.88 258.57 333.49 258.05 334.19 258.05H370.76C372.21 258.05 373.29 259.48 372.96 260.99L367.98 284.3Z" fill="#1D3599"/>
<path d="M368.97 284.3H328.36L333.71 259.3C333.87 258.57 334.48 258.05 335.18 258.05H372.52C373.58 258.05 374.36 259.09 374.13 260.19L368.97 284.3Z" fill="#120D80"/>
<path opacity="0.11" d="M353.03 258.05L364.46 284.3H359.23L347.37 258.05H353.03Z" fill="#F0F5FF"/>
<path opacity="0.11" d="M344.48 258.05L355.92 284.3H353.88L342.02 258.05H344.48Z" fill="#F0F5FF"/>
<path d="M282.32 273.91C286.53 276.4 306.29 279.9 309.6 280.69C313.59 281.64 314.99 276.61 311.01 275.18C307.17 273.8 285.81 264.61 283.41 264.38C279.06 263.99 277.05 270.8 282.32 273.91Z" fill="#FBBCBE"/>
<path d="M322.47 283.91C321.45 282.34 320.51 280.81 321.37 281.92C322.47 283.34 324.59 282.75 323.5 281.34C322.13 279.57 320.78 277.43 318.93 276.09C316.93 274.63 311.24 275.62 309.04 274.87C308.15 274.57 307 278.86 307.55 279.42C309.39 281.28 312.48 281.18 312.77 281.45C313.39 282.44 313.6 283.05 314.08 284.03C314.7 285.29 317.07 285.36 316.45 284.11C316.06 283.31 316.47 283.24 317.06 284.35C317.82 285.77 320.26 285.69 319.51 284.28C319.19 283.68 319.25 283.37 319.74 284.13C320.75 285.68 323.46 285.44 322.47 283.91Z" fill="#FBBCBE"/>
<path d="M321.98 299.9C319.33 293.64 283.29 299.71 283.29 299.71C283.29 299.71 282.78 291.4 281.62 281.94C277.88 285.62 273.53 288.69 270.29 292.78C272.26 303.46 274.56 312.24 274.56 312.24H321.98C321.98 312.23 324.63 306.16 321.98 299.9Z" fill="#2647C8"/>
<path d="M278.68 309.54C278.68 309.54 276.84 299.36 274.75 288.1C273.15 289.56 271.63 291.08 270.28 292.77C272.25 303.45 274.55 312.23 274.55 312.23H320.69C321.14 309.87 278.68 309.54 278.68 309.54Z" fill="#1D3599"/>
<path d="M314.85 310.08C313.57 304.05 308.91 287.31 296.74 287.04C296.64 287.04 296.55 287.04 296.46 287.04C286.2 287.04 281.42 299.54 279.48 306.93C279.01 306.23 278.6 305.35 277.98 304.22C277.97 304.2 277.96 304.18 277.95 304.16C278.49 302.36 279.17 300.42 280.01 298.47C283.97 289.34 289.77 284.62 296.79 284.76C303.77 284.92 309.58 289.75 313.6 298.73C315.63 303.26 316.71 307.8 317.2 310.29C316.42 310.24 315.63 310.17 314.85 310.08Z" fill="#2647C8"/>
<path d="M482.29 273.17V278.17L454.33 282C444.89 281.08 438.93 279.71 438.93 278.18C438.92 275.41 458.34 273.17 482.29 273.17Z" fill="#95BAF9"/>
<path d="M482.29 278.18V350.25L454.33 354.07V282L482.29 278.18Z" fill="#83A5F2"/>
<path d="M454.33 282V354.07C444.89 353.15 438.93 351.78 438.93 350.25V278.18C438.92 279.71 444.89 281.08 454.33 282Z" fill="#6D98E2"/>
<path d="M482.29 297.16C506.25 297.16 525.68 299.4 525.68 302.16C525.68 303.7 519.63 305.08 510.1 306L482.29 302.16V297.16Z" fill="#6F8FE4"/>
<path d="M525.68 302.16C525.68 302.29 525.62 302.42 525.54 302.55C525.52 302.59 525.49 302.62 525.46 302.66C525.41 302.72 525.35 302.78 525.28 302.84C525.24 302.88 525.19 302.92 525.14 302.95C524.97 303.07 524.76 303.2 524.52 303.32C524.48 303.34 524.43 303.36 524.38 303.38C524.15 303.49 523.88 303.59 523.59 303.7C523.52 303.72 523.46 303.75 523.39 303.77C523.05 303.89 522.67 304 522.25 304.11C522.16 304.13 522.07 304.16 521.97 304.18C521.58 304.28 521.17 304.38 520.73 304.48C520.65 304.5 520.57 304.52 520.49 304.53C520.1 304.61 519.69 304.7 519.26 304.78C519.25 304.78 519.24 304.78 519.23 304.79C518.78 304.87 518.32 304.95 517.83 305.03C517.67 305.06 517.51 305.08 517.35 305.11C517.01 305.16 516.67 305.22 516.31 305.27C516.11 305.3 515.9 305.33 515.7 305.36C515.36 305.41 515.02 305.45 514.67 305.5C514.46 305.53 514.24 305.55 514.03 305.58C513.6 305.63 513.15 305.69 512.7 305.74C512.5 305.76 512.31 305.79 512.11 305.81C511.46 305.88 510.8 305.95 510.11 306.02V354.11C510.8 354.04 511.46 353.98 512.11 353.9C512.31 353.88 512.51 353.86 512.7 353.83C513.15 353.78 513.6 353.73 514.03 353.67C514.14 353.66 514.26 353.64 514.37 353.63C514.47 353.62 514.57 353.6 514.67 353.59C515.02 353.55 515.36 353.5 515.7 353.45C515.91 353.42 516.11 353.39 516.31 353.36C516.67 353.31 517.01 353.25 517.35 353.2C517.51 353.17 517.68 353.15 517.83 353.12C518.31 353.04 518.78 352.96 519.23 352.88C519.24 352.88 519.25 352.88 519.26 352.87C519.69 352.79 520.1 352.71 520.49 352.62C520.52 352.61 520.55 352.61 520.58 352.6C520.64 352.59 520.68 352.58 520.74 352.56C521.18 352.46 521.59 352.36 521.98 352.26C522.07 352.24 522.17 352.21 522.26 352.19C522.68 352.08 523.06 351.96 523.4 351.85C523.47 351.83 523.53 351.8 523.6 351.78C523.89 351.67 524.16 351.57 524.39 351.46C524.43 351.44 524.49 351.42 524.53 351.4C524.78 351.28 524.98 351.15 525.15 351.03C525.17 351.02 525.19 351.01 525.21 350.99C525.24 350.96 525.26 350.94 525.29 350.91C525.36 350.85 525.42 350.79 525.47 350.73C525.49 350.71 525.52 350.69 525.53 350.67C525.54 350.66 525.54 350.64 525.55 350.62C525.63 350.49 525.69 350.36 525.69 350.23V302.16H525.68Z" fill="#1D3599"/>
<path d="M510.1 306V354.09L482.29 350.25V302.16L510.1 306Z" fill="#2647C8"/>
<path d="M482.29 318.42L510.1 322.26C503.22 322.92 494.52 323.34 485.03 323.41C484.11 323.42 483.2 323.42 482.3 323.42C471.65 323.42 461.89 322.98 454.33 322.24L482.29 318.42Z" fill="url(#paint3_linear)"/>
<path d="M503.49 322.8C497.96 323.16 491.69 323.38 485.03 323.42C484.11 323.43 483.2 323.43 482.3 323.43C471.65 323.43 461.89 322.99 454.33 322.25V354.08C461.89 354.82 471.65 355.26 482.3 355.26C483.21 355.26 484.11 355.26 485.03 355.25C491.69 355.2 497.97 354.98 503.49 354.63C505.84 354.48 508.05 354.3 510.1 354.1V322.27C508.05 322.47 505.83 322.65 503.49 322.8Z" fill="url(#paint4_linear)"/>
<path d="M478.5 297.3C478.41 297.3 478.33 297.28 478.25 297.23C477.99 297.09 477.89 296.76 478.04 296.51L513.88 230.68H535.88C536.18 230.68 536.41 230.92 536.41 231.22C536.41 231.52 536.17 231.76 535.88 231.76H514.52L478.98 297.03C478.87 297.2 478.69 297.3 478.5 297.3Z" fill="#83A5F2"/>
<path d="M552.73 186.12H482.48V250.71H552.73V186.12Z" fill="#E2E9FB"/>
<path d="M549.75 188.6H479.5V253.19H549.75V188.6Z" fill="white"/>
<path d="M542.95 198.56H527.63V199.8H542.95V198.56Z" fill="#D3DDF8"/>
<path d="M524.18 198.56H515.91V199.8H524.18V198.56Z" fill="#D3DDF8"/>
<path d="M511.37 198.56H495.4V199.8H511.37V198.56Z" fill="#D3DDF8"/>
<path d="M492.49 198.56H486.02V199.8H492.49V198.56Z" fill="#D3DDF8"/>
<path d="M542.96 205.08H514.67V206.32H542.96V205.08Z" fill="#D3DDF8"/>
<path d="M510.88 205.08H497.44V206.32H510.88V205.08Z" fill="#D3DDF8"/>
<path d="M494.91 205.08H486.02V206.32H494.91V205.08Z" fill="#D3DDF8"/>
<path d="M542.95 216.73H539.61V217.97H542.95V216.73Z" fill="#D3DDF8"/>
<path d="M537.77 216.73H527.21V217.97H537.77V216.73Z" fill="#D3DDF8"/>
<path d="M524.17 216.73H496.48V217.97H524.17V216.73Z" fill="#D3DDF8"/>
<path d="M492.49 216.73H486.02V217.97H492.49V216.73Z" fill="#D3DDF8"/>
<path d="M542.96 223.25H531.4V224.49H542.96V223.25Z" fill="#D3DDF8"/>
<path d="M526.5 223.25H497.44V224.49H526.5V223.25Z" fill="#D3DDF8"/>
<path d="M494.91 223.25H486.02V224.49H494.91V223.25Z" fill="#D3DDF8"/>
<path d="M489.36 241.43H486.02V242.67H489.36V241.43Z" fill="#D3DDF8"/>
<path d="M501.76 241.43H491.2V242.67H501.76V241.43Z" fill="#D3DDF8"/>
<path d="M513.07 241.43H504.8V242.67H513.07V241.43Z" fill="#D3DDF8"/>
<path d="M533.57 241.43H517.6V242.67H533.57V241.43Z" fill="#D3DDF8"/>
<path d="M542.96 241.43H536.49V242.67H542.96V241.43Z" fill="#D3DDF8"/>
<path d="M497.58 234.91H486.02V236.15H497.58V234.91Z" fill="#D3DDF8"/>
<path d="M514.3 234.91H499.71V236.15H514.3V234.91Z" fill="#D3DDF8"/>
<path d="M531.54 234.91H518.1V236.15H531.54V234.91Z" fill="#D3DDF8"/>
<path d="M542.95 234.91H534.06V236.15H542.95V234.91Z" fill="#D3DDF8"/>
</g>
<path d="M259.516 39.4996L240.537 20.5214L266.465 13.5721L259.516 39.4996ZM249.762 23.0083L257.046 30.2927L259.71 20.345L249.762 23.0083Z" fill="#C4C5C6"/>
<path d="M9.73732 74.6221H6.25732V89.2321H9.73732V74.6221Z" fill="#B1D6FF"/>
<path d="M15.2973 80.1821H0.687256V83.6621H15.2973V80.1821Z" fill="#B1D6FF"/>
<path d="M293.347 103.192L283.497 93.3421L293.347 83.4921L303.197 93.3421L293.347 103.192ZM288.417 93.3321L293.347 98.2621L298.277 93.3321L293.347 88.4021L288.417 93.3321Z" fill="#FFC107"/>
</g>
<defs>
<linearGradient id="paint0_linear" x1="306.208" y1="234.612" x2="350.567" y2="259.377" gradientUnits="userSpaceOnUse">
<stop offset="1.09e-06" stop-color="#FFD000"/>
<stop offset="1" stop-color="#FF7300"/>
</linearGradient>
<linearGradient id="paint1_linear" x1="334.276" y1="258.248" x2="294.405" y2="258.248" gradientUnits="userSpaceOnUse">
<stop offset="1.09e-06" stop-color="#FFD000"/>
<stop offset="1" stop-color="#FF7300"/>
</linearGradient>
<linearGradient id="paint2_linear" x1="304.718" y1="221.767" x2="291.679" y2="266.752" gradientUnits="userSpaceOnUse">
<stop offset="1.09e-06" stop-color="#FFD000"/>
<stop offset="1" stop-color="#FF7300"/>
</linearGradient>
<linearGradient id="paint3_linear" x1="454.326" y1="320.925" x2="510.099" y2="320.925" gradientUnits="userSpaceOnUse">
<stop stop-color="#FF7300"/>
<stop offset="1" stop-color="#FFD000"/>
</linearGradient>
<linearGradient id="paint4_linear" x1="454.326" y1="338.758" x2="510.099" y2="338.758" gradientUnits="userSpaceOnUse">
<stop offset="1.09e-06" stop-color="#FFD000"/>
<stop offset="1" stop-color="#FF7300"/>
</linearGradient>
<clipPath id="clip0">
<rect width="408.16" height="222.26" fill="white" transform="translate(188 133)"/>
</clipPath>
</defs>
</svg>
