<svg width="458" height="247" viewBox="0 0 458 247" fill="none" xmlns="http://www.w3.org/2000/svg">
<mask id="mask0" mask-type="alpha" maskUnits="userSpaceOnUse" x="0" y="0" width="458" height="215">
<rect width="458" height="215" fill="#4C80F1"/>
</mask>
<g mask="url(#mask0)">
<path fill-rule="evenodd" clip-rule="evenodd" d="M130.573 291.548C69.4573 234.936 53.6995 139.277 96.8927 67.8973C135.979 3.30431 208.621 70.9739 282.422 86.5421C350.147 100.828 431.722 71.1972 438.904 140.044C445.767 205.829 382.067 247.825 322.652 277.02C258.909 308.342 182.601 339.742 130.573 291.548Z" fill="#FFC107"/>
</g>
<g clip-path="url(#clip0)">
<path d="M222.55 73.5705L282.61 63.7705C285.23 63.3605 287.69 65.1505 288.1 67.7805L295.21 112.47C295.62 115.09 293.83 117.55 291.2 117.96L252.39 124.44L249.88 146.11C249.46 147.68 247.33 147.91 246.58 146.47L238.77 126.57L231.14 127.76C228.52 128.17 226.06 126.38 225.65 123.75L218.54 79.0605C218.13 76.4405 219.93 73.9805 222.55 73.5705Z" fill="white"/>
<path d="M241.185 99.804L235.353 100.763L238.3 118.693L244.132 117.734L241.185 99.804Z" fill="#83A5F2"/>
<path d="M282.287 93.0332L276.465 93.9896L279.41 111.92L285.232 110.963L282.287 93.0332Z" fill="#83A5F2"/>
<path d="M250.609 92.16L244.777 93.1187L248.699 116.979L254.531 116.021L250.609 92.16Z" fill="#D3DDF8"/>
<path d="M260.189 85.4556L254.357 86.4136L259.094 115.248L264.926 114.29L260.189 85.4556Z" fill="#83A5F2"/>
<path d="M271.809 91.3889L265.987 92.3464L269.472 113.531L275.293 112.573L271.809 91.3889Z" fill="#D3DDF8"/>
<path d="M266.77 73.3205L266.87 75.7505L273.46 75.4705L266.2 83.5605L250.49 76.9005L232.03 96.3305L233.79 98.0105L251.08 79.8005L266.85 86.4805L275.06 77.3305L274.46 83.4005L276.88 83.6405L277.94 72.8405L266.77 73.3205Z" fill="url(#paint0_linear)"/>
<path d="M312.48 183.481C312.3 183.481 312.12 183.441 311.95 183.341C311.41 183.051 311.21 182.381 311.51 181.841L322.93 160.841L307.84 141.321L297.44 149.121C296.95 149.491 296.26 149.391 295.89 148.901C295.52 148.411 295.62 147.721 296.11 147.351L307.38 138.891C307.87 138.531 308.55 138.621 308.92 139.101L325.12 160.061C325.39 160.411 325.43 160.881 325.22 161.271L313.45 182.911C313.25 183.271 312.87 183.481 312.48 183.481Z" fill="#0C1540"/>
<path d="M297.25 153.021L291.97 148.291L293.94 146.101C295.25 144.641 297.49 144.521 298.94 145.831C300.4 147.141 300.52 149.381 299.21 150.831L297.25 153.021Z" fill="#0C1540"/>
<path d="M282.41 152.431L294.16 162.971L294.19 162.941L294.37 162.751L298.54 158.091C299.89 156.581 300.56 154.691 300.56 152.821C300.56 151.121 300.01 149.421 298.94 148.021C298.83 147.881 298.72 147.751 298.6 147.611C298.4 147.381 298.18 147.161 297.95 146.951C294.7 144.041 289.71 144.311 286.8 147.551L282.41 152.431Z" fill="#2647C8"/>
<path d="M285.08 153.951C284.55 153.581 284.02 153.191 283.52 152.771L287.65 148.171C290.3 145.221 294.65 144.721 297.85 146.851C297.97 146.991 298.09 147.121 298.19 147.271C295.17 146.011 291.57 146.711 289.27 149.281L285.08 153.951Z" fill="#6F8FE4"/>
<path d="M294.16 162.971C293.33 163.891 290.04 162.281 286.79 159.361C283.55 156.451 281.58 153.341 282.41 152.421C283.01 151.751 284.93 152.431 287.18 153.971C288.02 154.541 288.9 155.241 289.77 156.021C290.64 156.801 291.43 157.611 292.09 158.381C293.88 160.461 294.77 162.301 294.16 162.971Z" fill="#0C1540"/>
<path d="M292.1 158.39C290.87 159.61 288.88 159.67 287.57 158.49C286.26 157.32 286.1 155.33 287.18 153.98C288.02 154.55 288.9 155.25 289.77 156.03C290.66 156.82 291.44 157.62 292.1 158.39Z" fill="url(#paint1_linear)"/>
<path d="M310.08 139.78C310.08 138.66 309.17 137.75 308.05 137.75C306.93 137.75 306.02 138.66 306.02 139.78C306.02 140.9 306.93 141.81 308.05 141.81C309.17 141.81 310.08 140.9 310.08 139.78Z" fill="#6F8FE4"/>
<path d="M309.21 139.78C309.21 139.14 308.69 138.61 308.05 138.61C307.41 138.61 306.88 139.13 306.88 139.78C306.88 140.42 307.4 140.95 308.05 140.95C308.69 140.94 309.21 140.42 309.21 139.78Z" fill="#2647C8"/>
<path d="M325.74 161.071C325.74 159.951 324.83 159.041 323.71 159.041C322.59 159.041 321.68 159.951 321.68 161.071C321.68 162.191 322.59 163.111 323.71 163.111C324.83 163.111 325.74 162.201 325.74 161.071Z" fill="#6F8FE4"/>
<path d="M324.87 161.071C324.87 160.431 324.35 159.911 323.7 159.911C323.06 159.911 322.54 160.431 322.54 161.071C322.54 161.711 323.06 162.241 323.7 162.241C324.35 162.241 324.87 161.721 324.87 161.071Z" fill="#2647C8"/>
<path d="M327.44 186.86H298.64C298.64 184.24 300.77 182.11 303.39 182.11H322.69C325.31 182.11 327.44 184.24 327.44 186.86Z" fill="#2647C8"/>
<path d="M344.32 186.35H290.33V245.93H344.32V186.35Z" fill="#2647C8"/>
<path d="M336.53 186.35H282.54V245.93H336.53V186.35Z" fill="#83A5F2"/>
<path d="M330.75 205.75H288.31C286.5 205.75 285.02 204.28 285.02 202.46V193.22C285.02 191.4 286.49 189.93 288.31 189.93H330.75C332.56 189.93 334.04 191.4 334.04 193.22V202.46C334.04 204.27 332.57 205.75 330.75 205.75Z" fill="#DCE4FB"/>
<path d="M332.34 193.59V202.09C332.34 203.35 331.31 204.39 330.03 204.39H289.04C287.76 204.39 286.73 203.36 286.73 202.09V193.59C286.73 193.18 286.84 192.79 287.04 192.45C287.44 191.77 288.18 191.3 289.04 191.3H330.03C330.89 191.3 331.63 191.77 332.03 192.45C332.23 192.79 332.34 193.18 332.34 193.59Z" fill="#83A5F2"/>
<path opacity="0.36" d="M332.03 192.45H287.03C287.43 191.77 288.17 191.3 289.03 191.3H330.02C330.89 191.29 331.64 191.76 332.03 192.45Z" fill="#0E1766"/>
<path d="M311.67 197.84C311.67 196.66 310.71 195.7 309.53 195.7C308.35 195.7 307.39 196.66 307.39 197.84C307.39 199.02 308.35 199.98 309.53 199.98C310.71 199.98 311.67 199.02 311.67 197.84Z" fill="#E2E9FB"/>
<path d="M330.75 224.28H288.31C286.5 224.28 285.02 222.81 285.02 220.99V211.75C285.02 209.93 286.49 208.46 288.31 208.46H330.75C332.56 208.46 334.04 209.93 334.04 211.75V220.99C334.04 222.81 332.57 224.28 330.75 224.28Z" fill="#DCE4FB"/>
<path d="M332.34 212.13V220.63C332.34 221.89 331.31 222.93 330.03 222.93H289.04C287.76 222.93 286.73 221.9 286.73 220.63V212.13C286.73 211.72 286.84 211.33 287.04 210.99C287.44 210.31 288.18 209.84 289.04 209.84H330.03C330.89 209.84 331.63 210.31 332.03 210.99C332.23 211.32 332.34 211.72 332.34 212.13Z" fill="#83A5F2"/>
<path opacity="0.36" d="M332.03 210.98H287.03C287.43 210.3 288.17 209.83 289.03 209.83H330.02C330.89 209.83 331.64 210.3 332.03 210.98Z" fill="#0E1766"/>
<path d="M311.67 216.38C311.67 215.2 310.71 214.24 309.53 214.24C308.35 214.24 307.39 215.2 307.39 216.38C307.39 217.56 308.35 218.52 309.53 218.52C310.71 218.51 311.67 217.56 311.67 216.38Z" fill="#E2E9FB"/>
<path d="M330.75 242.82H288.31C286.5 242.82 285.02 241.35 285.02 239.53V230.29C285.02 228.47 286.49 227 288.31 227H330.75C332.56 227 334.04 228.47 334.04 230.29V239.53C334.04 241.35 332.57 242.82 330.75 242.82Z" fill="#DCE4FB"/>
<path d="M332.34 230.66V239.16C332.34 240.42 331.31 241.46 330.03 241.46H289.04C287.76 241.46 286.73 240.43 286.73 239.16V230.66C286.73 230.25 286.84 229.86 287.04 229.52C287.44 228.84 288.18 228.37 289.04 228.37H330.03C330.89 228.37 331.63 228.84 332.03 229.52C332.23 229.86 332.34 230.26 332.34 230.66Z" fill="#83A5F2"/>
<path opacity="0.36" d="M332.03 229.52H287.03C287.43 228.84 288.17 228.37 289.03 228.37H330.02C330.89 228.37 331.64 228.84 332.03 229.52Z" fill="#0E1766"/>
<path d="M311.67 234.911C311.67 233.731 310.71 232.771 309.53 232.771C308.35 232.771 307.39 233.731 307.39 234.911C307.39 236.091 308.35 237.051 309.53 237.051C310.71 237.051 311.67 236.091 311.67 234.911Z" fill="#E2E9FB"/>
<path d="M420.5 152.07C420.38 151.64 420.26 151.21 420.15 150.78C419.96 150.1 418.9 150.39 419.09 151.07C419.21 151.5 419.32 151.93 419.44 152.36C419.62 153.04 420.68 152.75 420.5 152.07Z" fill="#83A5F2"/>
<path d="M420.56 156.081C419.92 156.561 419.35 157.081 418.85 157.701C418.41 158.251 419.18 159.031 419.63 158.481C420.07 157.941 420.56 157.451 421.11 157.031C421.67 156.611 421.12 155.661 420.56 156.081Z" fill="#83A5F2"/>
<path d="M390.03 222.19C390.17 224.28 390.3 226.37 390.42 228.46C390.67 228.45 390.92 228.45 391.17 228.44C391.01 225.88 390.85 223.31 390.68 220.75C390.27 214.52 389.69 208.3 387.83 202.31C386.03 196.5 383.33 191.02 380.65 185.57C380.44 185.14 379.79 185.52 380 185.95C382.75 191.55 385.52 197.18 387.3 203.18C389.15 209.37 389.61 215.79 390.03 222.19Z" fill="#0C1540"/>
<path d="M395.34 228.8C395.64 215.42 397.01 202.11 400.89 189.21C401.03 188.75 400.31 188.55 400.17 189.01C396.27 201.98 394.9 215.35 394.59 228.8C394.85 228.8 395.1 228.8 395.34 228.8Z" fill="#0C1540"/>
<path d="M388.24 229.091C388.49 229.071 388.74 229.051 388.99 229.041C388.46 226.181 387.77 223.34 386.89 220.55C385.01 214.64 382.39 207.851 376.22 205.311C375.77 205.131 375.58 205.85 376.02 206.03C382.5 208.69 385.02 216.59 386.77 222.75C387.36 224.85 387.84 226.961 388.24 229.091Z" fill="#0C1540"/>
<path d="M412.05 204.491C409.21 206.551 406.65 208.65 405.31 212C403.7 216.04 402.82 220.5 401.92 224.75C401.62 226.15 401.35 227.551 401.1 228.951C401.35 228.961 401.6 228.971 401.85 228.991C402.01 228.101 402.18 227.221 402.36 226.341C403.13 222.531 404.04 218.741 405.11 215.011C405.72 212.891 406.43 210.791 407.85 209.071C409.14 207.511 410.8 206.321 412.42 205.151C412.81 204.861 412.44 204.211 412.05 204.491Z" fill="#0C1540"/>
<path d="M413.95 170.711C415.62 171.111 417.28 170.891 418.83 170.301C418.22 173.101 417.37 175.851 416.17 178.451C413.71 180.891 407.52 184.991 407.86 185.041C409.27 185.261 410.65 185.201 412.04 185.061C410.78 186.601 409.38 188.011 407.85 189.271C404.69 191.891 400.68 193.63 398.45 197.22C398.4 197.3 398.33 197.35 398.26 197.36C398.18 197.57 397.9 197.691 397.74 197.451C392.76 189.801 393.82 180.24 394.88 171.64C394.93 171.23 394.98 170.831 395.04 170.421C396.4 172.631 397.91 174.71 399.87 176.47C400.14 176.72 397.46 168.731 396.09 165.021C396.64 163.031 397.43 161.111 398.62 159.341C401.09 155.661 404.58 152.501 407.91 149.621C408.04 149.501 408.2 149.391 408.33 149.271C408.58 151.231 409.09 153.141 409.9 154.951C410.04 155.271 410.66 149.761 410.83 147.221C411.64 146.591 412.46 145.961 413.3 145.361C414.4 144.551 415.87 143.091 417.36 143.691C418.81 144.261 420.75 151.201 420.77 153.051C420.78 153.841 420.76 154.651 420.73 155.451C420.73 155.801 420.7 156.151 420.69 156.491C420.52 159.701 420.1 162.941 419.61 166.091C419.46 166.231 419.32 166.37 419.16 166.5C417.5 167.91 413.64 170.641 413.95 170.711Z" fill="#83A5F2"/>
<path d="M417.55 162.881C414.9 164.301 412.16 165.691 409.08 165.491C410.88 160.921 412.8 156.391 414.84 151.921C415.04 151.481 414.35 151.201 414.15 151.631C411.44 157.551 408.95 163.571 406.66 169.671C405.45 166.631 404.72 163.491 404.47 160.221C404.43 159.741 403.69 159.851 403.73 160.331C404 163.791 404.79 167.121 406.11 170.331C406.16 170.451 406.24 170.511 406.34 170.541C405.84 171.871 405.36 173.211 404.89 174.551C403.96 172.581 403.34 170.521 403.07 168.341C403.01 167.861 402.27 167.971 402.33 168.451C402.63 170.871 403.33 173.181 404.43 175.351C404.46 175.411 404.51 175.461 404.55 175.491C402.05 182.621 399.84 189.861 397.93 197.181C397.81 197.641 398.55 197.731 398.67 197.271C399.32 194.771 400.01 192.291 400.73 189.811C400.82 189.871 400.93 189.891 401.06 189.851C402.61 189.261 404 188.381 405.2 187.241C405.55 186.911 405.09 186.321 404.74 186.651C403.63 187.701 402.36 188.521 400.94 189.091C403.21 181.351 405.83 173.721 408.77 166.221C408.78 166.221 408.79 166.231 408.8 166.231C412.09 166.511 415 165.081 417.83 163.571C418.26 163.341 417.97 162.651 417.55 162.881Z" fill="#0C1540"/>
<path d="M420.68 156.49C418.97 157.98 417.03 159.18 414.89 160.06C414.44 160.24 414.15 159.55 414.59 159.37C416.88 158.43 418.94 157.12 420.72 155.45C420.72 155.8 420.7 156.15 420.68 156.49Z" fill="#0C1540"/>
<path d="M352.02 200.041C351.11 201.411 349.79 202.321 348.29 202.891C350.64 204.541 353.1 206.011 355.73 207.131C359.14 207.331 366.3 206.321 366.1 206.581C365.26 207.651 364.24 208.501 363.16 209.291C365.09 209.601 367.05 209.731 368.99 209.661C373.01 209.541 377.03 208.211 381.05 209.401C381.14 209.431 381.22 209.421 381.28 209.381C381.48 209.481 381.76 209.381 381.71 209.121C380.01 200.321 372.74 194.021 366.13 188.411C365.82 188.141 365.51 187.881 365.19 187.621C365.74 190.111 366.09 192.611 365.9 195.161C365.88 195.511 362.33 187.951 360.76 184.361C359.01 183.261 357.14 182.361 355.1 181.841C350.85 180.751 346.23 180.691 341.91 180.741C341.73 180.741 341.55 180.761 341.38 180.761C342.54 182.351 343.48 184.071 344.14 185.931C344.26 186.251 340.06 182.631 338.21 180.881C337.2 180.951 336.2 181.011 335.2 181.111C333.87 181.231 331.84 181.111 331.19 182.501C330.56 183.851 333.91 190.171 335.17 191.541C335.7 192.121 336.26 192.701 336.83 193.271C337.07 193.521 337.32 193.761 337.57 194.001C339.88 196.241 342.38 198.331 344.88 200.321C345.08 200.331 345.28 200.341 345.48 200.331C347.6 200.281 352.19 199.791 352.02 200.041Z" fill="#83A5F2"/>
<path d="M344.14 196.641C346.98 195.971 349.87 195.221 351.91 193.081C347.52 190.911 343.08 188.831 338.59 186.891C338.15 186.701 338.45 186.051 338.88 186.241C344.84 188.821 350.7 191.611 356.47 194.581C355.25 191.581 353.62 188.811 351.57 186.261C351.27 185.891 351.87 185.491 352.17 185.861C354.34 188.561 356.05 191.511 357.31 194.701C357.36 194.821 357.34 194.921 357.29 195.001C358.55 195.661 359.8 196.321 361.05 197.001C360.37 194.961 359.4 193.061 358.1 191.291C357.81 190.901 358.41 190.501 358.7 190.891C360.14 192.851 361.22 194.991 361.92 197.291C361.94 197.361 361.94 197.421 361.93 197.471C368.56 201.071 375.06 204.931 381.39 209.051C381.79 209.311 381.33 209.851 380.93 209.601C378.77 208.191 376.59 206.821 374.39 205.481C374.37 205.581 374.31 205.671 374.18 205.721C372.68 206.291 371.1 206.541 369.47 206.491C369 206.471 368.92 205.741 369.39 205.761C370.9 205.821 372.35 205.591 373.74 205.091C366.86 200.911 359.81 197.021 352.61 193.431C352.6 193.441 352.6 193.451 352.59 193.461C350.45 195.791 347.43 196.621 344.4 197.341C343.94 197.441 343.68 196.751 344.14 196.641Z" fill="#0C1540"/>
<path d="M337.57 193.99C339.8 193.98 341.98 193.6 344.09 192.86C344.53 192.7 344.27 192.011 343.83 192.171C341.57 192.961 339.22 193.34 336.82 193.26C337.06 193.51 337.32 193.76 337.57 193.99Z" fill="#0C1540"/>
<path d="M457.22 184.831C456.31 188.411 447.58 188.171 444.7 188.521C438.34 189.291 432.11 190.111 426.67 193.781C420.25 198.111 414.34 203.461 408.48 208.521C408.11 208.841 407.69 208.861 407.34 208.721C407.27 208.701 407.02 207.551 406.76 205.801C406.14 201.701 405.45 194.321 406.95 190.561C408.01 187.921 409.57 185.531 411.45 183.431C411.46 184.731 411.67 186.021 412.33 187.111C412.49 187.371 414.16 182.361 415.02 180.101C415.52 179.721 416.01 179.351 416.53 179.011C417.71 178.221 418.97 177.511 420.28 176.911C420.56 176.781 420.84 176.651 421.12 176.531C422.17 176.081 423.26 175.681 424.36 175.341C424.65 175.251 424.95 175.161 425.25 175.081C426.27 174.791 427.32 174.551 428.38 174.361C428.26 176.201 428.3 178.021 428.7 179.851C428.78 180.231 430.22 175.931 430.74 174.011C431.72 173.881 432.71 173.821 433.71 173.781C433.7 174.981 433.79 176.181 434.07 177.361C434.14 177.641 436.08 174.971 436.84 173.771C439.96 173.881 443.03 174.351 445.91 175.201C446.16 175.271 446.41 175.341 446.65 175.431C447.44 175.681 448.2 175.951 448.95 176.261C451.71 177.391 458.03 180.811 457.23 184.721C457.24 184.761 457.23 184.801 457.22 184.831Z" fill="#83A5F2"/>
<path d="M422.97 186.65C412.73 192.85 407.27 208.7 407.34 208.72C407.7 208.87 408.11 208.84 408.48 208.52C414.33 203.46 420.25 198.11 426.67 193.78C432.11 190.11 438.34 189.29 444.7 188.52C447.57 188.17 456.31 188.42 457.22 184.83C445.83 183.48 433.02 180.57 422.97 186.65Z" fill="#0C1540"/>
<path d="M422.74 183.15C422.86 180.45 423.4 177.85 424.36 175.36C424.65 175.27 424.95 175.18 425.25 175.1C424.19 177.68 423.61 180.36 423.49 183.16C423.46 183.63 422.72 183.63 422.74 183.15Z" fill="#0C1540"/>
<path d="M419.69 183.941C419.63 181.571 419.82 179.231 420.28 176.921C420.56 176.791 420.84 176.661 421.12 176.541C420.6 178.981 420.38 181.431 420.45 183.941C420.45 184.431 419.7 184.421 419.69 183.941Z" fill="#0C1540"/>
<path d="M444.1 181.23C444.04 181.71 443.29 181.7 443.35 181.23C443.63 178.96 444.68 177.06 445.91 175.21C446.16 175.28 446.41 175.35 446.65 175.44C445.46 177.2 444.37 179.05 444.1 181.23Z" fill="#0C1540"/>
<path d="M349.72 158.89C349.19 162.55 357.36 165.66 359.88 167.08C365.46 170.22 370.9 173.36 374.54 178.83C378.82 185.28 382.24 192.49 385.72 199.4C385.94 199.84 386.32 200.02 386.7 200.02C386.77 200.03 387.44 199.06 388.35 197.55C390.49 194 393.95 187.44 393.99 183.39C394.02 180.55 393.49 177.74 392.55 175.08C392.05 176.28 391.35 177.39 390.33 178.15C390.08 178.33 390.45 173.06 390.52 170.65C390.21 170.11 389.88 169.58 389.54 169.07C388.75 167.89 387.86 166.76 386.88 165.7C386.67 165.47 386.46 165.24 386.25 165.03C385.45 164.21 384.6 163.43 383.71 162.69C383.48 162.5 383.24 162.3 382.99 162.11C382.15 161.46 381.28 160.83 380.37 160.25C379.78 162 379.04 163.66 377.97 165.2C377.75 165.52 378.06 161 378.32 159.02C377.46 158.53 376.57 158.09 375.66 157.67C375.21 158.78 374.67 159.86 373.96 160.85C373.79 161.09 373.01 157.87 372.77 156.47C369.85 155.38 366.82 154.64 363.84 154.33C363.58 154.3 363.32 154.27 363.07 154.25C362.25 154.18 361.43 154.14 360.63 154.14C357.65 154.13 350.5 154.88 349.74 158.79C349.73 158.82 349.73 158.85 349.72 158.89Z" fill="#83A5F2"/>
<path d="M349.72 158.891C349.19 162.551 357.36 165.661 359.88 167.081C365.46 170.221 370.9 173.361 374.54 178.831C378.82 185.281 382.24 192.491 385.72 199.401C385.94 199.841 386.32 200.021 386.7 200.021C386.77 200.031 387.78 183.301 380.68 173.651C373.72 164.191 360.76 161.991 349.72 158.891Z" fill="#0C1540"/>
<path d="M382.24 170.5C383.16 167.96 383.65 165.36 383.71 162.68C383.48 162.49 383.24 162.29 382.99 162.1C382.99 164.89 382.5 167.59 381.54 170.22C381.38 170.67 382.07 170.96 382.24 170.5Z" fill="#0C1540"/>
<path d="M384.75 172.401C385.71 170.231 386.42 168.001 386.88 165.691C386.67 165.461 386.46 165.231 386.25 165.021C385.8 167.481 385.07 169.821 384.05 172.111C383.86 172.561 384.55 172.841 384.75 172.401Z" fill="#0C1540"/>
<path d="M363.22 160.57C363.1 161.04 363.79 161.31 363.92 160.86C364.52 158.65 364.29 156.5 363.85 154.32C363.59 154.29 363.33 154.26 363.08 154.24C363.5 156.33 363.81 158.45 363.22 160.57Z" fill="#0C1540"/>
<path d="M413.64 229.661C413.64 231.061 413.49 232.421 413.21 233.731C412.19 238.501 409.42 242.621 405.6 245.391H382.81C378.99 242.621 376.22 238.501 375.21 233.731C374.93 232.421 374.78 231.051 374.78 229.661C374.78 228.201 374.94 226.791 375.25 225.421C375.5 224.261 375.87 223.141 376.32 222.071H412.11C412.57 223.141 412.93 224.261 413.18 225.421C413.48 226.791 413.64 228.211 413.64 229.661Z" fill="url(#paint2_linear)"/>
<path opacity="0.08" d="M383.41 222.071H376.31C375.86 223.141 375.49 224.261 375.24 225.421C374.93 226.781 374.77 228.201 374.77 229.661C374.77 231.061 374.92 232.421 375.2 233.731C376.22 238.501 378.99 242.621 382.8 245.391H385.96C382.15 242.631 380.37 229.971 383.41 222.071Z" fill="black"/>
<path opacity="0.64" d="M410.73 224.001C410.4 222.631 408.3 223.211 408.62 224.581C409.5 228.271 410.01 232.221 408.13 235.691C407.46 236.931 409.35 238.031 410.02 236.791C412.18 232.781 411.75 228.291 410.73 224.001Z" fill="white"/>
<path d="M151.25 213.581C153.16 223.211 158.08 232.551 165.98 238.561C175.35 245.711 187.45 246.181 198.78 246.211C211.68 246.251 240.57 250.501 249.33 230.301C249.54 229.821 249.74 229.321 249.92 228.821C257.72 207.391 242.59 185.381 217.8 182.391C211.34 179.101 203.45 153.591 198.35 148.651C190.77 141.331 180.69 140.281 172.12 145.961C171.58 146.311 171.06 146.691 170.55 147.091C168.98 148.311 167.58 149.681 166.32 151.181C160.56 158.011 157.68 167.311 155.09 175.621C151.3 187.791 148.72 200.871 151.25 213.581Z" fill="white"/>
<path d="M190.55 196.42C190.55 196.42 184.06 185.26 174.99 180.99C174.99 180.99 189.29 187.72 195.33 198.16L190.55 196.42Z" fill="#BFCFEF"/>
<path d="M190.55 196.421C190.55 196.421 213.6 201.401 220.38 207.081C220.38 207.081 204.86 200.881 192.91 200.991L190.55 196.421Z" fill="#BFCFEF"/>
<path d="M192.75 196.421C192.75 196.421 210.34 190.57 222.07 195.19C222.07 195.19 202.13 194.131 195.33 199.541L192.75 196.421Z" fill="#BFCFEF"/>
<path d="M269.2 233.08H275.77C276.93 238.1 280.45 241.41 286.43 241.96C289.95 242.28 289.67 246.61 289.67 246.61H270.2C270.2 246.61 267.85 244.57 270.34 240.2C270.94 239.13 269.2 233.08 269.2 233.08Z" fill="#FBBCBE"/>
<path d="M286.44 241.96C289.96 242.28 289.68 246.61 289.68 246.61H270.2C270.2 246.61 267.85 244.57 270.34 240.2C271.66 240.95 275.02 241.74 279.19 239.1C280.79 240.4 284 241.73 286.44 241.96Z" fill="#0C1540"/>
<path d="M282.4 240.89C282.4 240.89 279.07 238.91 278.67 237.17C278.26 235.43 276.2 237.01 275.99 237.5C275.79 237.98 278.43 240.84 282.4 240.89Z" fill="#0C1540"/>
<path d="M248.2 233.08H254.77C255.94 238.1 259.45 241.41 265.44 241.96C268.96 242.28 268.68 246.61 268.68 246.61H249.2C249.2 246.61 246.85 244.57 249.34 240.2C249.94 239.13 248.2 233.08 248.2 233.08Z" fill="#FBBCBE"/>
<path d="M265.43 241.96C268.95 242.28 268.67 246.61 268.67 246.61H249.19C249.19 246.61 246.84 244.57 249.33 240.2C250.65 240.95 254 241.74 258.17 239.1C259.79 240.4 262.99 241.73 265.43 241.96Z" fill="#0C1540"/>
<path d="M261.4 240.89C261.4 240.89 258.07 238.91 257.67 237.17C257.26 235.43 255.2 237.01 254.99 237.5C254.79 237.98 257.43 240.84 261.4 240.89Z" fill="#0C1540"/>
<path d="M213.21 147.48C215.16 152.18 229.23 167.05 231.82 169.89C234.94 173.32 242.41 170.331 241.14 166.291C240.02 162.711 225.05 143.091 222.85 141.291C218.89 138.011 210.77 141.6 213.21 147.48Z" fill="#FBBCBE"/>
<path d="M211.62 179.04C203.01 182.65 209.59 196.61 220.7 200.24C231.81 203.86 244.24 201.6 253.91 202.3C256.66 202.5 263.67 197.93 258.52 192.3C253.36 186.66 223.25 174.16 211.62 179.04Z" fill="#83A5F2"/>
<path d="M255.33 190C265.51 195.02 273.96 227.23 277.67 232.23C277.67 232.23 273.49 236.48 268.48 238.91C268.48 238.91 247.5 204.79 245.74 200.71C242.06 192.19 251.97 188.35 255.33 190Z" fill="#83A5F2"/>
<path d="M223.67 179.061C223.67 179.061 243.69 188.831 247.63 193.991C250.97 198.371 264.72 215.771 268.47 238.911L243.83 198.161L230.94 201.971L213.75 185.261L223.67 179.061Z" fill="#2647C8"/>
<path d="M191.26 179.04C187.94 185.76 190.14 195.15 201.25 198.78C212.36 202.4 224.72 201.6 235.15 202.3C237.9 202.48 245.88 198.09 240.73 192.46C235.57 186.82 196.84 167.73 191.26 179.04Z" fill="#83A5F2"/>
<path d="M226.65 164.271C222.03 159.111 211.81 146.551 210.73 143.981C208.15 137.871 215.41 133.391 219.46 136.651C220.47 137.461 234.49 153.841 238.42 159.511C236.21 164.771 227.66 164.001 226.65 164.271Z" fill="url(#paint3_linear)"/>
<path d="M201.83 181.211C201.83 181.211 192.06 184.301 197.22 190.131C202.38 195.951 228.74 202.171 228.74 202.171C228.74 202.171 196.78 203.581 191.49 191.411C186.9 180.861 193.47 176.061 193.47 176.061L201.83 181.211Z" fill="#2647C8"/>
<path d="M213.18 134.681C213.18 134.681 217.43 134.311 219.67 136.581C221.91 138.851 223.07 147.071 224.92 158.381C226.79 169.751 229.02 178.691 229.02 178.691C229.02 178.691 213.76 186.241 189.23 181.091C189.23 181.091 184.29 148.911 190.11 137.611C191.96 134.021 200.6 134.011 201.91 133.901C203.22 133.781 213.18 134.681 213.18 134.681Z" fill="url(#paint4_linear)"/>
<path d="M212.12 129.67C212.12 129.67 211.44 133.63 212.68 134.15C213.93 134.67 215.59 134.85 215.59 134.85C215.59 134.85 208.79 144.69 201.06 133.94C201.06 133.94 203.37 133.97 204.08 133.04C204.79 132.11 205.24 127.5 204.88 124.46L212.12 129.67Z" fill="#FBBCBE"/>
<path d="M204.08 133.04C204.79 132.11 205.24 127.5 204.88 124.45L209.01 127.42C208.19 128.15 206.95 130.2 206.99 130.32C205.91 132.34 205.31 135.18 207.41 136.74C209.02 137.94 211.17 137.88 213.15 137.29C210.49 139.28 205.97 140.74 201.06 133.93C201.06 133.94 203.37 133.97 204.08 133.04Z" fill="#DA91A7"/>
<path d="M189.17 137C185.47 140.5 170.88 162.57 169.15 166C167.06 170.13 171.96 175.12 175.74 173.2C178.96 171.56 197.49 146.51 198.4 143.81C200.04 138.94 193.79 132.62 189.17 137Z" fill="#FBBCBE"/>
<path d="M238.35 190.481C248.57 195.431 254.7 229.501 258.44 234.481C258.44 234.481 252.76 237.381 247.97 237.521C247.97 237.521 230.53 206.231 228.74 202.161C225.01 193.661 234.99 188.851 238.35 190.481Z" fill="#83A5F2"/>
<path d="M201.39 126.48C201.78 127.07 202.67 127.47 203.38 127.19C204.14 126.89 203.74 125.69 203.47 125.16C203.1 124.44 203.26 116.52 203.22 116.52C202.97 116.4 200.67 118.26 200.61 118.61C200.47 119.47 198.89 122.72 201.39 126.48Z" fill="#0C1540"/>
<path d="M215.59 113.811V125.781C215.59 129.021 212.73 131.641 209.2 131.641C205.67 131.641 202.81 129.021 202.81 125.781V125.511C202.81 125.511 199.53 126.221 199.53 122.631C199.53 119.041 201.59 119.541 201.59 119.541V113.801H215.59V113.811Z" fill="#FBBCBE"/>
<path d="M201.6 119.54V112.25H206.57C206.57 112.29 206.57 114.87 206.57 114.91V127.33C206.57 129.5 208.67 131.26 210.85 131.19C211.53 131.17 212.15 130.98 212.69 130.68C211.69 131.28 210.5 131.64 209.21 131.64C205.68 131.64 202.82 129.02 202.82 125.78V125.51C202.82 125.51 199.54 126.22 199.54 122.63C199.54 119.04 201.6 119.54 201.6 119.54Z" fill="#DA91A7"/>
<path d="M201.6 119.54C201.32 120.35 202.76 121.51 203.46 121.51C204.88 121.51 205.45 116.4 206.11 113.81C207.57 114.44 210.78 114.9 212.02 113.85C213.22 114.94 214.99 114.71 216.56 114.34C218.89 113.78 220.01 111.13 219.58 108.9C219.4 107.96 218.45 105.92 215.51 105.85C214.07 104.02 211.51 104.88 210.75 105.44C209.02 104.38 203.15 104.21 201.41 107.82C201.4 107.83 201.41 107.84 201.4 107.85C197.99 108.87 198.06 118.96 201.6 119.54Z" fill="#0C1540"/>
<path d="M259.48 184.2H218.71V186.35H259.48V184.2Z" fill="#1D3599"/>
<path d="M218.71 186.35H199.94V185.14C199.94 184.62 200.36 184.2 200.88 184.2H218.71V186.35V186.35Z" fill="#120D80"/>
<path d="M258.33 184.2H217.72L223.07 159.2C223.23 158.47 223.84 157.95 224.54 157.95H261.11C262.56 157.95 263.64 159.38 263.31 160.89L258.33 184.2Z" fill="#1D3599"/>
<path d="M259.32 184.2H218.71L224.06 159.2C224.22 158.47 224.83 157.95 225.53 157.95H262.87C263.93 157.95 264.71 158.99 264.48 160.09L259.32 184.2Z" fill="#120D80"/>
<path opacity="0.11" d="M243.38 157.94L254.81 184.2H249.58L237.72 157.94H243.38Z" fill="#F0F5FF"/>
<path opacity="0.11" d="M234.83 157.94L246.27 184.2H244.23L232.37 157.94H234.83Z" fill="#F0F5FF"/>
<path d="M172.67 173.81C176.88 176.3 196.64 179.8 199.95 180.59C203.94 181.54 205.34 176.51 201.36 175.08C197.52 173.7 176.16 164.51 173.76 164.28C169.41 163.88 167.4 170.69 172.67 173.81Z" fill="#FBBCBE"/>
<path d="M212.82 183.801C211.8 182.231 210.86 180.701 211.72 181.811C212.82 183.231 214.94 182.641 213.85 181.231C212.49 179.461 211.13 177.331 209.28 175.981C207.28 174.521 201.59 175.521 199.39 174.771C198.5 174.471 197.35 178.761 197.9 179.321C199.74 181.181 202.83 181.081 203.12 181.351C203.74 182.341 203.95 182.951 204.43 183.931C205.05 185.191 207.41 185.261 206.8 184.011C206.41 183.211 206.82 183.14 207.41 184.25C208.17 185.67 210.61 185.591 209.86 184.181C209.54 183.581 209.6 183.27 210.09 184.03C211.1 185.57 213.81 185.341 212.82 183.801Z" fill="#FBBCBE"/>
<path d="M200.97 133.94C200.97 133.94 203.47 138.361 208.73 138.961L204.85 142.84C204.85 142.84 200.2 138.941 199.45 133.891L200.97 133.94Z" fill="white"/>
<path d="M215.51 134.85C215.51 134.85 213.69 138.36 208.43 138.96L212.31 142.84C212.31 142.84 216.69 140.2 217.44 135.15L215.51 134.85Z" fill="white"/>
<path d="M208.42 138.96L204.85 142.84L207.02 146.77H210.6L212.3 142.84L208.42 138.96Z" fill="#1D3599"/>
<path d="M207.02 146.771L204.85 162.061L209.72 167.321L213.8 162.201L210.6 146.771H207.02Z" fill="#120D80"/>
<path d="M189.17 137C185.47 140.5 170.01 160.75 166.7 170.18C174.56 166.96 177.77 168.96 181.55 167.04C184.77 165.4 197.49 146.5 198.4 143.81C200.04 138.94 193.79 132.62 189.17 137Z" fill="url(#paint5_linear)"/>
<path d="M183.17 165.671L183.65 167.881L165.64 172.911L164.94 167.321L183.17 165.671Z" fill="#D3DDF8"/>
<path d="M87.6183 195.306L106.158 155.436L117.338 161.276L103.938 200.616L103.418 200.826C97.5183 203.186 90.7683 200.836 87.6183 195.306Z" fill="#1D3599"/>
<path d="M126.158 157.896L117.588 156.036L122.508 133.366L131.078 135.226C137.338 136.586 141.308 142.756 139.958 149.016C138.598 155.286 132.418 159.256 126.158 157.896Z" fill="#1D3599"/>
<path d="M40.9483 166.146C58.7983 163.636 73.8983 162.826 86.0283 162.836C91.1183 162.836 95.6883 162.986 99.7183 163.226C113.998 164.046 121.488 165.896 121.488 165.896L129.338 125.766C129.338 125.766 121.698 124.266 108.058 119.426C104.258 118.076 99.9883 116.456 95.2983 114.546C84.0883 109.986 70.4383 103.716 54.8283 95.186C38.9083 103.766 29.4383 152.206 40.9483 166.146Z" fill="#2647C8"/>
<path d="M64.8083 133.696C61.0683 154.026 49.5583 168.946 39.0983 167.016C28.6383 165.096 23.1883 147.056 26.9283 126.726C30.6683 106.396 42.1783 91.476 52.6383 93.406C63.0983 95.336 68.5483 113.376 64.8083 133.696Z" fill="#6F8FE4"/>
<path d="M60.2183 132.846C59.2883 137.966 57.8383 142.706 56.0483 146.806C51.7983 156.606 45.6583 162.706 40.0683 161.686C32.1483 160.236 28.2883 144.956 31.4883 127.566C34.6883 110.196 43.7083 97.2961 51.6483 98.7461C57.2383 99.7761 60.7783 107.676 61.2783 118.326C61.4883 122.786 61.1683 127.726 60.2183 132.846Z" fill="#1D3599"/>
<path d="M60.2183 132.846C59.2883 137.966 57.8383 142.706 56.0483 146.806C55.8583 146.816 55.6683 146.806 55.4583 146.796C47.3583 146.346 41.1683 139.416 41.6183 131.316C42.0683 123.236 48.9783 117.026 57.0883 117.476C58.5483 117.556 59.9683 117.846 61.2883 118.336C61.4883 122.786 61.1683 127.726 60.2183 132.846Z" fill="white"/>
<path d="M119.738 144.766C117.618 155.866 118.448 165.356 121.578 165.946C124.708 166.546 128.968 158.026 131.078 146.926C133.188 135.826 132.368 126.336 129.238 125.746C126.108 125.146 121.858 133.656 119.738 144.766Z" fill="#2647C8"/>
<path d="M86.0283 162.836C91.1183 162.836 95.6883 162.986 99.7183 163.226C110.868 135.836 108.158 119.926 108.058 119.426C104.258 118.076 99.9883 116.456 95.2983 114.546C97.4483 133.296 89.7083 154.216 86.0283 162.836Z" fill="#1D3599"/>
<path d="M3.95834 166.956C4.02834 166.956 4.10834 166.936 4.17834 166.906L14.6683 162.086C14.9283 161.966 15.0483 161.656 14.9283 161.386C14.8083 161.126 14.4883 161.006 14.2283 161.126L3.73834 165.946C3.47834 166.066 3.35834 166.376 3.47834 166.646C3.57834 166.836 3.76834 166.956 3.95834 166.956Z" fill="#D3DDF8"/>
<path d="M1.28832 144.276C1.32832 144.276 1.36832 144.276 1.39832 144.266L11.3883 142.076C11.6683 142.016 11.8483 141.736 11.7883 141.446C11.7283 141.166 11.4483 140.986 11.1683 141.046L1.17832 143.236C0.898324 143.296 0.718324 143.576 0.778324 143.866C0.828324 144.106 1.04832 144.276 1.28832 144.276Z" fill="#D3DDF8"/>
<path d="M9.76831 122.356C10.0183 122.356 10.2383 122.186 10.2783 121.926C10.3283 121.646 10.1483 121.366 9.85831 121.316L0.618313 119.556C0.328313 119.506 0.0583132 119.686 0.00831323 119.976C-0.0416868 120.266 0.138313 120.536 0.428313 120.586L9.66831 122.346C9.69831 122.356 9.72831 122.356 9.76831 122.356Z" fill="#D3DDF8"/>
<path d="M17.6683 102.956C17.8383 102.956 17.9983 102.876 18.1083 102.726C18.2683 102.486 18.2083 102.156 17.9683 101.996L9.47829 96.286C9.23829 96.126 8.90829 96.186 8.74829 96.426C8.58829 96.666 8.6483 96.9959 8.8883 97.1559L17.3783 102.866C17.4583 102.926 17.5583 102.956 17.6683 102.956Z" fill="#D3DDF8"/>
<path d="M28.7483 87.106C28.8783 87.106 29.0083 87.056 29.1083 86.956C29.3183 86.756 29.3283 86.426 29.1283 86.216L21.1483 77.876C20.9483 77.666 20.6183 77.656 20.4083 77.856C20.1983 78.056 20.1883 78.386 20.3883 78.596L28.3683 86.936C28.4683 87.046 28.6083 87.106 28.7483 87.106Z" fill="#D3DDF8"/>
</g>
<defs>
<linearGradient id="paint0_linear" x1="232.027" y1="85.4213" x2="277.954" y2="85.4213" gradientUnits="userSpaceOnUse">
<stop offset="1.09e-06" stop-color="#FFD000"/>
<stop offset="1" stop-color="#FF7300"/>
</linearGradient>
<linearGradient id="paint1_linear" x1="286.22" y1="155.058" x2="291.135" y2="159.467" gradientUnits="userSpaceOnUse">
<stop offset="1.09e-06" stop-color="#FFD000"/>
<stop offset="1" stop-color="#FF7300"/>
</linearGradient>
<linearGradient id="paint2_linear" x1="374.777" y1="233.737" x2="413.638" y2="233.737" gradientUnits="userSpaceOnUse">
<stop stop-color="#FF7300"/>
<stop offset="1" stop-color="#FFD000"/>
</linearGradient>
<linearGradient id="paint3_linear" x1="189.751" y1="131.821" x2="256.062" y2="168.841" gradientUnits="userSpaceOnUse">
<stop offset="1.09e-06" stop-color="#FFD000"/>
<stop offset="1" stop-color="#FF7300"/>
</linearGradient>
<linearGradient id="paint4_linear" x1="229.022" y1="158.385" x2="187.278" y2="158.385" gradientUnits="userSpaceOnUse">
<stop offset="1.09e-06" stop-color="#FFD000"/>
<stop offset="1" stop-color="#FF7300"/>
</linearGradient>
<linearGradient id="paint5_linear" x1="166.693" y1="152.856" x2="198.66" y2="152.856" gradientUnits="userSpaceOnUse">
<stop offset="1.09e-06" stop-color="#FFD000"/>
<stop offset="1" stop-color="#FF7300"/>
</linearGradient>
<clipPath id="clip0">
<rect width="458" height="187" fill="white" transform="translate(0 59.712)"/>
</clipPath>
</defs>
</svg>
