<svg width="64" height="64" viewBox="0 0 64 64" fill="none" xmlns="http://www.w3.org/2000/svg">
<path d="M26.1094 32.2865C25.9271 32.1406 25.8177 31.9219 25.8177 31.6667C25.8177 31.4479 25.9271 31.2292 26.1094 31.0469L33.1823 23.974C33.3646 23.8281 33.5833 23.7188 33.8021 23.7188C34.0573 23.7188 34.276 23.8281 34.4219 23.974L35.224 24.776C35.4062 24.9583 35.5156 25.1771 35.5156 25.3958C35.5156 25.651 35.4427 25.8698 35.2604 26.0156L29.6094 31.6667L35.2604 37.3177C35.4427 37.5 35.5156 37.7187 35.5156 37.9375C35.5156 38.1927 35.4062 38.4115 35.224 38.5573L34.4219 39.3594C34.276 39.5417 34.0573 39.6146 33.8021 39.6146C33.5833 39.6146 33.3646 39.5417 33.1823 39.3594L26.1094 32.2865Z" fill="#495057"/>
</svg>
