<svg width="43" height="58" viewBox="0 0 43 58" fill="none" xmlns="http://www.w3.org/2000/svg">
<g filter="url(#filter0_d)">
<path fill-rule="evenodd" clip-rule="evenodd" d="M21.305 14.6308C23.2976 14.6308 24.9129 13.0155 24.9129 11.023C24.9129 9.0304 23.2976 7.4151 21.305 7.4151C19.3124 7.4151 17.6971 9.0304 17.6971 11.023C17.6971 13.0155 19.3124 14.6308 21.305 14.6308ZM14.9912 19.1407C14.9912 17.6463 16.2027 16.4348 17.6971 16.4348H24.9129C26.4073 16.4348 27.6188 17.6463 27.6188 19.1407V24.5525C27.6188 26.0469 26.4073 27.2584 24.9129 27.2584V34.4741C24.9129 35.4704 24.1052 36.2781 23.1089 36.2781H19.5011C18.5048 36.2781 17.6971 35.4704 17.6971 34.4741V27.2584C16.2027 27.2584 14.9912 26.0469 14.9912 24.5525V19.1407Z" fill="#4C80F1"/>
</g>
<defs>
<filter id="filter0_d" x="0.559719" y="0.199354" width="41.4905" height="57.726" filterUnits="userSpaceOnUse" color-interpolation-filters="sRGB">
<feFlood flood-opacity="0" result="BackgroundImageFix"/>
<feColorMatrix in="SourceAlpha" type="matrix" values="0 0 0 0 0 0 0 0 0 0 0 0 0 0 0 0 0 0 127 0"/>
<feOffset dy="7.21575"/>
<feGaussianBlur stdDeviation="7.21575"/>
<feColorMatrix type="matrix" values="0 0 0 0 0.368627 0 0 0 0 0.466667 0 0 0 0 1 0 0 0 0.3 0"/>
<feBlend mode="normal" in2="BackgroundImageFix" result="effect1_dropShadow"/>
<feBlend mode="normal" in="SourceGraphic" in2="effect1_dropShadow" result="shape"/>
</filter>
</defs>
</svg>
