<svg width="13" height="13" viewBox="0 0 13 13" fill="none" xmlns="http://www.w3.org/2000/svg">
<path fill-rule="evenodd" clip-rule="evenodd" d="M6.5 0.8125C6.05127 0.8125 5.6875 1.17627 5.6875 1.625V5.6875H1.625C1.17627 5.6875 0.8125 6.05127 0.8125 6.5C0.8125 6.94873 1.17627 7.3125 1.625 7.3125H5.6875V11.375C5.6875 11.8237 6.05127 12.1875 6.5 12.1875C6.94873 12.1875 7.3125 11.8237 7.3125 11.375V7.3125H11.375C11.8237 7.3125 12.1875 6.94873 12.1875 6.5C12.1875 6.05127 11.8237 5.6875 11.375 5.6875H7.3125V1.625C7.3125 1.17627 6.94873 0.8125 6.5 0.8125Z" fill="#58627C"/>
</svg>
